<?xml version="1.0" standalone="no"?>
<!DOCTYPE svg PUBLIC "-//W3C//DTD SVG 20010904//EN"
 "http://www.w3.org/TR/2001/REC-SVG-20010904/DTD/svg10.dtd">
<svg version="1.0" xmlns="http://www.w3.org/2000/svg"
 width="512" height="512" viewBox="0 0 624.935030 792.310324"
 preserveAspectRatio="xMidYMid meet">
<metadata>Created by Svg.la</metadata>
<g transform="translate(-221.868323,940.391538) scale(0.100000,-0.100000)"
fill="#000000" stroke="none">
<path d="M3116 9390 c-17 -19 -99 -156 -144 -240 -43 -79 -172 -359 -172 -374
0 -6 -7 -24 -16 -41 -28 -52 -53 -135 -47 -152 4 -10 2 -14 -4 -10 -11 7 -49
-126 -78 -272 -21 -102 -25 -382 -8 -456 7 -27 15 -71 18 -97 6 -45 5 -46 -24
-53 -49 -11 -51 -29 -3 -22 46 6 50 2 25 -25 -13 -14 -13 -18 -2 -19 29 -1
-78 -43 -126 -48 l-50 -6 55 -20 c30 -10 66 -18 80 -17 27 1 -53 -32 -104 -43
-15 -3 -27 -8 -24 -10 3 -4 70 9 113 22 18 5 18 3 -4 -20 -13 -14 -38 -29 -55
-34 -31 -7 -31 -7 13 -13 l45 -5 -37 -28 c-19 -15 -60 -34 -89 -41 -44 -12
-47 -15 -22 -15 17 -1 51 6 75 14 l44 15 -25 -21 c-24 -20 -25 -21 -2 -16 28
6 28 0 0 -30 -16 -17 -18 -23 -7 -24 8 -1 -6 -7 -31 -15 l-45 -13 38 2 c20 2
37 1 37 -1 0 -36 -88 -86 -127 -71 -15 5 -23 5 -23 -2 0 -6 -9 -8 -21 -4 -14
5 -19 3 -15 -4 7 -10 32 -16 114 -25 27 -3 40 -1 36 6 -5 7 4 9 24 6 25 -4 29
-2 21 9 -9 9 -8 13 0 13 7 0 10 4 6 9 -3 6 2 14 10 19 9 5 17 15 18 23 2 8 5
19 9 24 3 6 9 25 13 43 3 17 12 32 18 32 8 0 7 3 -2 9 -11 7 -10 11 5 20 14 8
15 11 4 11 -8 0 0 10 18 21 33 22 45 37 15 21 -11 -6 -20 -6 -28 1 -9 9 -7 15
9 28 12 9 28 19 36 22 10 4 8 6 -7 6 -27 1 -30 16 -5 26 16 6 16 7 -2 17 -17
10 -17 11 5 24 13 7 32 17 42 20 9 3 17 10 17 15 0 12 -17 11 -25 -1 -8 -13
-35 -13 -35 -1 0 5 8 12 18 15 9 3 23 15 30 27 12 19 12 20 -10 14 -21 -5 -21
-5 -4 6 12 8 15 14 7 18 -8 5 -3 17 15 36 20 22 28 25 34 15 5 -8 7 -17 4 -21
-2 -4 3 -10 12 -13 18 -7 19 -10 -20 64 -31 58 -31 58 -43 326 -4 89 -1 149
12 225 20 125 53 260 66 274 5 5 9 17 9 28 0 31 128 334 199 472 80 155 117
214 137 222 8 3 13 11 10 18 -8 22 41 24 60 4 10 -11 12 -19 6 -19 -6 0 -1
-23 13 -53 29 -63 58 -196 87 -402 17 -120 21 -202 22 -411 1 -144 4 -257 8
-250 4 6 8 65 8 131 0 81 3 115 10 105 7 -11 10 0 10 37 0 28 -3 54 -7 56 -5
3 -9 72 -10 154 l-2 148 13 -103 c7 -57 11 -114 8 -128 -2 -13 0 -30 5 -37 19
-24 24 -430 5 -449 -9 -9 -12 -5 -13 22 -1 30 -3 27 -13 -20 -7 -34 -16 -54
-24 -53 -6 2 -12 -6 -12 -17 0 -17 8 -13 44 25 24 25 49 45 56 45 7 0 5 -6 -4
-16 -26 -25 -18 -27 12 -2 62 52 91 93 84 119 -6 22 -7 21 -13 -11 l-6 -35 -2
35 c0 19 4 86 9 149 6 78 6 120 -1 134 -8 13 -8 22 0 30 8 8 11 6 11 -6 0 -9
4 -17 9 -17 6 0 6 12 1 30 -5 18 -5 30 1 30 5 0 9 -2 9 -4 0 -2 7 -40 15 -83
8 -43 15 -93 15 -111 0 -20 4 -31 10 -27 7 4 8 26 4 58 -4 29 -3 49 1 45 3 -3
8 -50 10 -102 2 -53 7 -101 10 -106 3 -6 1 -10 -4 -10 -6 0 -11 7 -11 15 0 8
-5 15 -11 15 -6 0 -9 -7 -6 -15 4 -8 2 -17 -3 -20 -6 -4 -10 -13 -10 -21 0 -8
5 -12 10 -9 17 10 11 -7 -7 -22 -17 -14 -17 -14 0 -9 15 5 16 3 6 -16 -10 -19
-13 -20 -23 -7 -9 13 -15 11 -35 -15 l-25 -31 26 23 c25 23 48 16 32 -9 -3 -6
18 12 47 40 29 27 55 49 58 48 3 -1 16 4 29 12 13 7 28 11 35 8 6 -2 21 6 34
17 26 22 53 30 53 15 0 -6 5 -7 11 -3 8 4 8 0 0 -15 -14 -25 -26 -28 -17 -5 6
15 4 15 -10 3 -11 -9 -12 -15 -5 -17 8 -3 7 -12 -5 -29 -9 -15 10 1 42 34 33
33 85 77 117 98 31 21 57 40 57 42 0 6 -53 -24 -89 -51 -49 -36 -66 -35 -46 3
11 22 12 32 3 37 -7 4 -8 3 -4 -4 4 -7 2 -12 -3 -12 -6 0 -11 -6 -11 -14 0
-19 -53 -61 -58 -47 -2 6 -10 11 -18 11 -8 0 -14 10 -14 26 0 40 -21 114 -31
108 -5 -3 -6 1 -3 9 11 30 -92 273 -247 582 -189 375 -209 409 -252 426 -46
17 -76 17 -91 -1z m231 -567 c-3 -10 -5 -4 -5 12 0 17 2 24 5 18 2 -7 2 -21 0
-30z m80 -230 c-3 -10 -5 -2 -5 17 0 19 2 27 5 18 2 -10 2 -26 0 -35z m60 -25
c-3 -7 -5 -2 -5 12 0 14 2 19 5 13 2 -7 2 -19 0 -25z m-43 -60 c3 -29 6 -71 7
-93 0 -22 4 -49 9 -60 7 -14 8 -6 5 29 -2 28 0 45 5 40 9 -9 12 -78 11 -211
-1 -71 -2 -73 -33 -89 l-31 -16 7 53 c13 111 18 286 8 342 -5 31 -6 57 -2 57
4 0 10 -24 14 -52z m72 40 c4 -7 3 -8 -4 -4 -8 5 -12 -1 -13 -16 0 -13 -3 -17
-6 -10 -5 13 2 42 11 42 3 0 8 -5 12 -12z m-49 -80 c-3 -7 -5 -2 -5 12 0 14 2
19 5 13 2 -7 2 -19 0 -25z m110 -25 c-3 -10 -5 -2 -5 17 0 19 2 27 5 18 2 -10
2 -26 0 -35z m44 -235 c-2 -10 -8 -15 -13 -12 -9 6 -7 55 3 159 2 11 5 -14 8
-55 3 -41 4 -83 2 -92z m-204 80 c-3 -8 -6 -5 -6 6 -1 11 2 17 5 13 3 -3 4
-12 1 -19z m250 -45 c-3 -10 -5 -4 -5 12 0 17 2 24 5 18 2 -7 2 -21 0 -30z
m46 -3 c3 -11 1 -20 -4 -20 -5 0 -9 9 -9 20 0 11 2 20 4 20 2 0 6 -9 9 -20z
m-53 -65 c-7 -9 -15 -13 -19 -10 -3 3 1 10 9 15 21 14 24 12 10 -5z m-62 -35
c-7 -10 -14 -18 -15 -16 -6 6 9 36 18 36 5 0 4 -9 -3 -20z m-891 -232 c-2 -13
-4 -5 -4 17 -1 22 1 32 4 23 2 -10 2 -28 0 -40z m37 -174 c3 -8 2 -12 -4 -9
-6 3 -10 10 -10 16 0 14 7 11 14 -7z m-107 -149 c0 -10 -10 -15 -26 -15 l-26
1 25 14 c14 8 25 14 26 15 0 0 1 -7 1 -15z m-47 -25 c18 -12 2 -12 -25 0 -13
6 -15 9 -5 9 8 0 22 -4 30 -9z"/>
<path d="M3453 8295 c0 -22 2 -30 4 -17 2 12 2 30 0 40 -3 9 -5 -1 -4 -23z"/>
<path d="M3440 8178 c-3 -26 -1 -43 3 -39 5 5 7 26 5 47 l-3 39 -5 -47z"/>
<path d="M3156 9158 c19 -141 23 -205 13 -241 -6 -22 -8 -51 -5 -66 5 -24 4
-24 -9 4 l-14 30 -1 -37 c0 -21 5 -38 10 -38 6 0 10 -5 10 -11 0 -8 -5 -8 -15
1 -13 11 -15 7 -16 -21 -2 -31 -2 -31 -6 -6 -2 15 -8 27 -13 27 -9 0 -7 -69 4
-170 5 -45 4 -49 -4 -20 -5 19 -12 58 -15 85 -11 85 -23 85 -22 0 3 -136 -6
-289 -15 -264 -5 12 -6 29 -4 38 3 9 1 32 -3 51 -8 32 -9 29 -9 -23 0 -32 -3
-61 -6 -64 -3 -4 -6 18 -6 48 0 36 -3 49 -9 40 -5 -8 -7 -39 -4 -69 5 -40 2
-56 -8 -62 -8 -6 -17 -4 -22 3 -4 7 -6 -7 -4 -30 4 -42 -8 -60 -16 -25 -2 9
-4 6 -3 -8 0 -14 5 -28 11 -32 6 -5 6 -8 -1 -8 -7 0 -10 -30 -10 -85 1 -47 -2
-85 -6 -85 -5 0 -8 33 -9 73 -1 39 -5 83 -9 97 -8 24 -4 -105 5 -178 2 -18 0
-30 -5 -27 -5 3 -12 -9 -16 -27 -6 -29 -8 -31 -16 -13 -7 18 -4 -27 6 -68 1
-7 1 -9 -1 -4 -3 4 -9 5 -14 1 -5 -3 -16 11 -25 32 -10 24 -19 33 -25 27 -7
-7 -3 -30 11 -69 15 -42 20 -49 17 -26 -2 17 -2 32 1 32 2 0 19 -17 38 -37
l34 -36 -10 31 c-6 22 -5 30 2 26 6 -4 8 2 3 17 -5 18 -4 21 4 9 6 -8 8 -22 6
-31 -3 -9 3 -22 12 -30 15 -11 16 -11 6 1 -15 16 -17 34 -4 26 5 -4 6 9 1 29
-4 19 -6 35 -4 35 2 0 17 -27 34 -60 17 -33 35 -60 41 -60 5 0 7 5 3 12 -11
18 -14 127 -3 133 5 4 9 2 9 -2 0 -5 6 -17 13 -26 10 -15 11 -5 9 53 -2 39 0
70 6 70 5 0 17 -19 27 -42 42 -101 56 -116 30 -32 -9 27 -22 81 -30 119 -8 39
-17 81 -21 95 l-6 25 21 -25 21 -25 0 57 c0 66 16 85 26 31 11 -61 25 -75 22
-21 -2 25 0 44 5 41 4 -2 7 2 7 9 0 9 3 9 10 -2 7 -10 10 33 10 131 0 80 4
149 8 155 10 11 -3 329 -17 404 -5 30 -17 75 -25 100 -15 44 -16 44 -10 8z
m-19 -440 c-3 -8 -6 -5 -6 6 -1 11 2 17 5 13 3 -3 4 -12 1 -19z m-50 -130 c-3
-7 -5 -2 -5 12 0 14 2 19 5 13 2 -7 2 -19 0 -25z m40 -60 c-3 -8 -6 -5 -6 6
-1 11 2 17 5 13 3 -3 4 -12 1 -19z m-80 -160 c-3 -7 -5 -2 -5 12 0 14 2 19 5
13 2 -7 2 -19 0 -25z m-80 -280 c-3 -8 -6 -5 -6 6 -1 11 2 17 5 13 3 -3 4 -12
1 -19z"/>
<path d="M5450 8990 c-14 -11 -28 -20 -32 -20 -3 0 -34 -16 -68 -35 -68 -39
-74 -41 -64 -22 4 6 -11 -4 -32 -24 -21 -19 -59 -51 -84 -69 -192 -145 -455
-392 -594 -557 -40 -48 -73 -80 -80 -76 -6 4 -42 10 -81 13 -42 3 -69 9 -68
16 1 6 -34 -2 -78 -18 -45 -15 -84 -26 -88 -23 -4 2 -8 -2 -8 -9 0 -13 60 -7
117 13 14 4 34 5 45 1 16 -7 14 -8 -10 -8 -16 0 -50 -11 -75 -26 -54 -31 -49
-33 14 -5 31 13 62 19 94 17 l47 -3 -30 -17 c-40 -23 -30 -22 40 2 60 21 88
26 70 12 -15 -11 -59 -76 -46 -68 15 10 14 5 -10 -50 -11 -27 -18 -56 -16 -66
3 -10 1 -16 -4 -12 -5 3 -9 -2 -9 -11 0 -12 4 -14 19 -5 11 5 22 15 24 22 3 7
6 4 6 -7 1 -14 10 -6 33 30 17 27 37 64 45 82 7 18 18 33 24 33 6 0 8 7 5 16
-3 8 -2 13 3 10 5 -3 23 17 41 44 53 83 50 56 -4 -35 -47 -77 -120 -249 -114
-267 2 -5 15 19 28 53 15 39 31 64 40 64 8 0 14 8 14 17 -1 10 3 16 8 15 6 -1
13 4 16 12 3 8 0 11 -7 7 -7 -5 -8 -1 -4 10 4 11 8 13 11 6 2 -7 9 -9 15 -5 6
3 1 -10 -12 -30 -13 -22 -20 -44 -16 -56 3 -10 -4 -62 -15 -116 -22 -100 -22
-142 0 -58 6 26 14 55 18 63 3 8 4 18 4 23 -1 4 2 7 8 7 5 0 7 8 4 18 -5 14
-4 15 5 2 6 -8 8 -24 5 -35 -2 -11 5 -2 18 20 28 52 90 214 92 242 0 11 4 19
9 16 6 -4 9 5 6 23 0 4 3 10 9 13 5 3 37 58 72 121 85 152 162 252 274 355
119 111 192 165 292 220 86 48 130 56 141 28 4 -10 11 -21 17 -25 16 -11 21
-383 7 -518 -32 -300 -84 -490 -219 -790 -52 -116 -107 -201 -189 -293 -18
-20 -33 -40 -33 -45 1 -4 10 4 20 17 11 13 20 18 20 11 0 -7 -19 -31 -42 -53
-40 -36 -22 -35 25 2 9 8 17 10 17 6 0 -5 19 11 41 36 23 24 32 31 20 14 -12
-16 -29 -41 -38 -55 -9 -14 -27 -37 -41 -51 -37 -41 -8 -45 36 -5 46 42 58 38
31 -9 -15 -24 -29 -35 -57 -40 l-37 -7 38 -19 c39 -21 42 -26 28 -48 -6 -9 -5
-25 0 -40 8 -21 1 -17 -36 22 -47 48 -75 66 -39 25 31 -36 57 -89 43 -86 -8 2
-13 -14 -14 -48 -1 -28 -4 -55 -7 -60 -3 -5 -4 -24 -3 -42 2 -18 -3 -39 -12
-47 -8 -8 -11 -15 -6 -15 5 0 9 -9 9 -20 0 -14 -5 -19 -15 -15 -11 4 -11 3 -2
-9 7 -9 9 -21 5 -28 -5 -7 -9 -26 -11 -43 -2 -16 -5 -47 -7 -67 -1 -21 1 -38
6 -38 5 0 7 -4 4 -9 -3 -5 11 -16 32 -24 20 -9 31 -16 24 -16 -7 -1 -10 -6 -7
-12 4 -6 13 -8 20 -5 8 3 12 -2 11 -12 -4 -22 29 -44 71 -48 42 -4 37 6 -16
32 -50 23 -52 35 -6 27 21 -3 35 -1 35 5 0 6 26 8 68 6 48 -2 59 -1 37 5 -16
5 -51 9 -76 10 -26 0 -52 7 -58 15 -7 8 -26 17 -44 20 -29 5 -33 10 -35 41
l-3 36 38 -16 37 -16 -36 33 c-33 31 -35 36 -31 81 4 40 7 46 20 36 12 -11 12
-9 2 14 -21 47 -1 42 56 -14 30 -29 63 -57 72 -62 10 -4 1 7 -19 25 -49 43
-88 102 -105 157 -13 44 -13 44 7 26 24 -22 26 -8 4 23 -32 46 -4 32 51 -25
48 -48 51 -50 18 -11 -61 72 -72 101 -60 152 5 24 18 48 28 55 12 7 19 7 19 1
0 -5 10 -10 23 -10 13 0 28 -5 35 -12 6 -6 14 -9 17 -6 3 3 -16 16 -42 28 -26
13 -49 24 -51 26 -5 3 58 127 82 159 31 42 70 117 105 205 17 41 35 74 40 73
6 -2 8 4 5 11 -3 8 2 28 10 45 9 16 16 36 16 43 0 7 -11 -9 -25 -37 -28 -56
-29 -52 -1 17 10 26 22 45 27 42 5 -2 11 7 15 21 3 13 10 22 15 19 9 -5 13 17
10 44 -1 8 4 21 12 30 8 10 17 33 20 52 3 19 17 103 31 185 67 397 57 919 -19
1001 -27 29 -70 31 -105 4z m-756 -897 c-9 -21 -30 -76 -47 -122 -23 -64 -32
-79 -38 -65 -10 25 -11 39 -2 30 10 -10 53 111 47 132 -4 12 -3 13 3 4 7 -9
14 -2 26 23 22 47 32 45 11 -2z m803 -375 c-3 -8 -6 -5 -6 6 -1 11 2 17 5 13
3 -3 4 -12 1 -19z m-20 -60 c-3 -8 -6 -5 -6 6 -1 11 2 17 5 13 3 -3 4 -12 1
-19z m-94 -223 c-3 -9 -8 -14 -10 -11 -3 3 -2 9 2 15 9 16 15 13 8 -4z m-213
-155 c-6 -11 -13 -20 -16 -20 -2 0 0 9 6 20 6 11 13 20 16 20 2 0 0 -9 -6 -20z
m-20 -120 c0 -5 -10 -15 -22 -21 -23 -12 -23 -12 -4 10 21 23 26 26 26 11z
m45 -748 c-3 -3 -11 0 -18 7 -9 10 -8 11 6 5 10 -3 15 -9 12 -12z"/>
<path d="M5363 8758 c-32 -28 -62 -59 -68 -69 -5 -9 -23 -27 -38 -39 -16 -13
-26 -28 -23 -37 3 -8 1 -11 -4 -8 -6 3 -10 1 -10 -5 0 -6 -21 -40 -47 -75 -98
-131 -117 -161 -152 -229 -19 -39 -40 -74 -46 -78 -5 -4 -6 -8 -1 -8 4 0 2
-10 -6 -22 -8 -13 -32 -54 -53 -93 l-39 -70 38 29 c36 27 38 28 31 6 -7 -23
-2 -23 53 -3 28 11 9 -18 -30 -45 -46 -31 -87 -72 -73 -72 4 0 23 11 41 25 44
34 54 32 20 -4 -15 -16 -28 -36 -30 -45 -1 -9 -14 -28 -28 -43 -14 -16 -32
-39 -41 -52 -9 -13 -41 -41 -73 -62 -31 -22 -50 -39 -42 -39 8 0 23 7 34 15
24 18 38 19 28 3 -4 -7 3 -3 15 10 33 34 35 26 4 -15 -15 -20 -41 -44 -58 -55
-39 -23 -28 -23 30 2 57 24 54 24 48 1 -5 -18 -2 -19 39 -9 70 16 108 17 108
2 0 -12 -39 -48 -76 -70 -15 -9 -2 -11 59 -8 43 2 83 7 89 10 32 20 -11 -21
-65 -62 -34 -25 -61 -51 -60 -55 2 -5 -3 -9 -10 -9 -16 0 -95 -69 -79 -70 7 0
29 7 49 15 49 21 51 19 17 -17 -16 -18 -19 -24 -6 -14 12 11 25 17 28 14 3 -3
-7 -15 -22 -27 l-27 -21 45 0 c37 0 52 6 84 35 l39 34 -32 -9 c-18 -4 -38 -11
-45 -15 -7 -4 -5 0 4 8 44 35 100 121 66 101 -7 -5 4 9 25 29 20 21 37 43 37
49 0 6 7 20 17 30 16 18 7 25 -13 11 -5 -5 0 1 11 12 11 11 27 29 35 40 14 19
14 19 -5 5 -11 -8 -31 -23 -44 -35 l-24 -20 12 22 c6 12 15 25 21 28 5 3 19
20 32 37 l22 32 -27 -19 c-14 -11 -29 -28 -32 -37 -7 -21 -65 -64 -65 -48 0 6
-5 8 -10 5 -6 -4 -7 -12 -4 -18 4 -7 4 -9 -1 -5 -4 4 -17 3 -29 -3 -13 -7 -9
-1 9 14 16 14 33 23 36 21 8 -5 103 105 112 130 6 16 5 17 -8 6 -8 -7 -15 -18
-15 -24 0 -7 -16 -28 -37 -47 l-36 -34 21 31 c12 17 18 34 15 38 -4 3 2 15 13
25 10 10 30 31 43 47 13 16 35 43 50 59 16 19 10 15 -17 -10 -23 -21 -42 -34
-42 -28 0 7 5 15 10 18 6 3 10 11 10 18 0 6 -7 2 -15 -10 -8 -12 -13 -27 -12
-35 2 -7 2 -9 -1 -5 -2 5 -13 0 -24 -10 -20 -18 -21 -18 -9 4 6 12 41 61 78
110 l66 88 -72 -75 c-68 -70 -70 -72 -40 -26 l32 49 -31 -23 c-18 -13 -35 -21
-39 -17 -3 4 -2 7 4 7 6 0 27 25 47 55 20 30 41 57 46 60 6 3 15 16 20 28 6
12 -10 0 -36 -28 -28 -31 -41 -40 -34 -25 8 16 -2 9 -25 -18 -39 -45 -58 -51
-31 -10 9 14 13 28 9 33 -5 4 -3 5 4 1 16 -9 45 36 37 57 -3 10 3 20 18 28
l23 12 -20 -24 -20 -24 24 20 c13 11 32 34 44 50 l21 30 -25 -22 c-36 -33 -48
-28 -16 5 15 16 25 31 22 34 -3 2 5 13 17 24 l23 19 -20 -25 -20 -25 22 19
c13 10 20 22 18 26 -3 4 2 13 10 20 8 7 15 17 15 22 0 6 -25 -11 -55 -37 -57
-48 -76 -56 -27 -10 20 19 24 28 14 33 -9 6 -7 13 10 28 19 16 20 16 9 1 -8
-9 -12 -20 -9 -23 3 -2 18 12 33 33 22 29 23 33 7 19 -15 -13 -22 -15 -22 -6
0 9 -7 7 -21 -6 -22 -19 -22 -19 -8 4 8 12 17 22 21 22 5 0 8 6 8 14 0 7 7 19
15 26 9 7 14 19 11 26 -3 8 6 27 20 43 17 20 20 31 12 34 -9 3 -5 13 12 33 14
16 -18 -9 -70 -56 l-95 -84 71 75 c84 88 113 128 59 79 l-39 -35 45 54 c40 50
41 53 14 36 -30 -20 -30 -20 -15 0 8 11 23 29 33 40 26 28 43 60 27 50 -9 -6
-9 -2 -1 14 11 20 22 25 48 22 6 -1 14 2 17 7 3 5 -6 8 -21 6 -25 -2 -25 -2
13 37 54 56 35 48 -33 -13z m-62 -111 c-10 -9 -11 -8 -5 6 3 10 9 15 12 12 3
-3 0 -11 -7 -18z m-11 -166 c0 -5 -7 -12 -16 -15 -14 -5 -15 -4 -4 9 14 17 20
19 20 6z m-260 -985 c0 -3 -4 -8 -10 -11 -5 -3 -10 -1 -10 4 0 6 5 11 10 11 6
0 10 -2 10 -4z m-50 -46 c0 -5 -5 -10 -11 -10 -5 0 -7 5 -4 10 3 6 8 10 11 10
2 0 4 -4 4 -10z"/>
<path d="M5285 8440 c-16 -17 -16 -20 -3 -15 9 4 19 13 22 21 7 19 2 18 -19
-6z"/>
<path d="M2986 8442 c-2 -4 -1 -14 5 -22 7 -12 9 -10 9 8 0 23 -5 28 -14 14z"/>
<path d="M5274 8398 c-4 -7 -14 -23 -22 -35 -8 -13 -12 -23 -9 -23 9 0 50 61
44 66 -3 3 -8 -1 -13 -8z"/>
<path d="M3363 8340 c0 -30 2 -43 4 -27 2 15 2 39 0 55 -2 15 -4 2 -4 -28z"/>
<path d="M3542 8360 c0 -14 2 -19 5 -12 2 6 2 18 0 25 -3 6 -5 1 -5 -13z"/>
<path d="M3512 8330 c0 -19 2 -27 5 -17 2 9 2 25 0 35 -3 9 -5 1 -5 -18z"/>
<path d="M4014 8326 c-11 -11 -33 -30 -49 -42 -21 -14 -24 -21 -13 -21 10 0
36 20 60 44 23 24 38 43 33 42 -6 -1 -19 -11 -31 -23z"/>
<path d="M4110 8309 l-35 -30 38 26 c33 24 43 35 34 35 -1 0 -18 -14 -37 -31z"/>
<path d="M3564 8276 c-3 -8 -4 -23 -2 -33 3 -11 6 -6 9 15 6 34 2 42 -7 18z"/>
<path d="M4380 8270 c-9 -6 -10 -10 -3 -10 6 0 15 5 18 10 8 12 4 12 -15 0z"/>
<path d="M4130 8255 c-25 -7 -62 -20 -82 -29 -49 -21 -55 -20 -32 5 l19 21
-40 -21 c-22 -11 -45 -21 -50 -21 -14 0 -65 -52 -65 -66 0 -5 4 -4 8 2 4 5 24
23 45 39 31 23 40 26 50 15 8 -8 8 -11 1 -7 -7 4 -29 -7 -50 -25 -22 -17 -30
-28 -19 -23 11 4 27 8 35 9 8 1 26 8 38 15 13 7 36 15 50 17 l26 5 -19 -23
c-15 -16 -15 -19 -3 -9 9 7 21 10 26 7 4 -2 28 0 53 5 24 6 53 12 63 15 36 7
81 24 130 49 60 31 50 32 -24 4 -30 -12 -84 -29 -120 -38 -36 -10 -74 -21 -85
-25 l-20 -8 20 17 c20 17 20 17 -2 11 -12 -4 -24 -2 -28 3 -8 13 64 44 84 36
9 -3 12 -3 8 1 -4 4 5 13 20 20 36 16 20 16 -37 -1z"/>
<path d="M3373 8195 c0 -22 2 -30 4 -17 2 12 2 30 0 40 -3 9 -5 -1 -4 -23z"/>
<path d="M4300 8090 c-8 -5 -10 -10 -5 -10 6 0 17 5 25 10 8 5 11 10 5 10 -5
0 -17 -5 -25 -10z"/>
<path d="M5194 8028 l-19 -23 23 19 c21 18 27 26 19 26 -2 0 -12 -10 -23 -22z"/>
<path d="M2820 7992 c0 -10 3 -22 6 -25 4 -4 8 -23 10 -43 2 -20 8 -42 14 -48
5 -7 7 -15 4 -18 -3 -3 0 -9 6 -13 11 -7 6 47 -11 117 -10 41 -29 60 -29 30z"/>
<path d="M4537 7966 c-4 -10 -7 -25 -6 -34 0 -11 4 -9 10 7 5 13 8 29 6 35 -2
5 -6 2 -10 -8z"/>
<path d="M4562 7940 c0 -14 2 -19 5 -12 2 6 2 18 0 25 -3 6 -5 1 -5 -13z"/>
<path d="M2743 7934 c3 -6 9 -25 12 -43 7 -40 38 -103 59 -120 10 -9 7 2 -8
30 -13 24 -29 62 -36 84 -7 22 -17 45 -23 50 -7 7 -8 6 -4 -1z"/>
<path d="M4551 7894 c0 -11 3 -14 6 -6 3 7 2 16 -1 19 -3 4 -6 -2 -5 -13z"/>
<path d="M4521 7864 c0 -11 3 -14 6 -6 3 7 2 16 -1 19 -3 4 -6 -2 -5 -13z"/>
<path d="M4541 7844 c0 -11 3 -14 6 -6 3 7 2 16 -1 19 -3 4 -6 -2 -5 -13z"/>
<path d="M4580 7814 c-13 -32 -13 -41 0 -49 5 -3 7 0 4 8 -2 7 0 26 5 40 6 15
8 27 6 27 -3 0 -10 -12 -15 -26z"/>
<path d="M5191 7777 c-13 -21 -12 -21 5 -5 10 10 16 20 13 22 -3 3 -11 -5 -18
-17z"/>
<path d="M4565 7739 c-4 -6 -5 -12 -2 -15 2 -3 7 2 10 11 7 17 1 20 -8 4z"/>
<path d="M4551 7694 c0 -11 3 -14 6 -6 3 7 2 16 -1 19 -3 4 -6 -2 -5 -13z"/>
<path d="M4940 7670 c-9 -6 -10 -10 -3 -10 6 0 15 5 18 10 8 12 4 12 -15 0z"/>
<path d="M5165 7669 c-4 -6 -5 -12 -2 -15 2 -3 7 2 10 11 7 17 1 20 -8 4z"/>
<path d="M4958 7554 c-38 -20 -36 -28 2 -9 17 9 30 18 30 20 0 7 -1 6 -32 -11z"/>
<path d="M5079 7523 c-13 -16 -12 -17 4 -4 16 13 21 21 13 21 -2 0 -10 -8 -17
-17z"/>
<path d="M2655 7440 c-3 -6 1 -7 9 -4 18 7 21 14 7 14 -6 0 -13 -4 -16 -10z"/>
<path d="M5030 7391 c-70 -52 -151 -131 -134 -131 26 0 215 162 204 173 -3 3
-35 -16 -70 -42z"/>
<path d="M3135 7394 c-14 -15 -14 -19 2 -44 10 -15 42 -47 72 -70 29 -23 61
-55 70 -71 23 -40 30 -36 24 14 -8 56 -45 130 -77 151 -48 31 -74 37 -91 20z"/>
<path d="M2270 7210 c19 -37 52 -70 63 -63 6 4 7 1 2 -7 -5 -8 3 -21 21 -36
38 -31 53 -31 17 0 l-28 25 40 -9 40 -9 -30 25 c-16 13 -39 27 -50 30 -11 3
-35 20 -54 38 -31 29 -33 29 -21 6z"/>
<path d="M5034 7188 l-19 -23 23 19 c21 18 27 26 19 26 -2 0 -12 -10 -23 -22z"/>
<path d="M2766 7178 c3 -13 23 -54 42 -93 35 -68 36 -73 33 -170 -4 -150 14
-189 146 -325 64 -66 117 -131 135 -166 30 -56 31 -61 25 -160 -3 -69 -1 -106
7 -115 8 -9 7 -11 -5 -6 -14 4 -16 -6 -15 -76 1 -70 6 -92 34 -151 18 -38 48
-84 67 -102 27 -25 35 -41 37 -73 3 -40 6 -43 53 -65 28 -13 59 -27 69 -30 31
-11 11 -18 -29 -10 -21 4 -54 21 -74 39 -20 17 -47 39 -61 48 -58 39 -138 130
-166 190 -32 69 -31 67 -79 122 -40 47 -44 60 -12 51 12 -4 31 -8 42 -10 11
-2 29 -7 40 -10 11 -4 7 0 -8 9 -16 9 -31 14 -34 11 -16 -16 -107 51 -189 140
-134 145 -344 411 -344 436 0 6 -10 23 -22 36 l-23 24 40 -22 c22 -12 31 -15
20 -6 -11 9 -20 22 -20 29 0 7 -6 13 -12 13 -7 1 -17 2 -22 3 -6 0 -37 24 -70
51 -33 28 -62 50 -65 50 -15 0 11 -34 47 -60 23 -16 37 -30 32 -30 -5 0 1 -10
12 -22 12 -13 37 -49 57 -80 20 -31 40 -59 45 -63 5 -3 8 -14 6 -25 -2 -11 1
-19 8 -17 7 1 11 -4 9 -10 -1 -7 5 -13 15 -13 9 0 14 -3 10 -6 -14 -14 131
-191 298 -364 97 -100 120 -133 109 -152 -4 -6 -3 -8 3 -5 14 9 34 -15 74 -88
31 -56 101 -150 124 -167 6 -5 3 -8 -7 -8 -10 0 -32 -9 -50 -21 l-33 -21 33 6
c101 19 98 18 80 3 -24 -19 -22 -26 7 -23 27 3 24 -10 -7 -32 -10 -7 -16 -18
-13 -23 4 -5 -5 -13 -18 -18 -14 -6 -28 -14 -32 -20 -8 -14 23 -3 57 21 39 27
42 22 12 -17 l-27 -36 30 17 c21 13 29 24 27 40 -1 13 4 28 11 34 16 13 39 4
29 -11 -3 -5 -10 -7 -15 -4 -5 4 -10 -1 -10 -9 -1 -9 -2 -20 -3 -25 0 -5 -27
-39 -59 -75 -32 -36 -56 -66 -52 -66 3 0 20 7 36 16 45 23 55 12 23 -26 l-28
-35 27 24 c36 32 45 20 16 -21 -16 -22 -17 -28 -6 -19 41 33 22 0 -36 -62 -34
-37 -62 -67 -61 -67 14 0 90 40 127 67 42 31 61 34 40 7 -5 -5 8 7 27 26 19
19 31 38 26 41 -4 4 0 12 10 18 11 6 15 11 10 11 -4 0 -25 -13 -45 -28 -20
-16 -44 -31 -53 -35 -15 -5 -16 -1 -11 26 8 44 25 69 78 113 25 21 45 44 45
51 0 6 8 17 18 22 9 6 12 11 6 11 -5 0 -23 -13 -39 -30 -15 -16 -32 -27 -37
-24 -4 3 -15 -2 -24 -11 -26 -25 -30 -8 -5 19 13 14 20 29 17 35 -12 19 20 25
117 22 62 -2 110 2 128 10 37 15 48 5 25 -20 -10 -11 -16 -26 -13 -33 4 -10 6
-10 6 0 1 15 37 52 52 52 6 0 8 -7 4 -17 -4 -13 -1 -12 15 5 27 28 45 29 30 1
-7 -11 -9 -23 -6 -27 3 -3 6 0 6 6 0 17 37 52 55 52 9 0 15 -10 16 -27 1 -25
2 -24 11 10 6 20 16 37 24 37 8 0 13 -3 12 -7 -3 -10 34 -53 45 -53 5 0 2 11
-7 25 -9 14 -14 30 -11 35 9 14 38 12 55 -2 12 -11 12 -10 2 3 -10 13 -5 17
33 26 38 9 47 8 60 -7 9 -10 27 -17 41 -16 29 1 29 1 4 24 -20 19 -20 19 20
31 43 13 51 10 170 -68 13 -9 21 -11 17 -4 -4 6 -32 26 -62 43 -31 17 -52 36
-49 41 3 6 12 8 20 5 8 -3 14 0 14 6 0 6 6 5 17 -3 9 -8 14 -9 10 -3 -16 28
143 46 189 21 16 -8 40 -19 54 -25 14 -6 45 -23 70 -38 25 -15 40 -22 35 -16
-13 15 -125 82 -135 82 -4 0 -13 6 -19 14 -9 10 2 16 57 30 37 10 116 31 175
48 115 31 143 31 134 -2 -3 -11 0 -20 6 -20 6 0 8 -2 5 -5 -3 -3 -23 1 -46 9
-30 11 -43 12 -48 4 -4 -7 -2 -8 4 -4 8 4 12 0 12 -11 0 -14 2 -15 9 -4 6 10
13 11 27 3 17 -9 16 -11 -10 -18 l-29 -7 24 -13 c29 -16 50 -18 29 -3 -12 8
-12 10 -1 7 8 -2 15 -14 16 -27 1 -16 -3 -20 -14 -16 -12 4 -11 1 2 -9 18 -14
18 -14 0 -19 -13 -3 -9 -6 14 -12 18 -4 30 -11 27 -16 -3 -5 10 -18 28 -29 29
-17 31 -25 5 -21 -5 1 -6 -3 -3 -8 3 -5 21 -12 40 -15 25 -5 34 -11 29 -21 -3
-9 1 -15 11 -15 9 0 16 -4 16 -9 0 -5 13 -14 30 -21 16 -7 27 -16 24 -21 -2
-5 7 -11 21 -15 26 -7 33 -20 13 -26 -7 -3 -5 -7 6 -11 10 -4 15 -3 11 3 -9
15 11 12 24 -3 6 -8 7 -18 3 -22 -4 -5 -1 -5 5 -1 7 4 34 -2 59 -13 26 -12 54
-21 63 -20 9 0 0 7 -19 14 -19 7 -29 14 -22 14 8 1 10 6 6 14 -6 9 -4 9 7 1 8
-6 25 -15 39 -18 l25 -7 -25 21 c-22 19 -19 18 26 -4 59 -29 92 -35 219 -43
62 -4 82 -8 65 -14 -16 -4 4 -7 57 -8 55 -1 83 -5 86 -13 4 -10 8 -9 16 2 8
11 35 16 104 18 91 4 96 3 173 -34 43 -20 82 -42 86 -48 4 -6 13 -11 20 -12
26 -1 88 -28 88 -39 0 -5 26 -23 58 -40 31 -16 70 -41 87 -55 16 -14 49 -38
72 -54 23 -15 68 -53 100 -83 47 -44 50 -49 16 -23 -24 17 -43 28 -43 23 0 -4
26 -28 58 -53 31 -24 50 -35 42 -25 -9 13 -5 12 14 -5 15 -14 32 -36 37 -48 5
-13 17 -26 27 -29 10 -2 24 -14 31 -26 l14 -22 -24 20 c-13 11 -7 0 14 -24 20
-25 37 -49 37 -54 0 -5 18 -31 40 -57 44 -53 52 -74 18 -44 l-23 19 22 -25
c43 -51 122 -230 117 -266 -2 -10 0 -31 5 -45 15 -43 -1 -53 -40 -26 -19 13
-33 29 -32 35 1 5 -5 16 -15 24 -15 11 -16 11 -5 -3 7 -9 10 -18 8 -21 -3 -3
17 -25 45 -48 l51 -43 -3 -63 c-2 -35 -6 -64 -9 -64 -8 0 -26 21 -31 35 -1 6
-7 9 -12 7 -5 -2 -19 7 -32 19 -13 12 -24 19 -24 15 0 -5 11 -17 26 -28 14
-11 23 -23 20 -26 -3 -3 8 -13 24 -23 17 -11 30 -26 30 -34 0 -19 -19 -20 -26
-1 -3 8 -13 17 -21 20 -12 5 -13 4 -5 -7 7 -8 9 -16 6 -20 -3 -3 4 -8 15 -12
12 -3 21 -13 21 -22 0 -9 -6 -13 -15 -9 -41 17 -49 17 -27 0 21 -16 31 -44 15
-44 -5 0 -25 4 -46 9 -32 8 -36 7 -26 -5 6 -8 17 -14 24 -14 7 0 15 -6 18 -14
4 -10 -1 -12 -16 -9 -17 4 -19 3 -7 -6 11 -7 7 -10 -18 -9 -18 1 -35 -2 -39
-5 -3 -4 3 -7 15 -7 11 0 24 -4 27 -10 8 -13 -3 -13 -60 5 -58 17 -69 13 -25
-10 42 -22 32 -29 -20 -15 -23 6 -45 9 -48 6 -3 -3 1 -6 8 -6 7 0 11 -2 9 -5
-3 -2 -30 4 -60 15 l-54 20 30 -26 c25 -22 27 -25 9 -21 -12 2 -32 -2 -45 -9
-13 -7 -35 -10 -49 -8 -20 5 -22 3 -10 -6 12 -9 8 -10 -17 -5 -18 4 -33 3 -33
-2 0 -4 -19 -9 -43 -10 -23 -2 -51 -7 -62 -12 -11 -4 -45 -18 -75 -31 -30 -12
-74 -31 -97 -41 -55 -24 -56 -16 -2 11 23 12 39 24 36 27 -7 6 -142 -73 -177
-104 -26 -22 -84 -63 -110 -77 -8 -4 -4 2 10 13 31 26 17 28 -16 2 l-23 -18
21 -10 c19 -8 20 -10 4 -16 -10 -4 -15 -3 -11 3 9 15 -8 12 -33 -5 -12 -9 -35
-17 -51 -18 -26 -2 -28 -4 -16 -16 12 -12 17 -12 32 -1 10 8 0 -3 -21 -23 -29
-28 -44 -36 -60 -31 -20 6 -20 6 -3 -13 12 -14 13 -20 5 -21 -118 -12 -170
-10 -154 5 3 3 -21 19 -54 35 -33 17 -69 42 -81 56 -16 20 -22 23 -29 13 -6
-10 -15 -3 -34 28 -28 43 -45 56 -25 19 18 -34 59 -81 59 -68 0 6 5 8 10 5 6
-4 8 -11 4 -16 -3 -6 11 -26 33 -46 22 -22 30 -33 18 -29 -11 5 -28 8 -37 8
-10 0 -20 3 -23 9 -4 5 2 6 11 2 12 -4 15 -3 10 5 -4 7 -14 12 -22 12 -16 0
-54 35 -54 51 0 5 6 7 13 3 8 -5 8 -3 -2 9 -7 9 -17 15 -21 12 -4 -3 -13 2
-20 9 -13 17 -50 17 -50 0 0 -6 9 -19 21 -30 11 -10 26 -28 32 -39 12 -24 -80
68 -105 104 -15 22 -15 28 -2 52 8 16 14 34 14 42 0 7 16 63 35 123 51 159 66
234 70 369 2 66 1 101 -2 78 -4 -42 -26 -60 -36 -30 -2 6 -3 3 -1 -7 4 -23
-15 -185 -23 -206 -4 -8 -7 -24 -9 -35 -2 -22 -38 -160 -49 -187 -4 -10 -12
-15 -19 -11 -8 4 -8 3 1 -7 8 -9 8 -20 1 -42 -7 -19 -13 -26 -18 -18 -4 6 -12
-8 -20 -34 -7 -25 -15 -44 -19 -42 -3 2 -7 -6 -8 -17 -1 -12 -4 -29 -6 -37 -2
-8 -9 -41 -17 -73 -9 -41 -17 -56 -27 -53 -8 3 -13 -2 -13 -12 0 -20 -79 -266
-114 -355 -14 -34 -45 -116 -70 -182 -54 -144 -115 -292 -149 -360 -13 -27
-28 -60 -31 -73 -4 -12 -11 -20 -16 -17 -5 3 -11 -9 -15 -26 -4 -17 -13 -42
-21 -57 -8 -15 -14 -31 -14 -35 0 -18 -54 -121 -57 -110 -3 7 1 22 7 33 6 12
10 24 7 26 -2 3 -10 -9 -17 -26 -10 -24 -10 -33 0 -46 11 -12 11 -15 -1 -12
-9 2 -14 -6 -14 -24 1 -14 -3 -25 -6 -22 -4 2 -11 -6 -15 -18 -3 -13 -32 -77
-64 -143 -31 -66 -61 -131 -65 -145 -22 -70 -105 -153 -140 -139 -17 7 -18 8
-2 10 9 1 21 2 27 3 14 2 70 56 70 68 0 6 -6 6 -15 -2 -8 -7 9 31 39 83 30 52
57 106 60 119 4 13 -3 5 -14 -17 -37 -72 -41 -61 -6 20 56 131 51 137 -15 17
-34 -62 -64 -110 -67 -108 -2 3 5 20 16 39 20 34 62 145 62 163 0 5 -5 2 -11
-6 -9 -12 -9 -11 -4 5 4 11 19 58 32 105 28 98 41 171 18 100 -8 -25 -19 -54
-24 -65 -5 -11 -16 -38 -24 -59 l-14 -39 -6 30 c-3 18 2 56 13 93 10 34 16 69
13 78 -4 10 -2 13 5 8 8 -5 10 5 7 34 -2 22 1 40 6 40 6 0 8 4 4 9 -3 5 6 44
19 85 14 42 22 84 19 93 -4 9 -2 14 3 11 5 -3 10 12 11 35 2 22 7 43 12 47 5
3 13 62 16 130 7 128 14 168 16 89 1 -40 2 -38 14 26 6 39 15 84 19 100 7 27
6 28 -6 10 -7 -11 -14 -33 -16 -50 -2 -16 -6 -32 -8 -34 -8 -8 -4 76 11 204 8
72 15 157 16 190 1 45 3 54 9 35 8 -25 12 94 13 415 1 167 -30 518 -45 509 -4
-3 -8 4 -8 15 0 12 -4 21 -10 21 -5 0 -10 -9 -10 -21 0 -11 -4 -18 -9 -15 -16
10 -17 -15 -5 -93 6 -42 15 -155 19 -251 4 -96 10 -179 13 -185 3 -5 -4 -2
-16 9 -12 10 -19 23 -15 29 3 6 1 7 -6 3 -8 -6 -6 -16 9 -40 11 -18 17 -35 14
-39 -3 -3 -1 -15 6 -26 9 -17 8 -21 -5 -21 -18 0 -105 48 -105 58 0 4 -14 23
-31 42 -27 31 -29 32 -12 5 11 -16 23 -36 27 -42 12 -21 -13 -15 -38 10 -50
49 -70 62 -38 24 17 -21 32 -43 32 -48 0 -7 12 -9 28 -7 21 3 28 0 28 -12 0
-14 -5 -15 -36 -6 -19 6 -51 22 -70 35 -18 14 -30 18 -25 10 4 -7 -13 6 -39
31 -25 24 -46 41 -46 36 0 -13 23 -50 39 -64 9 -8 10 -11 4 -7 -16 8 -16 0 -2
-28 6 -12 -10 -1 -35 24 -25 26 -48 44 -52 40 -4 -3 -4 2 -1 11 4 10 2 17 -5
15 -6 -1 -13 4 -16 12 -3 8 0 11 7 7 7 -5 8 -1 4 10 -4 12 -8 14 -11 6 -3 -10
-7 -10 -20 0 -16 13 -12 6 50 -99 23 -38 13 -38 -29 0 -12 10 -26 16 -31 13
-5 -3 -9 2 -8 12 1 11 -5 16 -16 14 -10 -2 -18 1 -18 5 -1 4 -12 21 -25 38
-21 25 -23 26 -19 8 4 -12 12 -28 20 -34 8 -6 14 -15 14 -20 0 -5 -16 8 -35
29 -19 20 -35 31 -35 23 0 -11 -5 -10 -20 4 -28 25 -25 5 5 -36 59 -81 64 -92
61 -133 -2 -23 -2 -32 1 -21 2 11 9 30 15 42 6 12 8 29 5 37 -4 9 -3 16 2 16
13 0 32 -26 24 -33 -3 -4 -7 -34 -8 -68 -1 -52 1 -58 12 -43 12 17 13 16 13
-3 0 -12 -4 -32 -8 -45 -5 -13 -5 -34 -1 -48 l7 -25 2 25 c5 82 19 150 30 150
5 0 7 15 4 33 -4 24 -3 28 5 17 6 -8 10 -35 10 -60 -1 -39 -2 -42 -10 -20 -7
21 -8 20 -4 -9 3 -18 6 -57 6 -85 l1 -51 14 65 13 65 -4 -59 c-2 -33 1 -54 6
-49 5 5 10 48 11 96 2 48 4 87 5 87 1 0 10 -14 19 -31 11 -22 12 -34 5 -38 -6
-4 -13 -23 -16 -41 -4 -27 -3 -30 4 -15 9 18 10 17 10 -7 1 -16 -3 -28 -9 -28
-6 0 -9 -34 -7 -87 1 -49 -1 -124 -5 -168 -5 -49 -4 -72 2 -60 5 11 9 36 10
55 0 19 9 76 20 125 17 82 18 85 14 30 -8 -97 -14 -147 -25 -190 -16 -66 -26
-165 -18 -170 4 -3 10 25 13 62 4 38 11 82 16 98 5 17 12 53 15 80 3 28 9 64
12 80 4 17 6 34 5 38 -2 5 2 6 6 3 6 -3 6 -24 2 -48 -5 -24 -12 -100 -16 -170
-3 -70 -10 -125 -14 -123 -4 2 -10 -19 -14 -48 -3 -28 -11 -74 -16 -102 -5
-27 -12 -72 -16 -100 -11 -83 13 -40 30 55 35 190 46 260 46 287 0 16 4 33 9
38 5 6 15 48 21 95 6 47 13 86 15 88 2 2 3 -26 2 -62 -1 -36 -5 -66 -9 -66 -4
0 -7 -48 -7 -107 1 -111 -8 -200 -21 -218 -10 -13 -33 -135 -26 -142 2 -3 8
12 11 33 3 22 10 55 15 74 6 29 8 31 9 10 1 -31 -26 -159 -80 -374 -23 -89
-45 -181 -49 -206 -20 -109 -87 -346 -89 -313 -1 7 5 36 13 66 8 29 12 66 9
83 -4 23 -2 26 7 14 9 -12 10 -9 8 15 -1 17 1 36 6 43 4 7 9 121 10 255 2 164
1 202 -3 117 -8 -142 -10 -140 -16 20 -4 103 -13 274 -20 386 -1 22 -6 51 -10
63 -4 12 -8 39 -10 59 -8 85 -17 145 -26 168 -5 14 -9 39 -9 55 0 16 -4 29
-10 29 -5 0 -10 8 -10 17 0 9 -9 56 -19 103 -21 93 -41 205 -46 260 -2 19 -12
62 -23 95 -12 33 -23 74 -26 90 -2 17 -2 -15 1 -70 6 -111 -2 -116 -36 -25
-13 33 -21 81 -22 120 -1 36 -5 76 -9 90 -5 15 -6 2 -3 -34 5 -43 3 -57 -5
-52 -8 5 -10 -3 -5 -26 8 -44 -2 -33 -43 49 -18 37 -34 62 -34 56 0 -23 -18
-14 -28 15 -6 15 -11 20 -13 12 -1 -8 -5 1 -10 20 -5 25 -6 16 -3 -30 3 -36 0
-78 -5 -93 -7 -17 -7 -27 -1 -27 6 0 10 8 10 18 0 9 4 23 9 30 20 32 93 -176
201 -573 82 -303 120 -744 90 -1033 -11 -99 -54 -300 -73 -342 -8 -17 -40 -39
-97 -67 -122 -59 -152 -99 -184 -245 -5 -21 1 -35 25 -63 34 -38 76 -64 99
-62 8 1 44 -2 80 -7 l65 -8 -3 -43 c-4 -45 14 -91 44 -116 16 -12 17 -12 9 1
-4 8 3 5 16 -6 41 -37 92 -47 214 -42 121 5 169 21 230 78 17 15 40 33 52 39
12 6 21 19 21 29 -1 9 15 53 35 98 45 100 120 306 182 501 26 81 81 238 122
348 41 110 103 281 138 380 77 224 108 297 113 270 8 -42 75 -264 107 -356 18
-53 39 -130 45 -172 l13 -77 -54 -50 c-54 -50 -54 -51 -106 -45 -109 13 -228
-51 -253 -133 -6 -20 -16 -54 -22 -74 -9 -31 -8 -41 6 -62 23 -36 62 -60 83
-51 10 4 41 9 68 10 92 4 321 56 448 102 38 13 70 23 71 21 2 -2 6 -37 9 -79
l7 -76 -69 -6 c-81 -7 -116 -23 -159 -71 -65 -74 -86 -123 -88 -205 -2 -72 8
-101 33 -101 5 0 19 -11 31 -25 19 -22 28 -24 65 -19 23 3 62 13 87 22 51 18
177 19 255 2 51 -11 234 -25 512 -38 84 -4 155 -11 159 -15 4 -4 14 -1 22 6 9
6 13 7 9 1 -4 -7 7 -11 31 -12 28 0 32 2 17 7 -16 7 -13 9 20 14 95 15 140 17
120 7 -40 -20 58 -1 145 29 158 54 205 69 348 115 79 26 171 60 205 77 34 17
83 39 108 49 26 11 72 35 102 54 31 20 59 36 62 36 8 0 101 66 170 121 115 91
335 333 335 368 0 5 -12 11 -26 13 l-26 3 39 50 c56 71 105 156 173 297 52
110 127 320 122 341 -1 4 4 15 13 23 8 9 15 21 15 27 0 7 -4 6 -10 -3 -8 -13
-10 -13 -10 1 0 9 8 19 18 21 17 5 35 60 77 233 l14 60 -4 -75 c-4 -91 -54
-295 -86 -352 -12 -23 -12 -55 0 -42 12 13 66 193 85 284 18 88 26 200 14 200
-5 0 -4 9 2 21 15 28 21 295 8 325 -8 18 -8 28 3 40 11 13 11 18 2 21 -15 5
-17 33 -3 33 6 0 10 5 10 10 0 6 -7 10 -15 10 -11 0 -15 10 -14 38 l2 37 8
-35 c12 -51 1 102 -16 230 -7 58 -23 147 -34 199 -12 52 -20 96 -18 97 3 3 50
-143 82 -256 7 -25 23 -94 35 -155 12 -60 25 -117 28 -125 3 -8 4 -20 3 -27
-1 -7 5 -52 13 -100 8 -48 18 -128 22 -178 4 -49 9 -93 10 -97 1 -5 3 -34 4
-65 l2 -58 8 50 c4 28 11 62 15 78 6 22 4 27 -10 27 -14 0 -15 3 -5 15 7 8 8
15 3 15 -6 0 -9 10 -8 23 7 77 -57 484 -93 587 -3 8 -6 20 -8 25 -1 6 -6 19
-10 30 -7 18 -6 19 11 5 17 -14 18 -13 13 1 -4 10 -12 35 -19 58 -7 23 -15 41
-19 41 -4 0 -7 6 -7 14 0 7 -6 42 -13 76 -10 47 -15 59 -21 44 -6 -16 -8 -16
-8 -2 -3 59 -198 503 -242 552 -5 6 -9 15 -9 20 0 6 18 -8 40 -29 22 -21 40
-35 40 -30 0 8 -104 150 -140 192 -6 7 -9 15 -8 17 2 3 -4 11 -13 18 -8 7 -49
60 -89 118 -116 166 -183 245 -337 398 -79 78 -139 142 -133 142 5 0 10 -4 10
-10 0 -5 5 -10 11 -10 5 0 7 6 3 13 -12 18 26 -11 59 -47 l29 -31 -21 32 c-12
18 -34 41 -49 52 -15 11 -37 31 -49 43 -13 12 -23 19 -23 15 0 -5 7 -16 16
-25 12 -11 13 -17 5 -20 -26 -9 -148 146 -137 173 3 9 2 14 -3 11 -16 -10 -28
18 -37 79 -4 33 -8 67 -8 75 0 37 17 156 25 177 6 17 5 23 -5 23 -7 0 -19 -19
-25 -42 -16 -52 -28 -243 -15 -236 5 3 10 -14 11 -39 2 -44 41 -121 85 -170
l21 -22 -29 2 c-17 1 -33 11 -39 22 -6 11 -22 39 -37 61 -38 60 -57 127 -60
221 -2 44 -1 77 3 72 3 -5 5 17 5 48 -1 32 2 77 7 101 l7 43 -44 -3 c-24 -2
-42 -7 -38 -12 3 -5 -3 -6 -13 -3 -23 9 -215 -87 -310 -155 -69 -50 -70 -50
-35 -12 l35 38 -48 -38 c-26 -21 -50 -36 -53 -33 -3 3 2 19 10 36 9 16 16 38
16 48 0 10 5 25 11 33 8 12 9 9 4 -10 l-6 -25 15 25 c9 14 15 33 16 44 0 15
-3 16 -15 6 -16 -13 -16 -10 0 116 2 17 -1 37 -6 45 -7 11 -9 9 -9 -7 0 -11
-6 -29 -14 -40 -8 -10 -12 -29 -9 -41 3 -13 1 -23 -6 -23 -6 0 -8 8 -5 18 5
14 3 14 -11 -3 -9 -11 -14 -27 -12 -36 3 -12 -26 -39 -97 -92 -96 -72 -179
-147 -162 -147 4 0 -7 -19 -25 -42 l-33 -43 30 25 c16 14 54 48 84 76 30 28
74 62 97 77 23 14 53 42 68 61 14 19 33 37 41 40 9 4 6 -6 -9 -27 -14 -17 -32
-45 -42 -62 l-17 -30 28 31 c16 17 37 34 48 38 18 6 18 5 1 -20 -9 -14 -14
-28 -11 -32 3 -3 0 -15 -7 -26 -26 -39 -55 -134 -42 -132 12 2 61 41 129 104
16 14 36 27 45 29 8 1 21 9 27 17 6 9 15 16 20 16 5 0 -21 -30 -56 -67 -36
-37 -51 -55 -34 -40 76 68 300 214 312 203 3 -3 1 -6 -5 -6 -6 0 -14 -8 -18
-17 -4 -13 2 -11 22 8 67 60 63 66 62 -82 -1 -115 2 -144 22 -203 24 -74 111
-216 130 -216 7 0 31 -21 54 -47 25 -28 46 -43 53 -39 8 5 -2 20 -30 47 -37
34 -40 39 -20 39 13 0 25 -7 28 -15 4 -8 12 -15 20 -15 8 0 13 -3 12 -7 -1 -5
22 -32 50 -60 29 -29 52 -50 52 -46 0 3 9 -2 20 -12 11 -10 17 -21 15 -26 -3
-4 6 -20 21 -36 14 -15 23 -22 19 -15 -3 6 -4 12 -1 12 6 0 101 -122 101 -130
0 -3 25 -36 56 -75 60 -76 115 -154 139 -198 63 -115 175 -303 184 -309 6 -5
7 -8 1 -8 -7 0 -7 -3 0 -8 21 -15 120 -256 135 -325 7 -36 15 -55 22 -51 7 4
8 2 4 -5 -8 -12 14 -81 25 -81 4 0 4 13 -1 30 -5 16 -5 32 -1 35 5 2 14 -23
20 -58 7 -34 23 -108 37 -163 22 -90 47 -283 39 -292 -2 -2 -9 23 -16 57 -6
34 -16 61 -21 61 -5 0 -7 -4 -3 -9 12 -21 45 -304 48 -426 4 -143 -4 -227 -34
-383 -20 -101 -47 -192 -48 -162 0 8 8 66 18 127 10 62 17 145 15 185 -2 55
-1 66 6 43 6 -20 7 22 5 120 -6 233 -29 429 -65 565 -11 41 -27 107 -35 145
-8 39 -24 99 -35 133 -11 35 -20 73 -20 84 0 21 -40 121 -46 115 -2 -2 3 -26
10 -53 29 -96 55 -200 60 -239 4 -23 8 -50 10 -60 63 -296 86 -546 74 -794
-13 -252 -54 -418 -159 -641 -65 -138 -88 -173 -90 -133 0 11 -3 13 -6 5 -3
-7 0 -19 7 -26 7 -9 7 -16 1 -20 -5 -3 -11 0 -14 6 -2 7 -8 0 -12 -17 -5 -16
-17 -41 -27 -55 -10 -14 -19 -37 -20 -52 -1 -15 -7 -26 -13 -25 -5 1 -9 -6 -9
-15 1 -10 -2 -16 -6 -13 -4 3 -16 -7 -25 -21 -9 -15 -11 -23 -5 -19 27 17 -92
-122 -140 -163 -27 -24 -50 -48 -50 -55 0 -6 16 6 35 28 19 22 35 35 35 29 0
-6 -39 -53 -86 -103 -61 -64 -91 -90 -103 -86 -11 3 -28 -6 -46 -25 -16 -16
-25 -30 -20 -30 4 0 0 -9 -10 -20 -22 -24 -43 -27 -24 -3 8 9 -4 4 -26 -12
-58 -42 -66 -52 -20 -25 28 17 36 19 26 7 -20 -25 -79 -59 -90 -53 -5 4 -13 1
-17 -5 -5 -8 -3 -9 7 -4 31 18 0 -6 -61 -47 -126 -86 -223 -133 -157 -77 12
11 -6 3 -41 -17 -34 -20 -60 -39 -58 -42 3 -3 14 1 23 9 16 13 17 12 5 -2 -13
-18 -231 -129 -251 -129 -7 0 -9 -5 -5 -12 4 -6 3 -8 -3 -5 -6 4 -40 -6 -74
-22 -35 -16 -88 -32 -118 -35 -58 -6 -63 1 -9 14 l33 8 -30 1 c-17 1 -55 -8
-85 -18 -75 -26 -245 -61 -296 -61 -35 0 -41 -3 -40 -20 1 -19 -6 -21 -104
-25 -110 -4 -154 1 -144 16 3 5 10 6 16 3 7 -5 8 -2 4 5 -6 9 -12 9 -25 -3
-15 -14 -21 -14 -61 0 -27 9 -88 17 -152 18 -59 1 -111 6 -115 9 -3 4 3 7 15
7 11 0 24 5 28 12 5 8 -8 9 -49 5 -30 -4 -64 -9 -74 -12 -10 -3 -4 1 12 9 17
8 39 15 51 16 11 0 21 6 21 14 0 10 -7 12 -29 6 -15 -5 -28 -5 -28 0 0 5 8 11
18 13 9 3 -3 3 -28 0 -25 -3 -56 -10 -70 -15 -17 -6 -26 -6 -28 2 -3 8 -8 8
-18 0 -7 -7 -18 -9 -24 -5 -15 9 9 38 26 31 14 -5 55 39 53 58 0 7 -3 6 -6 -2
-2 -6 -9 -10 -13 -7 -5 3 -12 0 -16 -6 -5 -8 -3 -9 7 -4 12 8 12 6 0 -8 -15
-18 -26 -23 -16 -7 11 18 -11 10 -30 -10 -10 -11 -22 -20 -27 -20 -5 0 12 19
39 41 26 23 51 47 55 53 12 17 9 28 -4 20 -8 -4 -10 -3 -5 2 5 5 14 9 20 9 6
0 16 10 23 22 6 13 14 20 19 15 5 -4 5 -1 1 5 -4 7 5 29 20 50 l27 38 -29 -32
c-16 -17 -36 -42 -45 -54 -14 -21 -14 -12 2 86 9 61 13 112 9 115 -5 3 -5 23
0 44 5 25 5 35 -1 29 -6 -6 -11 -19 -12 -31 0 -11 -5 -18 -10 -15 -4 3 -6 20
-4 38 3 18 0 38 -7 45 -16 16 -18 282 -3 292 9 6 9 10 -1 16 -9 7 -9 18 2 58
20 71 25 106 17 128 -6 15 -10 12 -24 -20 -10 -22 -21 -59 -26 -84 -6 -29 -9
-36 -10 -19 -1 29 26 120 65 218 14 35 27 73 30 84 2 11 8 24 14 27 6 4 13 13
15 21 9 38 18 59 27 59 5 0 16 6 24 14 11 12 12 20 3 40 -10 21 -8 29 10 52
11 15 21 32 21 38 0 6 31 43 70 81 38 38 67 71 65 74 -9 8 68 82 100 96 17 8
46 26 65 41 19 15 -38 -45 -127 -134 -90 -88 -163 -165 -163 -171 0 -5 5 -13
11 -16 12 -8 150 135 143 147 -3 4 2 5 10 2 10 -4 18 1 22 11 4 9 12 14 20 11
7 -3 18 2 24 10 7 8 9 14 4 14 -5 0 15 14 45 30 64 36 93 59 85 71 -3 5 3 12
13 15 37 12 99 36 118 47 11 6 47 26 80 44 33 18 56 33 52 33 -5 0 -17 -5 -29
-11 -11 -6 -22 -9 -24 -6 -12 12 79 41 150 48 43 4 83 12 89 18 5 5 24 7 42 4
18 -3 57 0 86 7 48 11 86 17 142 23 21 2 112 97 134 141 8 17 23 40 32 51 15
18 15 19 -2 6 -15 -12 -17 -12 -11 5 4 10 10 24 14 29 4 6 18 37 31 70 26 67
29 145 8 172 -12 14 -12 16 0 8 11 -6 13 -4 6 11 -4 10 -9 39 -11 64 -3 25 -9
63 -14 85 -17 73 -22 117 -12 111 5 -3 7 6 4 19 -2 14 -8 23 -12 20 -11 -7
-41 85 -33 98 3 5 1 7 -5 3 -6 -3 -13 -2 -17 4 -3 5 -1 10 4 10 16 0 13 12
-10 40 -20 24 -20 24 -9 2 6 -13 10 -26 8 -28 -3 -2 -15 20 -29 49 -13 28 -31
58 -39 65 -8 8 -9 11 -2 7 6 -3 3 10 -9 29 -21 37 -38 51 -20 18 7 -14 6 -19
-4 -19 -8 0 -12 4 -9 9 3 5 -6 24 -21 43 -15 20 -23 41 -19 48 4 6 3 9 -1 4
-5 -4 -20 10 -34 31 -37 55 -78 102 -90 102 -5 0 -11 3 -13 8 -2 4 -23 25 -47
47 l-44 40 48 -57 c26 -32 53 -54 59 -51 6 3 8 2 3 -2 -4 -5 3 -19 15 -32 12
-13 18 -23 14 -23 -4 0 5 -17 21 -37 35 -45 46 -63 39 -63 -5 0 -70 90 -72
100 -2 10 -139 148 -182 184 -44 36 -70 47 -56 24 4 -7 -11 4 -34 25 -23 20
-47 38 -52 38 -6 1 -14 3 -20 4 -5 1 -15 3 -21 4 -5 0 -7 7 -3 14 4 6 4 9 -1
5 -4 -4 -27 4 -52 19 -24 14 -46 23 -50 20 -7 -8 -82 22 -112 45 -13 10 -20
18 -16 18 5 0 -2 11 -15 25 -14 15 -18 25 -11 25 10 0 9 7 -3 25 -9 14 -14 30
-11 36 4 5 1 8 -5 7 -14 -3 -27 17 -34 54 -4 15 -13 33 -21 41 -23 24 -14 213
15 300 12 37 24 67 26 67 2 0 1 -38 -2 -85 -5 -61 -4 -85 5 -85 6 0 11 15 11
36 0 67 29 168 58 199 15 17 48 62 74 101 50 78 187 238 196 230 2 -3 -14 -28
-38 -56 -23 -27 -39 -50 -35 -50 4 0 -1 -12 -11 -27 -10 -16 -28 -47 -41 -70
-21 -40 -21 -42 -3 -30 11 6 20 15 20 19 0 4 8 15 18 25 9 10 35 45 57 77 22
33 72 92 110 130 97 98 109 113 90 113 -8 0 -15 -4 -15 -9 0 -4 -10 -8 -22 -8
-55 0 -315 -244 -379 -355 -16 -27 -29 -44 -29 -37 0 14 33 79 64 125 13 19
16 31 9 38 -12 12 -46 -28 -37 -43 3 -4 1 -8 -5 -8 -14 0 -86 -157 -125 -270
-2 -8 -4 1 -3 22 1 20 5 34 10 31 4 -2 7 11 7 29 l0 33 -16 -30 c-9 -16 -16
-43 -16 -60 0 -25 -1 -26 -8 -10 -4 11 -5 36 -3 55 4 27 2 31 -6 20 -6 -8 -11
-22 -11 -32 0 -9 -5 -18 -11 -20 -6 -2 -18 -42 -28 -88 -19 -92 -18 -223 1
-269 12 -28 19 -55 19 -83 0 -10 4 -20 10 -23 5 -4 9 -13 9 -22 0 -8 7 -30 16
-49 9 -19 14 -37 11 -40 -3 -3 -28 2 -56 11 -28 9 -60 13 -72 10 -16 -5 -19
-4 -14 5 8 13 9 13 -276 -6 -81 -6 -112 -3 -188 15 -55 14 -101 31 -116 44
-13 12 -58 33 -99 46 -42 13 -76 27 -76 30 0 4 17 12 38 18 l37 10 -50 2 c-29
0 -66 10 -88 21 -20 11 -47 21 -59 21 -18 1 -19 2 -5 6 9 2 15 9 12 14 -8 12
7 12 39 -1 14 -5 28 -5 31 -1 6 11 -29 21 -72 21 -22 0 -36 6 -43 20 -12 22
-7 25 20 10 16 -8 18 -8 14 5 -5 12 2 15 34 15 57 0 61 16 6 23 -48 5 -79 26
-87 58 -5 18 -1 20 26 19 18 -1 46 -1 62 0 l30 2 -33 9 c-18 5 -30 14 -27 19
3 5 0 12 -6 16 -8 4 -9 3 -5 -4 9 -14 -4 -15 -24 -2 -11 7 -11 10 -2 10 7 0
11 4 8 9 -4 5 8 12 25 16 17 4 42 13 57 21 l27 14 -25 0 -25 1 25 13 c14 7 42
16 64 20 35 7 37 8 20 21 -18 14 -18 14 1 15 12 0 38 9 60 20 22 11 55 21 75
21 l35 1 -38 8 c-52 10 -58 20 -12 20 21 0 35 3 32 7 -9 8 111 62 141 63 23 0
30 14 12 25 -5 3 -10 1 -10 -4 0 -6 -5 -11 -11 -11 -6 0 -8 7 -5 16 5 14 1 15
-31 9 -21 -4 -39 -11 -41 -16 -2 -5 -20 -9 -40 -10 l-37 -1 33 -8 c18 -4 36
-11 40 -15 4 -5 0 -6 -10 -2 -9 3 -24 -1 -35 -8 -10 -8 -26 -15 -35 -15 -10 0
-18 -5 -18 -10 0 -7 -14 -9 -37 -5 l-38 6 23 -18 24 -19 -61 -19 c-34 -10 -61
-22 -61 -27 0 -4 -14 -8 -31 -8 -26 0 -29 -3 -20 -14 14 -17 -9 -29 -36 -20
-12 4 -14 3 -6 -3 8 -5 -4 -14 -35 -27 -26 -10 -72 -29 -103 -42 -31 -13 -63
-24 -71 -24 -8 0 -47 -11 -86 -25 -39 -14 -80 -25 -91 -25 -11 0 -21 -5 -23
-12 -2 -6 -30 -13 -61 -16 -31 -2 -57 -8 -57 -13 0 -5 -12 -4 -26 1 -14 6 -23
6 -20 1 3 -5 -38 -16 -92 -26 -53 -10 -116 -23 -138 -31 -23 -7 -117 -32 -210
-55 -133 -34 -188 -43 -259 -43 -97 -1 -185 20 -226 53 -20 16 -22 22 -12 43
10 22 20 26 77 31 76 7 151 42 190 87 35 43 33 63 -14 114 -80 86 -256 148
-359 125 -32 -7 -33 -6 -27 19 3 15 10 52 16 82 5 30 16 84 24 120 28 129 38
258 34 422 -4 138 -8 172 -27 221 -31 79 -77 137 -131 165 -40 21 -54 22 -130
17 -78 -6 -89 -4 -135 19 -27 14 -51 26 -53 26 -2 0 0 -10 4 -22z m164 -209
c-29 -64 -27 -156 4 -217 29 -56 93 -103 151 -113 l40 -6 -46 -2 c-47 -1 -97
26 -143 78 -44 49 -49 214 -9 282 25 41 27 29 3 -22z m106 -21 c9 -15 -27 -41
-40 -28 -6 6 -5 15 4 25 15 18 26 19 36 3z m129 -79 c9 -26 -13 -51 -39 -47
-27 4 -34 47 -11 64 21 16 42 8 50 -17z m-190 -58 c3 -5 1 -12 -5 -16 -5 -3
-10 1 -10 9 0 18 6 21 15 7z m35 -71 c0 -5 -2 -10 -4 -10 -3 0 -8 5 -11 10 -3
6 -1 10 4 10 6 0 11 -4 11 -10z m2195 -560 c-3 -5 -12 -10 -18 -10 -7 0 -6 4
3 10 19 12 23 12 15 0z m-1880 -134 c63 -29 96 -63 75 -76 -51 -33 -175 36
-156 86 7 19 23 18 81 -10z m2459 -214 c1 -33 -1 -67 -5 -74 -5 -8 -9 20 -9
66 0 92 9 97 14 8z m-1824 -157 c7 -8 8 -15 2 -15 -5 0 -15 7 -22 15 -7 8 -8
15 -2 15 5 0 15 -7 22 -15z m1868 -60 c-3 -3 -9 2 -12 12 -6 14 -5 15 5 6 7
-7 10 -15 7 -18z m-2545 -7 c-13 -12 -25 -19 -28 -16 -8 7 23 38 38 38 6 0 2
-10 -10 -22z m-13 -31 c0 -2 -10 -12 -21 -23 -22 -19 -22 -19 -10 4 10 18 31
31 31 19z m2573 -51 c18 -20 18 -20 13 -1 -5 17 -3 16 14 -5 11 -14 17 -32 14
-40 -3 -8 5 -22 18 -32 20 -16 20 -17 3 -11 l-20 6 20 -23 20 -23 -21 11 c-12
6 -33 31 -47 54 -26 45 -65 136 -44 104 7 -10 20 -28 30 -40z m-890 4 c25 -22
50 -40 56 -40 6 0 11 -4 11 -10 0 -5 3 -9 8 -9 23 4 35 -2 25 -12 -14 -14 -64
11 -93 48 -12 15 -34 36 -48 45 -15 10 -22 18 -16 18 6 0 32 -18 57 -40z
m-1663 -9 c0 -5 -7 -12 -16 -15 -14 -5 -15 -4 -4 9 14 17 20 19 20 6z m2407
-74 c6 3 20 0 30 -6 14 -8 -6 -11 -82 -11 -55 0 -121 -3 -147 -6 -33 -5 -48
-3 -48 5 0 6 20 12 48 13 73 2 81 3 87 9 3 3 26 3 52 -1 26 -4 53 -5 60 -3z
m-2412 -67 c-10 -11 -21 -17 -24 -14 -3 3 3 12 13 20 28 20 32 17 11 -6z
m-115 -60 c-6 -11 -13 -20 -16 -20 -2 0 0 9 6 20 6 11 13 20 16 20 2 0 0 -9
-6 -20z m2990 -55 c16 -19 0 -19 -26 0 -16 12 -16 14 -3 15 9 0 22 -7 29 -15z
m170 -131 c33 -36 33 -36 -15 6 -27 24 -52 46 -55 48 -3 3 4 0 15 -6 11 -6 36
-27 55 -48z m110 -111 c0 -2 -16 9 -35 24 -19 15 -35 31 -35 36 0 4 16 -7 35
-24 19 -18 35 -34 35 -36z m291 -355 c6 1 8 -1 5 -6 -3 -5 6 -37 20 -71 14
-34 23 -68 21 -74 -2 -7 -10 6 -17 28 -7 22 -26 63 -41 91 -31 54 -38 82 -13
49 8 -11 20 -19 25 -17z m144 -418 c3 -5 1 -10 -4 -10 -6 0 -11 5 -11 10 0 6
2 10 4 10 3 0 8 -4 11 -10z m-14 -83 c-13 -13 -15 21 -3 50 6 15 8 13 10 -11
2 -16 -1 -33 -7 -39z m-201 -263 c0 -2 -7 -4 -15 -4 -8 0 -15 4 -15 10 0 5 7
7 15 4 8 -4 15 -8 15 -10z m-60 -81 c-27 -9 -61 -13 -90 -10 -32 4 -39 3 -25
-4 16 -7 12 -8 -15 -5 -19 3 -44 0 -55 -5 -16 -7 -14 -8 10 -4 24 4 27 3 15
-6 -15 -11 -3 -10 76 6 29 5 29 5 4 -6 -14 -7 -57 -12 -95 -13 -70 -1 -70 -1
-50 19 26 26 88 40 187 42 l83 2 -45 -16z m100 -3 c0 -5 -17 -9 -37 -9 l-38 2
35 7 c19 4 36 8 38 9 1 0 2 -3 2 -9z m-473 -6 c-3 -3 -12 -4 -19 -1 -8 3 -5 6
6 6 11 1 17 -2 13 -5z m388 -4 c-3 -5 -12 -10 -18 -10 -7 0 -6 4 3 10 19 12
23 12 15 0z m-432 -31 c-6 -6 -30 -13 -54 -16 -24 -3 -57 -12 -72 -20 -16 -8
-31 -12 -34 -9 -7 7 64 36 91 37 11 0 30 4 41 9 28 12 41 12 28 -1z m-2356
-41 c-3 -7 -5 -2 -5 12 0 14 2 19 5 13 2 -7 2 -19 0 -25z m2278 -8 c-22 -11
-44 -19 -50 -19 -15 0 58 37 75 38 8 0 -3 -8 -25 -19z m-1035 -37 c-11 -17
-11 -17 -6 0 3 10 6 24 7 30 0 9 2 9 5 0 3 -7 0 -20 -6 -30z m940 33 c0 -2 -7
-7 -16 -10 -8 -3 -12 -2 -9 4 6 10 25 14 25 6z m-1616 -17 c-2 -4 3 -9 11 -13
8 -3 15 0 16 7 0 7 4 3 8 -8 5 -12 -4 -116 -20 -245 -15 -124 -33 -270 -39
-325 -35 -309 -110 -661 -184 -874 -45 -128 -47 -110 -11 109 14 85 43 243 64
350 22 107 42 213 45 235 33 232 56 509 56 672 l0 102 29 -2 c16 -1 27 -5 25
-8z m1574 -1 c-2 -6 -15 -12 -28 -13 -21 -2 -22 -1 -5 12 23 16 38 17 33 1z
m118 -33 c-27 -20 -6 -19 22 1 12 8 28 14 34 12 7 -3 -12 -16 -41 -31 -29 -14
-60 -23 -68 -20 -11 4 -14 2 -9 -6 4 -6 4 -10 -1 -9 -12 4 -118 -59 -134 -79
-10 -12 -4 -10 18 5 43 30 51 28 14 -4 -17 -14 -35 -23 -40 -19 -12 7 -73 -44
-66 -56 3 -4 0 -11 -6 -15 -8 -4 -9 -3 -5 4 11 18 -9 14 -24 -3 -7 -9 -15 -13
-18 -10 -3 3 24 31 59 62 86 78 110 104 104 114 -3 4 0 11 6 15 7 4 9 3 5 -4
-14 -22 12 -20 48 4 60 41 149 75 102 39z m-1989 -127 c-3 -7 -5 -2 -5 12 0
14 2 19 5 13 2 -7 2 -19 0 -25z m1133 10 c0 -6 -6 -5 -15 2 -8 7 -15 14 -15
16 0 2 7 1 15 -2 8 -4 15 -11 15 -16z m-119 -5 c13 -16 12 -17 -3 -4 -17 13
-22 21 -14 21 2 0 10 -8 17 -17z m303 -82 c-2 -3 -12 3 -22 13 -16 17 -16 18
5 5 12 -7 20 -15 17 -18z m-324 -79 c-8 -13 -9 -11 -4 11 4 17 2 27 -4 25 -11
-3 -13 9 -4 32 4 9 9 3 14 -18 6 -20 5 -39 -2 -50z m29 9 c-17 -47 -4 -49 17
-2 11 22 23 41 27 41 4 0 4 -8 -1 -17 -45 -90 -62 -130 -62 -145 0 -10 -4 -18
-9 -18 -5 0 -5 17 0 41 5 22 7 44 4 48 -5 9 26 94 32 88 2 -2 -2 -18 -8 -36z
m75 27 c-6 -10 -5 -10 7 -2 11 9 17 9 26 -1 9 -10 8 -18 -8 -36 -10 -12 -17
-29 -14 -38 2 -9 0 -23 -6 -31 -8 -12 -9 -10 -4 8 3 12 4 22 1 22 -13 0 -78
-168 -89 -230 -3 -14 -2 13 0 60 5 87 22 153 48 193 7 12 15 27 16 32 4 22 12
35 21 35 5 0 6 -6 2 -12z m-127 -34 c2 -13 1 -15 -4 -4 -3 8 -11 19 -17 23 -7
6 -6 7 4 4 8 -2 16 -12 17 -23z m234 -17 l-23 -22 17 28 c10 15 20 25 23 22 3
-3 -5 -16 -17 -28z m-30 -5 c-18 -33 -39 -102 -30 -96 14 8 11 -1 -16 -53 -14
-26 -23 -53 -20 -61 3 -8 1 -20 -3 -26 -15 -19 -22 -46 -12 -46 6 0 10 9 10
20 0 11 4 20 9 20 5 0 17 21 26 48 9 26 27 65 41 87 13 22 31 54 38 71 8 17
22 37 31 44 12 10 10 2 -6 -25 -55 -97 -90 -168 -86 -178 3 -7 19 19 36 57 17
38 34 66 37 63 3 -3 -1 -18 -9 -34 -20 -37 -31 -66 -28 -79 0 -6 -6 -31 -15
-55 -20 -56 -28 -113 -14 -104 5 3 10 14 10 24 0 9 6 26 14 36 8 11 12 25 9
32 -3 6 2 22 10 34 9 12 13 27 11 34 -3 7 -1 16 5 20 7 3 8 0 5 -9 -4 -11 0
-14 15 -11 21 4 21 3 -3 -38 -13 -23 -21 -48 -18 -56 3 -10 0 -12 -12 -8 -19
7 -21 -4 -4 -21 8 -8 9 -12 1 -12 -6 0 -14 6 -16 13 -3 7 -6 5 -6 -5 -1 -10 4
-18 10 -18 11 0 3 -76 -10 -95 -4 -5 -6 -31 -5 -57 2 -27 -1 -48 -7 -48 -5 0
-10 -8 -10 -17 -1 -10 -5 11 -10 47 -5 36 -7 76 -4 88 3 14 2 21 -4 18 -5 -3
-13 -34 -17 -68 l-8 -63 -7 50 c-4 33 -6 40 -8 20 -1 -23 -3 -27 -11 -15 -5 8
-10 53 -11 100 0 88 -16 88 -20 0 -1 -25 -4 -35 -6 -22 -2 12 -7 20 -11 18 -4
-2 -8 34 -10 80 -2 70 0 89 16 112 11 15 32 52 47 82 15 30 31 57 34 60 4 3
14 17 24 33 20 30 33 37 18 9z m1 -44 c-7 -7 -12 -8 -12 -2 0 14 12 26 19 19
2 -3 -1 -11 -7 -17z m-1355 -20 c-3 -7 -5 -2 -5 12 0 14 2 19 5 13 2 -7 2 -19
0 -25z m1717 -3 c-4 -8 -11 -15 -16 -15 -6 0 -5 6 2 15 7 8 14 15 16 15 2 0 1
-7 -2 -15z m-1437 -32 c-3 -10 -5 -4 -5 12 0 17 2 24 5 18 2 -7 2 -21 0 -30z
m1073 22 c-7 -9 -15 -13 -17 -11 -7 7 7 26 19 26 6 0 6 -6 -2 -15z m-87 -15
c-3 -12 -8 -19 -11 -16 -5 6 5 36 12 36 2 0 2 -9 -1 -20z m2941 -71 c-16 -54
-63 -144 -71 -136 -2 3 5 20 16 38 10 19 29 62 41 97 28 76 36 77 14 1z
m-3034 6 c0 -5 -5 -3 -10 5 -5 8 -10 20 -10 25 0 6 5 3 10 -5 5 -8 10 -19 10
-25z m-3 -47 c-3 -7 -5 -2 -5 12 0 14 2 19 5 13 2 -7 2 -19 0 -25z m134 5
c-12 -20 -14 -14 -5 12 4 9 9 14 11 11 3 -2 0 -13 -6 -23z m-1284 -135 c-3 -7
-5 -2 -5 12 0 14 2 19 5 13 2 -7 2 -19 0 -25z m1416 -28 c-3 -14 -11 -36 -18
-50 -7 -14 -15 -58 -19 -99 -6 -79 -16 -108 -16 -49 0 35 25 195 36 232 9 29
25 -2 17 -34z m2687 6 c0 -3 -4 -8 -10 -11 -5 -3 -10 -1 -10 4 0 6 5 11 10 11
6 0 10 -2 10 -4z m-3833 -28 c-3 -8 -6 -5 -6 6 -1 11 2 17 5 13 3 -3 4 -12 1
-19z m3792 -44 c-13 -22 -41 -64 -64 -94 -22 -30 -58 -80 -78 -112 -42 -63
-168 -207 -194 -222 -20 -11 26 51 110 147 32 37 55 67 50 67 -4 0 -1 5 8 10
15 9 139 165 139 174 0 10 43 77 47 73 2 -3 -6 -22 -18 -43z m-3802 -21 c-3
-10 -5 -4 -5 12 0 17 2 24 5 18 2 -7 2 -21 0 -30z m951 -9 c-3 -27 -4 -26 -9
8 -3 22 -1 34 4 29 5 -5 7 -21 5 -37z m49 -66 c-3 -8 -6 -5 -6 6 -1 11 2 17 5
13 3 -3 4 -12 1 -19z m-1010 -20 c-3 -8 -6 -5 -6 6 -1 11 2 17 5 13 3 -3 4
-12 1 -19z m3742 -55 c-12 -21 -31 -50 -41 -65 -11 -16 -16 -28 -11 -28 4 0
-19 -25 -51 -55 -32 -31 -61 -53 -63 -51 -3 2 24 40 59 83 35 43 76 95 91 116
16 20 30 37 33 37 3 0 -5 -17 -17 -37z m-2666 7 c-3 -11 -7 -20 -9 -20 -2 0
-4 9 -4 20 0 11 4 20 9 20 5 0 7 -9 4 -20z m2597 -193 c0 -2 -10 -15 -21 -28
-12 -13 -39 -48 -61 -76 -22 -29 -44 -53 -49 -53 -5 0 -9 -5 -9 -11 0 -17
-178 -186 -233 -221 -25 -16 -29 -7 -6 11 42 33 182 175 244 247 77 89 135
145 135 131z m-3883 -49 c-3 -7 -5 -2 -5 12 0 14 2 19 5 13 2 -7 2 -19 0 -25z
m3714 -66 c-15 -29 -254 -256 -326 -310 -35 -27 -62 -51 -60 -54 3 -3 -1 -5
-7 -5 -25 0 -148 -75 -141 -85 3 -6 2 -8 -4 -5 -6 4 -48 -9 -94 -29 -102 -42
-306 -107 -321 -102 -6 2 4 10 23 18 57 22 293 140 304 151 5 6 -7 4 -29 -5
-52 -22 -58 -20 -18 5 18 12 41 19 52 16 11 -3 18 -1 17 5 -1 5 18 21 43 35
32 18 40 20 30 7 -14 -16 -13 -16 17 -1 17 9 35 22 39 28 4 8 0 8 -15 0 -30
-16 -26 -7 5 14 15 9 23 12 20 6 -4 -6 -4 -11 0 -11 23 0 379 255 442 317 28
28 36 29 23 5z m-2784 -8 c-3 -3 -12 -4 -19 -1 -8 3 -5 6 6 6 11 1 17 -2 13
-5z m39 -35 c3 -5 -3 -10 -13 -10 -46 -4 -60 -7 -88 -22 -48 -26 -63 -42 -70
-70 -4 -15 -11 -27 -16 -27 -23 0 18 88 56 120 30 25 117 31 131 9z m-959 -51
c-2 -13 -4 -5 -4 17 -1 22 1 32 4 23 2 -10 2 -28 0 -40z m3513 26 c-8 -8 -23
-20 -34 -26 -14 -6 -11 -1 8 16 32 29 45 34 26 10z m-2577 -40 c-24 -14 -43
-27 -43 -29 0 -2 19 2 43 10 37 13 40 13 23 0 -11 -8 -26 -15 -33 -15 -7 0
-13 -4 -13 -8 0 -5 -16 -16 -36 -25 -34 -17 -35 -17 -32 0 2 10 9 17 16 16 6
-2 9 3 7 10 -3 7 16 24 42 39 61 35 83 37 26 2z m-882 -66 c-3 -21 -6 -26 -9
-15 -3 17 3 47 11 47 2 0 1 -15 -2 -32z m696 0 c-3 -8 -6 -5 -6 6 -1 11 2 17
5 13 3 -3 4 -12 1 -19z m2647 -29 c-10 -12 -32 -27 -49 -35 -18 -8 -22 -9 -11
-2 10 7 31 23 45 35 33 28 40 29 15 2z m-1977 -36 c-3 -10 -5 -4 -5 12 0 17 2
24 5 18 2 -7 2 -21 0 -30z m1888 -23 c-3 -5 -16 -15 -28 -21 -21 -10 -21 -9 2
10 25 23 36 27 26 11z m-3030 -67 c-9 -15 -14 -20 -11 -10 4 11 9 31 13 45 5
19 8 22 11 10 2 -9 -4 -29 -13 -45z m961 -49 c-27 -13 -51 -23 -53 -21 -7 8
62 47 82 47 12 0 2 -10 -29 -26z m-1015 -61 c-12 -20 -14 -14 -5 12 4 9 9 14
11 11 3 -2 0 -13 -6 -23z m1092 -4 l42 -1 -52 -13 c-29 -7 -76 -29 -104 -50
-55 -39 -69 -39 -51 0 14 30 69 66 90 57 11 -4 13 -2 7 8 -6 10 -4 12 9 7 10
-4 36 -7 59 -8z m-1286 -46 c-8 -15 -25 -37 -38 -48 -20 -17 -20 -16 3 12 15
18 30 42 33 54 4 11 9 18 12 16 2 -3 -2 -18 -10 -34z m-271 2 c-20 -15 -36
-19 -36 -10 0 5 38 23 50 24 3 0 -4 -6 -14 -14z m464 -15 c-6 -12 -14 -19 -17
-17 -2 3 1 15 7 27 6 12 14 19 17 17 2 -3 -1 -15 -7 -27z m-520 5 c-14 -16
-40 -20 -40 -6 0 10 17 19 39 20 11 1 11 -2 1 -14z m112 -1 c-12 -8 -20 -19
-17 -24 3 -5 -3 -13 -12 -19 -10 -6 -15 -11 -10 -11 4 0 -4 -23 -19 -51 -14
-28 -26 -65 -26 -82 -1 -30 -2 -30 -11 -9 -8 17 -6 32 7 60 l17 37 -20 -25
c-12 -14 -21 -34 -21 -44 0 -11 -3 -16 -6 -13 -4 4 1 31 10 62 12 37 27 62 47
76 16 11 29 26 29 32 0 7 -5 4 -11 -5 -5 -10 -15 -18 -21 -18 -6 0 -3 9 6 19
10 11 24 17 31 15 7 -3 16 -1 20 5 3 6 11 11 18 11 6 0 1 -7 -11 -16z m-152
-25 c0 -5 6 -7 13 -3 9 5 9 3 -1 -7 -7 -8 -18 -14 -25 -14 -7 0 -12 -10 -11
-23 0 -12 -5 -22 -13 -22 -7 0 -13 -8 -14 -17 0 -11 -3 -13 -6 -6 -5 15 36
103 49 103 4 0 8 -5 8 -11z m533 -24 c-3 -9 -8 -14 -10 -11 -3 3 -2 9 2 15 9
16 15 13 8 -4z m1031 -42 c-27 -27 -51 -46 -54 -45 -5 4 88 92 97 92 3 0 -16
-21 -43 -47z m49 0 c-7 -2 -13 -9 -13 -14 0 -6 5 -7 12 -3 7 4 8 3 4 -5 -4 -6
-11 -9 -15 -7 -4 3 -13 -4 -19 -15 -12 -19 -12 -19 18 -4 16 8 30 13 30 11 0
-3 -13 -12 -30 -21 -16 -9 -30 -12 -30 -8 0 4 -5 2 -12 -5 -7 -7 -19 -12 -27
-12 -9 0 3 18 30 45 24 24 49 44 54 44 6 0 4 -3 -2 -6z m1457 3 c0 -2 -13 -9
-30 -15 -35 -12 -41 -5 -7 9 25 10 37 12 37 6z m-71 -30 c-12 -10 -49 -16 -49
-7 0 5 10 11 23 13 22 4 34 1 26 -6z m-1342 -11 c0 -8 -4 -12 -9 -9 -4 3 -8 9
-8 15 0 5 4 9 8 9 5 0 9 -7 9 -15z m1283 7 c0 -16 -231 -69 -249 -57 -5 3 -11
1 -13 -4 -4 -12 -87 -21 -93 -10 -3 4 9 10 27 13 201 33 280 47 300 55 30 12
28 12 28 3z m-2981 -19 c0 -5 -4 -17 -8 -28 -7 -17 -8 -17 -13 8 -4 19 -1 27
8 27 8 0 14 -3 13 -7z m381 -3 c-13 -8 -13 -10 -1 -10 11 0 10 -4 -5 -16 -10
-8 -13 -13 -6 -9 7 4 29 8 50 10 34 3 35 2 18 -11 -17 -12 -52 -18 -94 -17 -7
1 -11 -2 -8 -5 9 -9 -26 -42 -37 -35 -6 3 -7 1 -3 -5 3 -6 -3 -26 -14 -44 -11
-18 -21 -46 -21 -63 -1 -23 -3 -20 -9 14 -7 48 -2 91 11 91 5 0 9 5 9 11 0 19
60 70 72 63 6 -4 8 -3 4 4 -3 6 2 15 11 21 23 13 43 14 23 1z m50 -10 c-20
-13 -33 -13 -25 0 3 6 14 10 23 10 15 0 15 -2 2 -10z m-232 -45 c-3 -3 -9 2
-12 12 -6 14 -5 15 5 6 7 -7 10 -15 7 -18z m287 5 c-17 -19 -17 -19 16 -10 48
14 47 5 -3 -19 -23 -12 -34 -18 -23 -15 11 4 31 8 45 11 24 4 24 3 -4 -13 -16
-9 -34 -17 -40 -18 -22 -3 -51 -25 -44 -32 4 -4 -2 -20 -14 -37 -12 -17 -22
-37 -23 -46 -4 -35 -16 -48 -39 -44 -18 4 -22 12 -23 41 -2 69 97 202 151 202
18 0 18 -1 1 -20z m2115 4 c0 -2 -17 -4 -37 -3 -33 1 -35 2 -13 8 23 7 50 4
50 -5z m-2020 -55 c0 -8 5 -7 15 1 9 7 18 10 22 6 3 -3 1 -6 -6 -6 -8 0 -11
-7 -7 -15 3 -10 -7 -21 -32 -34 -44 -24 -36 -27 16 -6 33 13 35 13 18 0 -11
-8 -23 -15 -26 -15 -4 0 -7 -7 -7 -15 0 -8 5 -15 11 -15 5 0 -5 -11 -24 -25
-39 -29 -41 -29 -37 -12 1 7 -8 12 -20 11 -13 0 -23 4 -23 9 0 15 64 77 80 77
8 0 22 5 30 10 10 6 3 8 -22 3 -41 -6 -52 8 -20 26 23 14 32 13 32 0z m-76
-144 c-4 -9 2 -13 20 -11 15 2 29 -1 32 -5 3 -5 -4 -10 -15 -11 -62 -5 -81 -4
-81 4 0 4 6 8 13 9 9 0 9 2 -1 6 -17 7 -8 18 17 20 13 1 18 -3 15 -12z"/>
<path d="M5860 5501 c0 -5 5 -13 10 -16 6 -3 10 -2 10 4 0 5 -4 13 -10 16 -5
3 -10 2 -10 -4z"/>
<path d="M5184 3385 c-9 -14 -15 -28 -12 -30 2 -2 12 9 22 25 21 36 13 40 -10
5z"/>
<path d="M5225 3309 c-4 -6 -5 -12 -2 -15 2 -3 7 2 10 11 7 17 1 20 -8 4z"/>
<path d="M5266 3165 c-3 -9 -10 -13 -16 -10 -6 3 -7 -1 -4 -10 6 -14 9 -13 21
5 8 12 13 23 10 26 -2 3 -7 -2 -11 -11z"/>
<path d="M5316 3151 c-23 -43 -20 -52 5 -12 11 18 18 35 15 38 -2 3 -12 -9
-20 -26z"/>
<path d="M7114 2084 c-18 -14 -18 -15 4 -4 12 6 22 13 22 15 0 8 -5 6 -26 -11z"/>
<path d="M5182 1993 c-24 -24 -24 -25 -2 -8 42 33 44 35 37 35 -4 0 -19 -12
-35 -27z"/>
<path d="M3735 1899 c-4 -6 -5 -12 -2 -15 2 -3 7 2 10 11 7 17 1 20 -8 4z"/>
<path d="M3990 1691 c0 -6 4 -13 10 -16 6 -3 7 1 4 9 -7 18 -14 21 -14 7z"/>
<path d="M3976 1645 c-9 -9 -16 -27 -16 -41 0 -24 14 -32 25 -14 3 6 1 10 -4
10 -6 0 -11 5 -11 11 0 5 4 8 9 5 5 -3 14 1 21 10 20 23 -2 40 -24 19z m15
-18 c-10 -9 -11 -8 -5 6 3 10 9 15 12 12 3 -3 0 -11 -7 -18z"/>
<path d="M4150 1615 c-7 -8 -8 -15 -2 -15 5 0 15 7 22 15 7 8 8 15 2 15 -5 0
-15 -7 -22 -15z"/>
<path d="M5055 7104 c-19 -16 -19 -16 5 -9 31 9 50 25 30 25 -8 0 -24 -8 -35
-16z"/>
<path d="M2404 7070 c-6 -6 -50 -17 -100 -24 -49 -8 -84 -15 -79 -15 6 -1 33
-23 60 -49 28 -26 67 -55 88 -64 49 -22 47 -15 -3 13 -21 12 -41 28 -44 36 -7
17 -2 16 34 -2 17 -9 30 -13 30 -10 0 2 -26 18 -57 34 l-58 30 38 1 c23 0 36
4 32 10 -3 6 4 10 18 10 40 0 91 21 75 31 -17 11 -22 11 -34 -1z m-89 -88 c-3
-3 -11 0 -18 7 -9 10 -8 11 6 5 10 -3 15 -9 12 -12z"/>
<path d="M4428 6985 c-47 -17 -124 -70 -131 -88 -4 -12 0 -12 31 -1 21 7 72
13 115 14 63 0 81 4 97 20 24 24 25 34 6 49 -23 19 -78 22 -118 6z"/>
<path d="M2268 6928 c54 -18 68 -28 89 -62 50 -82 76 -116 87 -116 7 0 8 3 1
8 -6 4 -20 23 -32 43 -11 20 -29 48 -39 64 l-18 27 42 -21 c23 -12 42 -19 42
-16 0 19 -177 96 -219 95 -9 -1 13 -10 47 -22z"/>
<path d="M7176 6733 c-6 -14 -5 -15 5 -6 7 7 10 15 7 18 -3 3 -9 -2 -12 -12z"/>
<path d="M4380 6720 c-30 -11 -77 -35 -105 -54 -68 -45 -208 -185 -276 -276
-64 -85 -136 -195 -122 -187 10 6 -51 -119 -69 -140 -24 -30 2 -9 59 46 34 33
71 62 82 66 12 3 28 14 37 23 9 8 36 17 61 18 24 2 58 11 76 20 24 13 69 19
177 23 171 7 175 9 290 126 71 73 134 115 191 128 15 4 37 16 50 27 l24 20
-31 -6 c-43 -8 -112 24 -193 90 -74 60 -139 96 -173 96 -13 -1 -48 -10 -78
-20z m-29 -156 c11 -13 11 -20 -2 -42 -28 -51 -85 -21 -61 32 13 29 43 34 63
10z m189 -75 c0 -17 -4 -28 -10 -24 -5 3 -10 17 -10 31 0 13 5 24 10 24 6 0
10 -14 10 -31z m75 -25 c-8 -20 -18 -34 -22 -31 -3 4 -1 12 4 19 6 7 14 27 18
43 4 17 9 25 12 18 2 -6 -3 -28 -12 -49z m-205 -4 c0 -5 -4 -10 -10 -10 -5 0
-10 5 -10 10 0 6 5 10 10 10 6 0 10 -4 10 -10z m-100 -107 c0 -7 -39 17 -46
28 -3 6 5 3 20 -6 14 -10 26 -19 26 -22z m23 -32 c29 0 30 1 10 9 -37 15 -27
19 36 17 33 0 58 -4 55 -8 -2 -4 -29 -13 -60 -20 -61 -14 -135 -2 -163 26 -11
10 1 9 37 -5 29 -11 67 -20 85 -19z"/>
<path d="M5176 6677 c3 -10 9 -15 12 -12 3 3 0 11 -7 18 -10 9 -11 8 -5 -6z"/>
<path d="M7141 6643 c-7 -23 -11 -47 -8 -54 3 -8 6 -4 6 9 1 13 6 32 12 43 6
11 9 25 7 31 -2 6 -10 -7 -17 -29z"/>
<path d="M6513 6644 l-28 -25 33 22 c17 13 32 24 32 26 0 8 -11 1 -37 -23z"/>
<path d="M2400 6630 c30 -22 50 -31 50 -22 0 6 -8 12 -17 16 -10 3 -25 9 -33
12 -13 5 -13 4 0 -6z"/>
<path d="M6505 6510 c-3 -6 1 -7 9 -4 18 7 21 14 7 14 -6 0 -13 -4 -16 -10z"/>
<path d="M6470 6469 c0 -5 5 -7 10 -4 6 3 10 8 10 11 0 2 -4 4 -10 4 -5 0 -10
-5 -10 -11z"/>
<path d="M6026 6345 c-19 -24 -25 -40 -18 -47 6 -6 17 3 32 26 30 50 20 66
-14 21z"/>
<path d="M5265 6355 c17 -8 44 -15 60 -16 22 -1 24 -3 10 -6 -11 -3 -27 -11
-35 -19 -9 -7 -40 -18 -70 -25 -75 -16 -96 -28 -43 -26 23 1 37 5 31 9 -7 4 7
7 31 6 42 0 161 46 161 63 0 4 -19 9 -42 12 -24 3 -63 7 -88 11 -45 5 -45 5
-15 -9z"/>
<path d="M5178 6343 c6 -2 18 -2 25 0 6 3 1 5 -13 5 -14 0 -19 -2 -12 -5z"/>
<path d="M5240 6330 c14 -4 34 -8 45 -8 16 0 15 2 -5 8 -14 4 -34 8 -45 8 -16
0 -15 -2 5 -8z"/>
<path d="M7256 6285 c4 -8 11 -15 16 -15 6 0 5 6 -2 15 -7 8 -14 15 -16 15 -2
0 -1 -7 2 -15z"/>
<path d="M5198 6233 c6 -2 18 -2 25 0 6 3 1 5 -13 5 -14 0 -19 -2 -12 -5z"/>
<path d="M5278 6183 c7 -3 16 -2 19 1 4 3 -2 6 -13 5 -11 0 -14 -3 -6 -6z"/>
<path d="M7363 6029 c8 -11 34 -36 58 -56 40 -33 39 -32 -11 20 -57 60 -70 70
-47 36z"/>
<path d="M3040 6030 c0 -5 5 -10 11 -10 5 0 7 5 4 10 -3 6 -8 10 -11 10 -2 0
-4 -4 -4 -10z"/>
<path d="M7440 5996 c0 -2 8 -10 18 -17 15 -13 16 -12 3 4 -13 16 -21 21 -21
13z"/>
<path d="M5000 5980 c8 -5 20 -10 25 -10 6 0 3 5 -5 10 -8 5 -19 10 -25 10 -5
0 -3 -5 5 -10z"/>
<path d="M4728 5973 c7 -3 16 -2 19 1 4 3 -2 6 -13 5 -11 0 -14 -3 -6 -6z"/>
<path d="M3866 5922 c-3 -5 8 -6 25 -4 16 2 29 6 29 8 0 8 -49 4 -54 -4z"/>
<path d="M7470 5895 c19 -19 36 -35 39 -35 3 0 -10 16 -29 35 -19 19 -36 35
-39 35 -3 0 10 -16 29 -35z"/>
<path d="M3943 5883 c9 -2 23 -2 30 0 6 3 -1 5 -18 5 -16 0 -22 -2 -12 -5z"/>
<path d="M7516 5879 c3 -5 10 -7 15 -4 5 4 9 0 10 -7 0 -7 17 -26 37 -43 l37
-30 -38 44 c-20 25 -44 46 -52 47 -8 1 -13 -2 -9 -7z"/>
<path d="M4108 5853 c7 -3 16 -2 19 1 4 3 -2 6 -13 5 -11 0 -14 -3 -6 -6z"/>
<path d="M3682 5838 c-7 -7 -12 -16 -12 -20 0 -12 28 -10 36 3 10 17 -10 31
-24 17z"/>
<path d="M7520 5836 c0 -4 24 -31 54 -59 29 -29 82 -92 116 -142 71 -102 95
-129 60 -70 -55 92 -230 299 -230 271z"/>
<path d="M5866 5799 c-6 -31 18 -108 31 -96 3 4 0 14 -7 22 -7 9 -12 36 -12
60 2 52 -3 58 -12 14z"/>
<path d="M4868 5653 c7 -3 16 -2 19 1 4 3 -2 6 -13 5 -11 0 -14 -3 -6 -6z"/>
<path d="M5910 5656 c0 -2 8 -10 18 -17 15 -13 16 -12 3 4 -13 16 -21 21 -21
13z"/>
<path d="M4035 5630 c10 -11 20 -20 23 -20 3 0 -3 9 -13 20 -10 11 -20 20 -23
20 -3 0 3 -9 13 -20z"/>
<path d="M3850 5626 c0 -2 8 -10 18 -17 15 -13 16 -12 3 4 -13 16 -21 21 -21
13z"/>
<path d="M3927 5599 c7 -7 15 -10 18 -7 3 3 -2 9 -12 12 -14 6 -15 5 -6 -5z"/>
<path d="M4070 5606 c0 -2 8 -10 18 -17 15 -13 16 -12 3 4 -13 16 -21 21 -21
13z"/>
<path d="M3495 5570 c-10 -11 -13 -20 -7 -20 6 0 16 9 22 20 6 11 9 20 7 20
-2 0 -12 -9 -22 -20z"/>
<path d="M3880 5586 c0 -2 8 -10 18 -17 15 -13 16 -12 3 4 -13 16 -21 21 -21
13z"/>
<path d="M4790 5580 c-13 -8 -12 -10 3 -10 9 0 17 5 17 10 0 12 -1 12 -20 0z"/>
<path d="M3605 5569 c-4 -6 -5 -12 -2 -15 2 -3 7 2 10 11 7 17 1 20 -8 4z"/>
<path d="M4747 5563 c-16 -4 -15 -7 8 -19 31 -16 49 -19 22 -3 -9 6 -15 14
-12 20 4 5 5 8 3 8 -2 -1 -11 -3 -21 -6z"/>
<path d="M4718 5538 c5 -5 16 -8 23 -6 8 3 3 7 -10 11 -17 4 -21 3 -13 -5z"/>
<path d="M5248 5503 c6 -2 18 -2 25 0 6 3 1 5 -13 5 -14 0 -19 -2 -12 -5z"/>
<path d="M4725 5410 c3 -5 14 -10 23 -10 15 0 15 2 2 10 -20 13 -33 13 -25 0z"/>
<path d="M4673 5393 c9 -2 25 -2 35 0 9 3 1 5 -18 5 -19 0 -27 -2 -17 -5z"/>
<path d="M4580 5368 c0 -10 52 -10 67 0 7 5 -4 8 -27 7 -22 0 -40 -3 -40 -7z"/>
<path d="M5378 5373 c7 -3 16 -2 19 1 4 3 -2 6 -13 5 -11 0 -14 -3 -6 -6z"/>
<path d="M5785 5360 c28 -12 57 -12 50 0 -3 6 -21 10 -38 9 -27 0 -29 -2 -12
-9z"/>
<path d="M5348 5333 c7 -3 16 -2 19 1 4 3 -2 6 -13 5 -11 0 -14 -3 -6 -6z"/>
<path d="M3193 5271 c-14 -20 -20 -31 -13 -24 7 6 20 9 29 6 14 -4 14 -3 1 6
-13 9 -13 11 2 11 10 0 22 8 27 18 18 35 -18 21 -46 -17z"/>
<path d="M5768 5303 c6 -2 18 -2 25 0 6 3 1 5 -13 5 -14 0 -19 -2 -12 -5z"/>
<path d="M4530 5296 c0 -2 7 -7 16 -10 8 -3 12 -2 9 4 -6 10 -25 14 -25 6z"/>
<path d="M3294 5269 c-25 -28 -130 -89 -165 -96 -16 -3 -34 -12 -41 -21 -11
-14 -10 -15 7 -7 11 4 41 15 66 24 46 16 143 85 153 109 8 17 2 15 -20 -9z"/>
<path d="M4633 5264 c9 -11 14 -23 11 -26 -3 -3 -1 -9 5 -13 21 -12 11 22 -11
41 -23 19 -23 19 -5 -2z"/>
<path d="M6273 5265 c0 -8 4 -12 9 -9 5 3 6 10 3 15 -9 13 -12 11 -12 -6z"/>
<path d="M3185 5230 c-4 -6 -10 -8 -14 -6 -4 3 -8 -1 -8 -9 0 -13 4 -12 19 2
18 16 22 23 14 23 -3 0 -8 -5 -11 -10z"/>
<path d="M7940 5238 c0 -11 30 -78 35 -78 3 0 -2 17 -10 37 -15 36 -25 52 -25
41z"/>
<path d="M8134 5185 c8 -16 20 -37 25 -45 10 -13 11 -13 10 0 0 8 -11 29 -25
45 l-26 30 16 -30z"/>
<path d="M3316 5155 c-8 -8 -20 -13 -28 -12 -7 2 -9 2 -5 -1 5 -2 0 -13 -10
-24 -18 -20 -18 -21 3 -10 12 6 23 9 25 7 3 -2 12 10 21 26 19 32 17 37 -6 14z"/>
<path d="M4581 5130 c15 -45 24 -54 15 -15 -4 17 -12 34 -17 40 -5 5 -4 -6 2
-25z"/>
<path d="M7985 5130 c3 -10 24 -63 47 -117 22 -54 53 -132 69 -173 32 -85 39
-79 10 8 -10 31 -22 71 -26 87 -3 17 -15 39 -24 50 -10 11 -31 53 -46 93 -16
39 -30 72 -32 72 -3 0 -2 -9 2 -20z"/>
<path d="M3206 5115 c-26 -20 0 -20 34 0 22 13 23 14 5 14 -11 0 -29 -6 -39
-14z"/>
<path d="M3141 5096 c-10 -12 -8 -13 8 -9 12 3 21 9 21 14 0 14 -16 11 -29 -5z"/>
<path d="M3327 5064 c-15 -14 -34 -23 -42 -21 -7 3 -21 -3 -30 -13 -10 -11
-21 -18 -25 -15 -4 2 -22 -11 -40 -30 -19 -19 -29 -35 -23 -35 6 0 18 11 27
25 9 14 20 24 24 23 16 -3 99 41 121 66 31 33 24 34 -12 0z"/>
<path d="M4550 5086 c0 -9 81 -66 94 -66 5 0 4 6 -4 13 -21 19 -90 60 -90 53z"/>
<path d="M3344 5038 l-19 -23 23 19 c12 11 22 21 22 23 0 8 -8 2 -26 -19z"/>
<path d="M6710 5056 c0 -2 8 -10 18 -17 15 -13 16 -12 3 4 -13 16 -21 21 -21
13z"/>
<path d="M3344 5005 c-10 -14 -24 -25 -31 -25 -7 0 -13 -4 -13 -10 0 -20 -2
-25 -12 -38 -8 -9 -7 -11 6 -6 10 4 15 12 13 19 -3 6 1 12 9 12 10 0 12 -6 8
-16 -4 -9 -9 -27 -12 -41 -3 -14 -13 -37 -23 -51 -10 -14 -21 -38 -24 -55 l-7
-29 19 23 c11 13 25 44 31 70 7 26 21 64 32 85 14 28 15 35 5 27 -10 -8 -15
-9 -15 -2 0 6 4 14 10 17 11 6 33 45 27 45 -2 0 -13 -11 -23 -25z"/>
<path d="M4577 4959 c29 -49 48 -58 24 -11 -12 23 -26 42 -32 42 -5 0 -2 -14
8 -31z"/>
<path d="M4541 4925 c15 -15 32 -26 38 -24 5 2 -6 15 -27 28 l-37 23 26 -27z"/>
<path d="M6640 4941 c0 -5 7 -14 15 -21 16 -14 18 -10 9 14 -6 17 -24 22 -24
7z"/>
<path d="M4635 4893 c6 -23 -8 -32 -20 -13 -3 6 -14 10 -23 10 -13 0 -13 -2 4
-15 18 -13 16 -14 -24 -15 -26 0 -41 -4 -37 -10 3 -5 1 -10 -6 -10 -7 0 -10
-3 -7 -6 3 -3 15 0 26 7 17 11 25 11 44 0 13 -7 31 -11 39 -9 7 2 13 -2 12 -8
-1 -6 10 -17 25 -23 l27 -13 -29 31 c-33 35 -34 33 18 52 22 8 41 21 43 29 3
9 1 11 -4 5 -13 -16 -74 -19 -85 -3 -6 9 -7 6 -3 -9z"/>
<path d="M3285 4889 c-4 -6 -5 -12 -2 -15 2 -3 7 2 10 11 7 17 1 20 -8 4z"/>
<path d="M3331 4859 c-13 -18 -18 -28 -11 -24 9 6 10 1 5 -16 -4 -13 -4 -21 0
-16 5 4 9 15 10 25 1 9 7 27 13 40 18 31 10 27 -17 -9z"/>
<path d="M4559 4837 c-6 -18 -6 -43 1 -47 8 -5 13 -43 11 -98 -1 -19 -5 -31
-11 -27 -30 19 14 -60 60 -106 34 -35 81 -55 65 -29 -3 6 -14 10 -24 10 -23 0
-45 25 -35 41 4 7 3 9 -3 6 -22 -14 -36 25 -39 108 -2 46 -5 90 -6 97 -2 7 2
12 9 11 17 -4 5 24 -13 31 -8 3 -14 4 -15 3z"/>
<path d="M3225 4749 c-4 -6 -5 -12 -2 -15 2 -3 7 2 10 11 7 17 1 20 -8 4z"/>
<path d="M3276 4733 c-6 -14 -5 -15 5 -6 7 7 10 15 7 18 -3 3 -9 -2 -12 -12z"/>
<path d="M3300 4721 c-13 -11 -29 -17 -34 -14 -5 4 -6 1 -1 -7 5 -8 1 -18 -10
-26 -10 -8 -16 -16 -13 -20 3 -3 22 9 41 25 19 17 39 31 45 31 5 0 12 7 16 15
8 21 -14 18 -44 -4z"/>
<path d="M3352 4715 c-8 -17 -8 -25 -1 -25 6 0 7 -6 3 -12 -4 -7 2 -4 14 6 26
23 28 28 6 19 -14 -5 -15 -3 -5 15 7 12 8 22 3 22 -5 0 -14 -11 -20 -25z"/>
<path d="M8174 4707 c3 -10 6 -27 6 -38 0 -10 5 -19 11 -19 13 0 3 50 -13 65
-8 7 -9 4 -4 -8z"/>
<path d="M4500 4655 c13 -14 26 -25 28 -25 3 0 -5 11 -18 25 -13 14 -26 25
-28 25 -3 0 5 -11 18 -25z"/>
<path d="M8201 4598 c5 -24 15 -74 21 -113 9 -51 14 -63 18 -45 3 14 -4 62
-15 108 -23 88 -38 121 -24 50z"/>
<path d="M3355 4592 c-11 -20 -39 -58 -62 -85 -51 -57 -54 -66 -13 -37 34 24
75 75 75 93 0 7 6 23 13 35 8 13 12 25 10 27 -2 3 -13 -12 -23 -33z"/>
<path d="M4390 4626 c0 -2 8 -10 18 -17 15 -13 16 -12 3 4 -13 16 -21 21 -21
13z"/>
<path d="M4400 4585 c0 -8 90 -57 99 -53 6 1 -14 15 -44 30 -30 15 -55 26 -55
23z"/>
<path d="M4467 4569 c7 -7 15 -10 18 -7 3 3 -2 9 -12 12 -14 6 -15 5 -6 -5z"/>
<path d="M4560 4575 c0 -2 10 -10 23 -16 20 -11 21 -11 8 4 -13 16 -31 23 -31
12z"/>
<path d="M3324 4489 c-40 -36 -50 -49 -33 -44 26 8 75 50 90 78 15 28 3 20
-57 -34z"/>
<path d="M3452 4519 c-7 -11 -17 -17 -22 -14 -12 7 -90 -32 -90 -45 0 -16 15
-12 54 15 30 21 38 22 42 10 4 -8 3 -22 0 -31 -3 -8 -1 -25 5 -36 6 -12 11
-48 10 -81 -1 -32 2 -64 6 -70 4 -7 6 -27 4 -46 -2 -30 -1 -33 12 -19 8 8 17
26 19 39 1 13 7 27 11 30 12 9 10 135 -2 156 -9 14 -10 8 -7 -32 3 -29 2 -44
-3 -36 -7 11 -9 11 -14 0 -2 -8 -3 6 0 31 3 25 13 66 24 92 27 67 23 73 -7 10
-29 -59 -39 -64 -24 -12 12 42 0 68 -18 39z"/>
<path d="M4540 4530 c-22 -7 -21 -8 13 -9 23 -1 36 3 32 9 -7 11 -10 11 -45 0z"/>
<path d="M6679 4485 c13 -25 96 -116 85 -94 -5 9 -29 38 -53 65 -24 27 -39 40
-32 29z"/>
<path d="M8360 4475 c0 -5 4 -26 10 -45 5 -19 9 -38 7 -41 -1 -3 3 -12 9 -20
6 -8 15 -32 19 -54 4 -22 10 -35 12 -28 2 7 -5 47 -17 90 -21 75 -39 119 -40
98z"/>
<path d="M3225 4440 c-4 -6 3 -10 14 -10 25 0 27 6 6 13 -8 4 -17 2 -20 -3z"/>
<path d="M6640 4406 c0 -2 8 -10 18 -17 15 -13 16 -12 3 4 -13 16 -21 21 -21
13z"/>
<path d="M6932 4380 c0 -14 2 -19 5 -12 2 6 2 18 0 25 -3 6 -5 1 -5 -13z"/>
<path d="M6655 4340 c10 -11 20 -20 23 -20 3 0 -3 9 -13 20 -10 11 -20 20 -23
20 -3 0 3 -9 13 -20z"/>
<path d="M6600 4327 c0 -2 15 -16 33 -33 l32 -29 -29 33 c-28 30 -36 37 -36
29z"/>
<path d="M3561 4274 c0 -11 3 -14 6 -6 3 7 2 16 -1 19 -3 4 -6 -2 -5 -13z"/>
<path d="M3521 4249 c0 -19 4 -43 9 -54 6 -13 7 -2 3 30 -7 59 -13 72 -12 24z"/>
<path d="M3632 4200 c0 -14 2 -19 5 -12 2 6 2 18 0 25 -3 6 -5 1 -5 -13z"/>
<path d="M6601 4176 c2 -2 15 -9 29 -15 24 -11 24 -11 6 3 -16 13 -49 24 -35
12z"/>
<path d="M3472 4150 c0 -14 2 -19 5 -12 2 6 2 18 0 25 -3 6 -5 1 -5 -13z"/>
<path d="M3542 4140 c0 -14 2 -19 5 -12 2 6 2 18 0 25 -3 6 -5 1 -5 -13z"/>
<path d="M8441 4144 c0 -11 3 -14 6 -6 3 7 2 16 -1 19 -3 4 -6 -2 -5 -13z"/>
<path d="M6891 4114 c0 -11 3 -14 6 -6 3 7 2 16 -1 19 -3 4 -6 -2 -5 -13z"/>
<path d="M8452 4090 c0 -19 3 -60 8 -90 6 -48 7 -50 8 -15 0 22 -3 63 -8 90
-6 40 -7 43 -8 15z"/>
<path d="M6648 4074 c18 -8 30 -19 27 -24 -4 -6 -12 -7 -18 -4 -7 4 -8 3 -4
-1 10 -12 39 -16 32 -5 -3 5 1 10 7 13 12 4 -52 38 -69 36 -4 0 7 -7 25 -15z"/>
<path d="M4300 4026 c0 -2 8 -10 18 -17 15 -13 16 -12 3 4 -13 16 -21 21 -21
13z"/>
<path d="M6620 3980 c8 -5 20 -10 25 -10 6 0 3 5 -5 10 -8 5 -19 10 -25 10 -5
0 -3 -5 5 -10z"/>
<path d="M6588 3963 c7 -3 16 -2 19 1 4 3 -2 6 -13 5 -11 0 -14 -3 -6 -6z"/>
<path d="M3871 3944 c0 -11 3 -14 6 -6 3 7 2 16 -1 19 -3 4 -6 -2 -5 -13z"/>
<path d="M6367 3929 c10 -10 9 -15 -3 -23 -12 -9 -10 -11 11 -12 14 -1 22 2
19 7 -3 6 6 7 23 3 38 -9 18 10 -27 25 -27 9 -32 9 -23 0z"/>
<path d="M6218 3863 c7 -3 16 -2 19 1 4 3 -2 6 -13 5 -11 0 -14 -3 -6 -6z"/>
<path d="M6136 3852 c-3 -5 8 -6 25 -4 16 2 29 6 29 8 0 8 -49 4 -54 -4z"/>
<path d="M3830 3840 c0 -5 5 -10 11 -10 5 0 7 5 4 10 -3 6 -8 10 -11 10 -2 0
-4 -4 -4 -10z"/>
<path d="M6100 3825 c-11 -13 -10 -14 4 -9 9 3 16 10 16 15 0 13 -6 11 -20 -6z"/>
<path d="M5081 3784 c0 -11 3 -14 6 -6 3 7 2 16 -1 19 -3 4 -6 -2 -5 -13z"/>
<path d="M5200 3741 c0 -6 4 -13 10 -16 6 -3 7 1 4 9 -7 18 -14 21 -14 7z"/>
<path d="M5155 3691 c4 -14 3 -21 -2 -18 -6 4 -6 -7 1 -27 9 -29 36 -47 36
-24 0 5 5 6 12 2 7 -5 8 -3 4 5 -5 7 -11 10 -14 7 -7 -7 -32 13 -32 26 0 6 8
4 17 -3 14 -12 13 -9 -2 16 -26 41 -29 43 -20 16z"/>
<path d="M5210 3694 c0 -13 18 -39 24 -34 2 3 -2 14 -10 24 -8 11 -14 16 -14
10z"/>
<path d="M5237 3689 c7 -7 15 -10 18 -7 3 3 -2 9 -12 12 -14 6 -15 5 -6 -5z"/>
<path d="M5125 3637 c10 -15 20 -25 23 -22 3 3 -5 16 -17 28 l-23 22 17 -28z"/>
<path d="M5275 3619 c9 -16 20 -27 25 -24 13 8 -4 41 -25 49 -14 5 -14 2 0
-25z"/>
<path d="M8443 3615 c0 -13 3 -22 8 -19 5 3 9 14 9 25 0 10 -4 19 -9 19 -5 0
-8 -11 -8 -25z"/>
<path d="M4013 3575 c0 -33 2 -45 4 -27 2 18 2 45 0 60 -2 15 -4 0 -4 -33z"/>
<path d="M5410 3575 c13 -14 26 -25 28 -25 3 0 -5 11 -18 25 -13 14 -26 25
-28 25 -3 0 5 -11 18 -25z"/>
<path d="M5610 3561 c19 -17 39 -31 44 -31 5 0 7 1 5 3 -2 2 -22 15 -44 31
l-40 27 35 -30z"/>
<path d="M4053 3500 c0 -36 2 -50 4 -32 2 17 2 47 0 65 -2 17 -4 3 -4 -33z"/>
<path d="M5493 3545 c-10 -11 -6 -19 23 -44 40 -36 40 -36 47 -17 4 9 1 13 -6
10 -7 -2 -24 7 -37 21 -13 14 -19 25 -14 25 15 0 69 -39 69 -50 0 -5 3 -10 8
-10 4 0 12 0 17 0 14 0 -16 30 -57 58 -36 26 -34 25 -50 7z"/>
<path d="M3962 3495 c0 -16 2 -22 5 -12 2 9 2 23 0 30 -3 6 -5 -1 -5 -18z"/>
<path d="M5741 3480 c-13 -11 -19 -20 -14 -20 6 0 18 9 28 20 23 25 17 25 -14
0z"/>
<path d="M5488 3473 c7 -3 16 -2 19 1 4 3 -2 6 -13 5 -11 0 -14 -3 -6 -6z"/>
<path d="M4042 3370 c0 -14 2 -19 5 -12 2 6 2 18 0 25 -3 6 -5 1 -5 -13z"/>
<path d="M4032 3320 c0 -14 2 -19 5 -12 2 6 2 18 0 25 -3 6 -5 1 -5 -13z"/>
<path d="M4472 3250 c0 -19 2 -27 5 -17 2 9 2 25 0 35 -3 9 -5 1 -5 -18z"/>
<path d="M5566 3255 c-9 -13 -13 -31 -9 -41 5 -14 8 -13 24 7 10 13 19 29 19
36 0 23 -18 22 -34 -2z"/>
<path d="M4022 3250 c0 -14 2 -19 5 -12 2 6 2 18 0 25 -3 6 -5 1 -5 -13z"/>
<path d="M4071 3104 c0 -11 3 -14 6 -6 3 7 2 16 -1 19 -3 4 -6 -2 -5 -13z"/>
<path d="M4461 2714 c0 -11 3 -14 6 -6 3 7 2 16 -1 19 -3 4 -6 -2 -5 -13z"/>
<path d="M4451 2674 c0 -11 3 -14 6 -6 3 7 2 16 -1 19 -3 4 -6 -2 -5 -13z"/>
<path d="M5576 2521 c-4 -5 3 -7 14 -4 23 6 26 13 6 13 -8 0 -17 -4 -20 -9z"/>
<path d="M4391 2454 c0 -11 3 -14 6 -6 3 7 2 16 -1 19 -3 4 -6 -2 -5 -13z"/>
<path d="M5419 2428 c4 -28 6 -29 9 -9 2 13 0 27 -5 32 -6 6 -7 -3 -4 -23z"/>
<path d="M4381 2414 c0 -11 3 -14 6 -6 3 7 2 16 -1 19 -3 4 -6 -2 -5 -13z"/>
<path d="M4456 2344 c-4 -14 -5 -28 -3 -31 3 -2 8 8 11 23 4 14 5 28 3 31 -3
2 -8 -8 -11 -23z"/>
<path d="M4424 2276 c-3 -8 -4 -23 -2 -33 3 -11 6 -6 9 15 6 34 2 42 -7 18z"/>
<path d="M4301 2244 c0 -11 3 -14 6 -6 3 7 2 16 -1 19 -3 4 -6 -2 -5 -13z"/>
<path d="M4386 2204 c-3 -8 -3 -27 0 -41 l7 -25 13 32 c19 43 17 63 -2 25
l-14 -30 5 28 c6 30 1 36 -9 11z"/>
<path d="M5510 2190 c-6 -11 -8 -20 -6 -20 3 0 10 9 16 20 6 11 8 20 6 20 -3
0 -10 -9 -16 -20z"/>
<path d="M7150 2190 c0 -5 5 -10 11 -10 5 0 7 5 4 10 -3 6 -8 10 -11 10 -2 0
-4 -4 -4 -10z"/>
<path d="M4365 2079 c-4 -6 -5 -12 -2 -15 2 -3 7 2 10 11 7 17 1 20 -8 4z"/>
<path d="M6668 1946 c-31 -12 -60 -24 -63 -28 -11 -10 80 19 112 36 39 21 19
18 -49 -8z"/>
<path d="M5426 1943 c-6 -14 -5 -15 5 -6 7 7 10 15 7 18 -3 3 -9 -2 -12 -12z"/>
<path d="M5457 1928 c2 -5 -2 -8 -9 -9 -43 -2 -79 -21 -61 -32 4 -3 33 8 63
23 43 22 49 28 28 27 -14 -1 -24 -5 -21 -9z"/>
<path d="M5658 1933 c7 -3 16 -2 19 1 4 3 -2 6 -13 5 -11 0 -14 -3 -6 -6z"/>
<path d="M5618 1923 c7 -3 16 -2 19 1 4 3 -2 6 -13 5 -11 0 -14 -3 -6 -6z"/>
<path d="M5543 1903 c9 -2 23 -2 30 0 6 3 -1 5 -18 5 -16 0 -22 -2 -12 -5z"/>
<path d="M5345 1890 c-3 -5 -2 -10 4 -10 5 0 13 5 16 10 3 6 2 10 -4 10 -5 0
-13 -4 -16 -10z"/>
<path d="M4280 1865 c-7 -9 -10 -18 -7 -21 3 -3 10 4 17 15 13 25 8 27 -10 6z"/>
<path d="M5815 1820 c-25 -11 1 -11 35 0 20 6 21 8 5 8 -11 0 -29 -3 -40 -8z"/>
<path d="M5965 1800 l-60 -7 60 -1 c33 0 80 3 105 7 l45 8 -45 0 c-25 0 -72
-3 -105 -7z"/>
</g>
</svg>
