<?xml version="1.0" standalone="no"?>
<!DOCTYPE svg PUBLIC "-//W3C//DTD SVG 20010904//EN"
 "http://www.w3.org/TR/2001/REC-SVG-20010904/DTD/svg10.dtd">
<svg version="1.0" xmlns="http://www.w3.org/2000/svg"
 width="512" height="512" viewBox="0 0 591.924449 865.803142"
 preserveAspectRatio="xMidYMid meet">
<metadata>Created by Svg.la</metadata>
<g transform="translate(-222.075551,931.973630) scale(0.100000,-0.100000)"
fill="#000000" stroke="none">
<path d="M7640 9290 c-36 -16 -72 -30 -80 -30 -22 0 -285 -147 -283 -158 1 -5
-32 -35 -74 -68 -42 -32 -98 -78 -124 -100 -62 -55 -169 -130 -196 -138 -12
-4 -24 -2 -28 4 -4 6 -3 9 2 8 13 -4 53 26 53 39 0 7 6 10 13 7 14 -5 107 61
107 76 0 6 6 10 14 10 7 0 19 7 26 15 10 12 10 15 -2 15 -23 0 -128 -79 -128
-96 0 -8 -6 -14 -14 -12 -20 4 -106 -69 -106 -90 -1 -9 -24 -34 -53 -54 -29
-21 -63 -48 -77 -61 -14 -12 -53 -45 -88 -72 -47 -37 -65 -46 -71 -36 -6 9
-11 10 -15 2 -4 -6 -2 -11 5 -11 20 0 -22 -40 -64 -62 -21 -10 -40 -25 -44
-33 -3 -8 -9 -15 -15 -15 -5 0 -6 6 -2 13 22 36 -164 -146 -319 -312 -81 -87
-107 -121 -111 -143 -2 -18 -94 -113 -102 -106 -3 4 2 17 10 31 19 29 12 57
-15 57 -11 0 -37 -9 -58 -20 -31 -15 -45 -17 -72 -10 -19 6 -65 10 -103 10
-55 0 -67 3 -58 12 24 24 11 30 -55 24 -208 -19 -227 -21 -243 -31 -8 -5 -11
-4 -6 3 8 13 -40 7 -139 -18 -73 -19 -92 -17 -62 4 21 16 23 40 1 32 -9 -3
-30 -6 -47 -7 -27 0 -29 -2 -12 -9 17 -7 16 -9 -10 -10 -16 -2 -34 -2 -38 -1
-22 4 -137 -22 -137 -31 0 -6 8 -7 17 -3 31 11 114 27 119 22 3 -3 -12 -13
-33 -23 -44 -22 -62 -61 -20 -45 14 5 27 7 30 5 6 -7 87 17 87 25 0 3 19 7 42
8 23 2 44 6 47 10 3 5 13 8 21 9 8 1 25 4 38 8 13 5 22 3 22 -3 0 -6 -7 -11
-15 -11 -14 0 -58 -40 -51 -47 2 -2 62 15 132 38 138 45 279 65 239 35 -55
-42 -56 -46 -6 -39 19 4 28 9 21 13 -6 4 41 6 105 4 65 -2 120 -5 122 -8 3 -2
-9 -25 -26 -50 -17 -24 -31 -48 -31 -53 0 -4 28 20 63 54 55 54 94 83 111 83
11 0 6 -36 -6 -48 -10 -10 -10 -15 2 -23 11 -8 12 -12 3 -16 -14 -5 -18 -43
-4 -43 4 0 25 14 46 30 21 17 40 28 43 25 2 -2 -2 -19 -11 -37 -18 -40 -30
-78 -24 -78 5 0 67 99 67 107 0 11 154 207 242 310 88 101 284 293 300 293 18
0 3 -19 -97 -129 -58 -63 -105 -118 -105 -122 0 -9 41 -6 58 5 7 4 12 12 12
18 0 7 -6 6 -15 -2 -8 -7 -15 -8 -15 -2 0 15 28 35 39 28 5 -4 13 -1 17 5 4 8
3 9 -4 5 -7 -4 -12 -3 -12 1 0 5 10 13 23 18 12 6 21 17 19 24 -1 7 1 10 6 7
11 -6 22 2 56 44 68 85 207 215 287 270 49 33 91 65 94 70 7 12 85 73 85 67 0
-8 -124 -127 -131 -127 -13 0 -134 -118 -128 -124 3 -4 19 4 34 16 16 13 25
16 20 8 -4 -8 6 -2 23 14 17 16 29 33 26 38 -3 5 3 12 15 15 11 3 18 9 15 14
-3 5 2 9 10 9 9 0 16 5 16 11 0 5 5 7 10 4 6 -4 9 -1 8 6 -2 8 13 21 32 31 54
27 142 108 136 125 -3 8 -1 11 4 8 12 -7 110 52 110 66 0 5 7 9 15 9 8 0 24 9
35 20 11 11 23 20 27 20 3 0 37 22 74 49 87 63 201 125 261 141 55 14 72 6 93
-45 12 -29 31 -132 27 -147 -1 -5 2 -8 7 -8 5 0 7 -123 5 -292 -5 -372 7 -380
20 -13 5 147 6 158 12 152 3 -3 5 -72 4 -154 0 -81 -1 -165 0 -186 0 -21 -4
-53 -9 -72 -5 -18 -6 -36 -3 -39 7 -8 5 -172 -4 -287 -6 -78 -5 -89 9 -83 11
4 14 15 10 42 -4 30 -2 34 7 22 9 -12 10 -5 4 30 -9 57 -9 54 0 185 5 61 10
233 13 383 5 267 16 343 27 200 9 -113 12 -507 4 -501 -5 2 -8 -2 -8 -11 0 -8
6 -17 13 -19 6 -3 8 -6 2 -6 -6 -1 -9 -30 -9 -68 3 -130 -34 -461 -73 -663
-28 -147 -125 -420 -148 -420 -3 0 -1 9 5 21 7 11 9 23 7 25 -3 3 -13 -16 -23
-43 -9 -26 -21 -52 -25 -58 -4 -5 -19 -32 -34 -60 -52 -94 -116 -184 -196
-275 -51 -58 -74 -90 -63 -90 13 0 11 -4 -6 -18 -13 -11 -20 -24 -16 -30 10
-16 29 -5 96 58 30 28 62 55 72 60 28 17 9 -29 -39 -93 -24 -33 -42 -62 -39
-65 4 -3 12 0 18 6 7 7 19 12 28 12 20 0 83 76 75 90 -4 6 -1 9 5 8 16 -4 99
151 149 277 22 55 58 170 80 255 23 85 56 212 75 283 44 163 69 310 70 414 1
46 5 83 10 83 5 0 6 25 4 55 -3 30 -1 52 3 50 4 -3 10 82 13 188 3 105 7 206
8 222 6 85 -4 360 -13 363 -5 2 -7 18 -4 36 6 28 -17 230 -29 267 -3 8 -10 33
-16 57 -9 36 -15 43 -33 40 -14 -2 -21 2 -19 10 2 11 -20 43 -30 42 -2 0 -32
-14 -68 -30z m115 -480 c3 -5 1 -10 -4 -10 -6 0 -11 5 -11 10 0 6 2 10 4 10 3
0 8 -4 11 -10z m-955 -215 c0 -2 -6 -8 -13 -14 -10 -8 -14 -7 -14 2 0 8 6 14
14 14 7 0 13 -1 13 -2z m-250 -149 c0 -2 -7 -7 -16 -10 -8 -3 -12 -2 -9 4 6
10 25 14 25 6z m-70 -61 c-7 -9 -15 -13 -17 -11 -7 7 7 26 19 26 6 0 6 -6 -2
-15z m-1550 -480 c0 -2 -10 -9 -22 -15 -22 -11 -22 -10 -4 4 21 17 26 19 26
11z m2785 -485 c-4 -12 -9 -19 -12 -17 -3 3 -2 15 2 27 4 12 9 19 12 17 3 -3
2 -15 -2 -27z m-48 -152 c-3 -7 -5 -2 -5 12 0 14 2 19 5 13 2 -7 2 -19 0 -25z"/>
<path d="M7200 9067 c-19 -13 -55 -37 -79 -52 -51 -35 -40 -46 13 -13 36 23
114 88 105 88 -2 0 -20 -11 -39 -23z"/>
<path d="M7578 9082 c-15 -6 -123 -95 -221 -182 -22 -19 -64 -65 -94 -102 -29
-37 -75 -91 -102 -120 -100 -109 -133 -148 -127 -148 3 0 38 34 77 75 81 85
105 93 37 13 -158 -189 -449 -612 -440 -641 1 -5 -2 -6 -8 -2 -5 3 -10 2 -10
-3 0 -4 -9 -18 -20 -29 -34 -37 -58 -84 -53 -104 3 -10 1 -25 -5 -32 -26 -31
-83 -158 -76 -169 4 -7 3 -10 -1 -5 -19 16 -115 -267 -97 -285 15 -15 51 24
74 82 30 73 45 96 54 87 4 -4 3 -12 -3 -18 -6 -6 -9 -18 -6 -25 3 -8 0 -14 -6
-14 -6 0 -11 -7 -11 -16 0 -25 28 2 46 44 11 27 12 37 2 43 -9 6 -9 11 1 23 7
9 18 13 24 9 6 -3 7 -1 3 6 -4 6 2 23 13 37 12 15 21 23 21 19 0 -4 42 32 93
80 50 48 91 93 89 99 -2 6 0 8 4 4 4 -4 20 4 36 17 31 26 58 33 58 14 0 -6 7
-8 16 -5 14 5 15 4 4 -8 -6 -9 -17 -14 -23 -13 -7 1 -11 -4 -10 -10 2 -7 -3
-13 -11 -13 -14 0 -31 -27 -27 -43 1 -5 -3 -6 -8 -2 -6 3 -17 -8 -26 -25 -15
-28 -14 -32 5 -52 l20 -22 23 22 c13 12 27 22 32 22 9 0 118 91 123 103 2 4 8
5 13 1 5 -3 9 0 9 5 0 17 -17 13 -68 -15 -62 -34 -73 -44 -65 -57 3 -6 1 -7
-6 -3 -13 8 -44 -12 -37 -23 3 -4 -4 -7 -15 -7 -25 0 -24 22 1 36 11 6 20 14
20 19 0 5 16 26 36 47 20 22 45 51 56 67 18 25 18 28 2 34 -10 3 -30 -1 -45
-9 -15 -9 -29 -14 -31 -12 -4 3 61 74 155 172 34 35 6 26 -37 -13 -22 -19 -47
-35 -55 -34 -11 0 -12 2 -3 6 6 2 12 14 13 26 0 12 3 16 6 9 6 -15 63 53 63
76 0 13 -3 13 -18 -1 -40 -36 -43 -14 -4 25 23 22 42 44 42 49 0 4 13 21 30
39 16 18 27 37 23 43 -3 5 -2 7 4 4 6 -4 21 5 34 20 13 14 19 23 12 19 -23
-13 -21 9 3 27 17 12 24 14 24 5 0 -7 8 -1 17 12 10 14 17 28 15 33 -1 4 3 7
10 7 6 0 8 3 5 6 -4 4 -32 -15 -62 -41 -48 -41 -54 -49 -43 -64 12 -14 11 -14
-4 -3 -14 11 -21 11 -42 -3 -50 -33 -27 7 51 89 42 45 98 105 126 134 82 87
29 58 -65 -35 -150 -149 -98 -67 66 106 57 60 59 63 31 56 -16 -3 -37 -13 -46
-21 -8 -8 -21 -14 -28 -14 -12 0 92 144 124 170 19 16 131 158 161 204 l19 29
-28 -18 c-15 -10 -30 -16 -33 -13 -7 8 84 88 101 88 8 0 15 5 15 10 0 6 -1 10
-2 9 -2 0 -10 -3 -20 -7z m-629 -1124 c-7 -13 -44 -54 -83 -92 -39 -38 -65
-66 -58 -62 6 4 12 2 12 -4 0 -7 -6 -10 -14 -7 -7 3 -28 -9 -45 -27 -31 -32
-41 -53 -18 -40 8 5 8 3 -2 -9 -7 -9 -17 -15 -21 -12 -5 3 -18 -7 -29 -21 -12
-15 -21 -22 -21 -15 0 23 71 108 142 171 40 35 89 81 108 101 41 44 45 46 29
17z m-315 -290 c-7 -23 -61 -98 -70 -98 -3 0 9 27 27 60 31 59 57 81 43 38z
m36 -22 c0 -3 -4 -8 -10 -11 -5 -3 -10 -1 -10 4 0 6 5 11 10 11 6 0 10 -2 10
-4z"/>
<path d="M2275 8887 c-9 -44 -11 -159 -4 -215 5 -31 11 -111 15 -177 3 -66 8
-124 11 -128 3 -4 -1 -15 -9 -24 -9 -12 -9 -15 0 -9 7 4 12 2 12 -6 0 -7 3
-24 7 -37 5 -18 3 -22 -7 -16 -9 6 -11 -1 -6 -31 3 -22 11 -86 16 -144 6 -58
13 -114 15 -125 2 -11 14 -72 25 -135 12 -63 28 -129 36 -147 8 -17 14 -42 14
-56 0 -51 87 -367 102 -367 4 0 5 -6 2 -14 -13 -34 110 -436 169 -551 24 -47
66 -107 52 -75 -4 8 1 6 9 -5 9 -11 14 -25 12 -32 -3 -7 0 -15 6 -19 7 -4 8
-3 4 4 -4 7 -5 12 -2 12 3 0 10 -10 17 -21 8 -15 8 -19 0 -15 -6 4 -2 -9 10
-28 12 -20 26 -33 32 -29 5 3 7 2 4 -4 -4 -5 5 -25 18 -43 14 -19 25 -30 25
-25 0 5 9 -1 21 -14 12 -12 19 -25 15 -28 -3 -3 13 -22 36 -42 40 -37 41 -38
24 -63 -11 -17 -13 -28 -7 -32 6 -4 13 5 17 19 7 27 28 33 41 11 14 -23 48
-37 61 -24 9 9 -1 25 -36 62 -36 39 -43 51 -30 54 9 2 34 -8 55 -21 55 -34 73
-39 79 -22 4 10 -22 44 -70 96 -42 44 -83 95 -91 112 -9 18 -38 57 -66 87 -28
30 -47 49 -43 41 5 -9 3 -12 -5 -7 -6 4 -18 23 -26 43 -8 19 -24 37 -35 40
-11 3 -17 9 -15 14 3 4 -13 35 -35 68 -74 109 -192 383 -240 561 -7 25 -23 79
-36 120 -22 71 -100 366 -110 413 -2 12 -6 55 -9 95 -2 40 -6 94 -10 120 -4
33 -2 41 4 27 9 -19 10 -18 10 5 0 14 -4 57 -9 95 -17 140 -22 225 -12 225 5
0 12 -17 16 -37 13 -76 45 -310 52 -375 3 -38 12 -73 20 -79 16 -13 19 -43 4
-34 -6 3 -10 -4 -10 -16 0 -22 0 -22 14 -3 17 22 15 25 39 -76 l15 -65 -5 54
c-4 39 -3 52 6 47 6 -4 11 -1 11 6 -1 17 -19 98 -26 118 -4 8 -8 26 -9 40 -1
14 -9 90 -18 170 -23 215 -40 493 -33 518 30 92 264 -86 730 -553 175 -176
350 -357 388 -403 40 -47 74 -79 80 -76 6 4 8 2 5 -4 -4 -5 11 -30 34 -54 22
-23 38 -35 35 -25 -3 11 -2 16 5 12 5 -4 7 -15 4 -24 -3 -11 5 -27 25 -44 16
-15 30 -32 30 -38 0 -5 4 -7 10 -4 5 3 7 0 5 -8 -3 -7 6 -26 20 -41 14 -15 33
-39 41 -52 9 -13 21 -21 27 -17 8 5 7 8 -1 11 -7 2 -12 8 -12 13 0 6 -12 21
-27 35 -17 14 -21 22 -10 18 28 -10 20 4 -40 69 l-58 61 60 -47 c33 -25 82
-66 109 -92 27 -25 50 -44 52 -42 7 7 -74 102 -85 99 -6 -1 -11 5 -11 14 0 9
-5 12 -12 8 -7 -5 -9 -2 -5 8 3 10 -6 26 -26 44 -28 25 -29 26 -12 4 11 -14
25 -28 30 -32 7 -5 6 -8 -1 -8 -13 0 -116 103 -124 124 -8 21 -250 268 -244
248 5 -14 4 -14 -4 -2 -6 8 -8 18 -6 22 5 8 -189 205 -237 241 l-24 18 26 -16
c14 -8 29 -12 32 -8 4 3 7 1 7 -4 0 -12 98 -88 105 -82 6 7 -28 42 -80 84 -28
22 -96 83 -152 136 -56 52 -121 108 -145 124 -59 40 -255 205 -298 251 l-35
38 33 -25 c18 -13 47 -35 65 -50 18 -14 64 -47 102 -74 39 -27 77 -57 86 -67
24 -26 149 -110 149 -99 0 5 -46 42 -102 82 -149 105 -220 160 -214 166 6 6
70 -29 319 -177 96 -57 315 -222 490 -368 48 -40 87 -70 87 -66 0 11 -59 66
-151 139 -46 37 -92 76 -102 86 -10 11 -22 19 -26 19 -5 0 -22 14 -39 31 -16
17 -37 32 -47 33 -9 1 -20 7 -23 13 -11 17 -340 226 -436 277 -105 56 -185
107 -212 137 -10 12 -14 20 -9 18 34 -13 671 -332 675 -338 19 -25 292 -194
307 -189 4 2 10 -2 12 -7 6 -14 37 -36 96 -70 78 -44 174 -108 239 -159 33
-25 66 -46 73 -46 8 0 12 -4 9 -9 -8 -12 28 -43 45 -39 8 2 13 -2 12 -9 -2 -6
15 -26 37 -43 22 -18 40 -26 40 -19 0 8 7 5 19 -7 10 -10 16 -23 13 -28 -3 -5
0 -6 6 -2 6 3 14 0 19 -7 10 -18 152 -127 164 -127 6 0 21 -12 36 -26 14 -14
31 -23 39 -20 7 3 24 -8 38 -24 14 -17 28 -30 32 -30 4 0 -27 36 -70 80 -43
43 -75 84 -71 90 10 17 -4 67 -20 67 -12 0 -12 -5 0 -34 8 -18 10 -33 5 -33
-9 0 -166 135 -234 201 -22 21 -43 36 -48 33 -5 -3 9 -23 32 -45 22 -21 37
-39 32 -39 -14 0 -94 54 -157 106 -33 28 -67 53 -75 57 -31 14 -104 73 -108
87 -2 11 -1 12 5 3 9 -12 129 -93 138 -93 3 0 28 -16 55 -35 65 -46 70 -44 16
5 -24 22 -49 40 -56 40 -12 0 -70 37 -80 51 -11 16 -139 76 -142 67 -5 -13
-55 10 -62 28 -4 10 1 11 19 4 38 -14 30 -4 -16 19 -22 12 -45 18 -51 15 -6
-4 -8 -2 -4 4 9 15 -13 27 -27 13 -13 -13 -31 -15 -23 -2 3 5 -10 16 -29 25
-23 11 -32 21 -28 32 3 8 2 14 -3 13 -16 -2 -54 13 -54 22 0 5 -5 9 -11 9 -5
0 -7 -4 -4 -10 3 -5 2 -10 -3 -10 -16 0 -22 13 -11 27 9 10 7 13 -6 13 -10 0
-23 7 -29 15 -18 23 -733 378 -836 415 -74 26 -114 34 -182 37 -84 3 -88 2
-93 -20z m1091 -435 c-4 -3 -14 2 -24 12 -16 18 -16 18 6 6 13 -6 21 -14 18
-18z m-63 -374 c39 -38 65 -68 59 -68 -6 0 -35 25 -63 55 -29 29 -55 53 -58
52 -9 -3 -221 212 -221 224 0 5 48 -37 106 -94 59 -56 138 -132 177 -169z
m-193 212 c0 -5 -2 -10 -4 -10 -3 0 -8 5 -11 10 -3 6 -1 10 4 10 6 0 11 -4 11
-10z m-650 -290 c0 -5 -4 -10 -10 -10 -5 0 -10 5 -10 10 0 6 5 10 10 10 6 0
10 -4 10 -10z m1574 -6 c3 -8 2 -12 -4 -9 -6 3 -10 10 -10 16 0 14 7 11 14 -7z
m-630 -21 c10 -25 3 -23 -17 3 -13 18 -14 22 -3 18 8 -3 17 -13 20 -21z m-925
-20 c0 -11 -3 -13 -6 -5 -2 6 -9 10 -14 6 -5 -3 -9 0 -9 5 0 6 7 11 15 11 8 0
15 -8 14 -17z m1024 -84 l22 -21 -22 11 c-12 6 -25 16 -28 21 -11 17 5 11 28
-11z m-848 -964 c28 -60 71 -139 93 -174 23 -35 42 -68 42 -73 0 -23 -24 -1
-68 66 -28 41 -53 72 -57 68 -3 -3 -3 2 1 12 6 15 4 17 -6 11 -8 -5 -11 -4 -7
2 4 6 -11 53 -32 104 -21 52 -42 110 -45 129 l-7 35 17 -35 c9 -19 40 -84 69
-145z m196 -452 c13 -16 12 -17 -3 -4 -10 7 -18 15 -18 17 0 8 8 3 21 -13z
m114 -54 c17 -26 -9 -20 -38 10 l-32 33 32 -16 c17 -9 35 -21 38 -27z"/>
<path d="M2221 8814 c1 -27 5 -74 9 -104 6 -40 7 -27 3 45 -6 104 -14 144 -12
59z"/>
<path d="M2475 8713 c17 -14 55 -48 85 -75 l55 -50 -47 4 c-27 2 -48 0 -48 -4
0 -4 53 -50 118 -102 128 -103 189 -162 179 -172 -4 -4 -18 -2 -32 4 -14 7
-31 12 -37 12 -13 0 98 -89 141 -112 17 -9 31 -22 31 -29 0 -16 -49 -2 -85 25
-47 36 -86 45 -52 12 24 -23 76 -56 84 -54 4 2 9 -1 10 -5 1 -5 32 -40 68 -79
37 -38 64 -72 62 -75 -3 -2 -23 5 -46 16 -86 44 -62 15 44 -54 82 -53 102 -71
91 -82 -5 -5 -48 22 -170 107 -11 8 -34 27 -51 42 -16 15 -32 25 -35 22 -6 -6
69 -75 129 -118 22 -16 38 -33 36 -37 -3 -4 10 -16 27 -27 18 -12 47 -35 63
-52 l30 -31 -28 10 c-15 6 -55 29 -87 51 -33 23 -60 36 -60 31 0 -6 15 -18 33
-27 46 -24 87 -56 87 -68 1 -6 23 -28 51 -50 79 -61 53 -59 -56 4 l-40 23 35
-30 c19 -17 37 -30 40 -28 3 1 28 -20 55 -46 l50 -49 -37 0 c-21 0 -38 -3 -38
-6 0 -4 24 -35 54 -70 39 -46 53 -69 49 -84 -4 -14 0 -20 11 -20 9 0 31 -7 48
-16 20 -10 28 -11 22 -3 -5 9 -2 10 10 6 12 -5 8 6 -14 33 -17 22 -36 37 -41
34 -5 -3 -8 -1 -7 4 2 5 -9 21 -24 35 -16 14 -28 31 -28 37 0 14 61 -12 103
-44 20 -16 42 -24 55 -21 13 2 20 0 17 -5 -3 -5 -1 -11 5 -15 6 -4 8 -11 5
-16 -4 -5 2 -9 13 -9 22 0 55 -33 45 -45 -5 -4 -3 -5 3 -2 7 4 37 -19 68 -50
31 -31 59 -53 63 -50 8 8 63 -52 63 -69 0 -16 65 -64 87 -64 44 1 46 15 13 81
-97 194 -317 514 -467 681 -225 250 -562 587 -687 688 -43 35 -90 74 -104 87
-14 13 -30 23 -36 23 -6 0 3 -12 19 -27z m435 -553 c0 -5 -5 -10 -11 -10 -5 0
-7 5 -4 10 3 6 8 10 11 10 2 0 4 -4 4 -10z m260 -370 c13 -8 13 -10 -2 -10 -9
0 -20 5 -23 10 -8 13 5 13 25 0z m53 -187 c3 -5 -6 -8 -19 -8 -13 0 -24 3 -24
8 0 4 9 7 19 7 11 0 22 -3 24 -7z m365 -261 c6 -18 -15 -14 -22 4 -4 10 -1 14
6 12 6 -2 14 -10 16 -16z"/>
<path d="M6673 8493 c-7 -2 -13 -9 -13 -15 0 -5 -10 -19 -22 -30 -13 -11 -17
-17 -10 -13 6 3 12 1 12 -6 0 -8 4 -8 15 1 8 7 15 22 15 34 0 17 2 18 10 6 7
-12 9 -10 7 8 0 12 -1 22 -2 21 0 0 -6 -3 -12 -6z"/>
<path d="M6951 8438 c-19 -21 -32 -40 -30 -43 2 -2 19 14 38 36 43 52 37 58
-8 7z"/>
<path d="M3100 8406 c0 -2 7 -7 16 -10 8 -3 12 -2 9 4 -6 10 -25 14 -25 6z"/>
<path d="M6580 8386 c0 -2 7 -9 15 -16 9 -7 15 -8 15 -2 0 5 -7 12 -15 16 -8
3 -15 4 -15 2z"/>
<path d="M3141 8377 c2 -1 15 -11 29 -22 l25 -20 -19 23 c-11 12 -24 22 -29
22 -6 0 -8 -1 -6 -3z"/>
<path d="M7703 8305 c0 -22 2 -30 4 -17 2 12 2 30 0 40 -3 9 -5 -1 -4 -23z"/>
<path d="M6552 8310 c-7 -11 -16 -19 -21 -17 -9 2 -61 -67 -61 -82 0 -5 -7
-14 -15 -21 -8 -7 -12 -16 -9 -21 3 -5 0 -9 -5 -9 -6 0 -11 -4 -11 -10 0 -21
30 -9 36 15 3 14 10 25 14 25 4 0 28 32 54 70 25 39 43 70 38 70 -4 0 -13 -9
-20 -20z"/>
<path d="M3246 8294 c16 -14 38 -30 49 -35 11 -6 2 6 -20 25 -22 20 -44 36
-49 36 -5 0 4 -11 20 -26z"/>
<path d="M7163 8215 c-17 -19 -32 -32 -35 -30 -3 3 -13 -4 -22 -14 -17 -19
-17 -19 2 -14 22 5 98 80 90 88 -3 3 -19 -10 -35 -30z"/>
<path d="M7782 8215 c0 -16 2 -22 5 -12 2 9 2 23 0 30 -3 6 -5 -1 -5 -18z"/>
<path d="M3475 8093 c77 -76 156 -158 175 -181 32 -39 91 -89 76 -63 -4 6 -1
11 6 11 7 1 4 6 -8 13 -11 7 -70 63 -130 126 -60 62 -143 140 -184 173 -64 52
-55 41 65 -79z"/>
<path d="M3532 8205 c9 -10 21 -16 28 -13 7 2 -1 10 -16 17 -27 12 -28 11 -12
-4z"/>
<path d="M6306 8170 c-14 -22 -24 -40 -22 -40 9 0 59 70 54 75 -3 3 -17 -13
-32 -35z"/>
<path d="M6274 8178 c-11 -13 -26 -32 -34 -43 -14 -19 -14 -19 5 -5 28 21 55
51 55 62 0 13 -5 10 -26 -14z"/>
<path d="M3576 8168 c4 -5 9 -7 12 -4 3 3 15 -2 26 -11 21 -18 21 -18 3 3 -16
20 -52 30 -41 12z"/>
<path d="M7772 8155 c0 -16 2 -22 5 -12 2 9 2 23 0 30 -3 6 -5 -1 -5 -18z"/>
<path d="M3360 8117 c0 -9 37 -45 62 -61 25 -16 26 -16 24 0 -3 19 -54 64 -73
64 -7 0 -13 -2 -13 -3z m70 -42 c11 -13 10 -14 -4 -9 -9 3 -16 10 -16 15 0 13
6 11 20 -6z"/>
<path d="M6240 8101 c-13 -11 -28 -17 -32 -15 -4 3 -5 -1 -2 -9 3 -9 -6 -23
-23 -36 -56 -42 -59 -45 -40 -49 16 -3 34 12 82 70 54 64 56 70 15 39z"/>
<path d="M7670 8095 c0 -14 4 -25 10 -25 5 0 9 11 8 25 -1 14 -6 25 -10 25 -4
0 -8 -11 -8 -25z"/>
<path d="M2362 8090 c0 -14 2 -19 5 -12 2 6 2 18 0 25 -3 6 -5 1 -5 -13z"/>
<path d="M6375 8057 c-16 -28 -29 -58 -29 -64 1 -7 -2 -11 -6 -8 -4 3 -13 -9
-19 -26 -15 -45 7 -33 41 22 63 102 74 129 49 129 -3 0 -19 -24 -36 -53z"/>
<path d="M3720 8066 c0 -2 8 -10 18 -17 15 -13 16 -12 3 4 -13 16 -21 21 -21
13z"/>
<path d="M3686 8052 c-3 -5 8 -22 24 -37 16 -15 27 -32 24 -37 -5 -7 10 -12
29 -9 4 0 7 -4 7 -10 0 -13 25 -39 37 -39 5 0 19 -11 31 -25 12 -14 27 -25 33
-25 5 0 7 -5 3 -12 -4 -6 -3 -8 4 -4 6 3 18 -4 26 -16 9 -12 18 -19 21 -16 3
3 -32 39 -78 81 -47 42 -87 74 -91 70 -3 -3 -6 0 -6 8 0 9 -14 25 -30 38 -17
12 -28 26 -25 32 4 5 4 9 1 9 -3 0 -7 -4 -10 -8z"/>
<path d="M7665 8048 c-4 -10 -4 -26 0 -35 8 -17 8 -17 12 0 3 9 3 25 0 35 -4
16 -4 16 -12 0z"/>
<path d="M3474 8008 c-4 -7 -4 -10 0 -6 4 3 22 -7 39 -22 74 -66 148 -120 138
-102 -12 22 -131 128 -131 116 0 -4 -9 1 -19 10 -15 14 -21 15 -27 4z"/>
<path d="M3823 7975 c0 -8 3 -13 6 -12 3 0 23 -16 44 -36 21 -21 42 -35 47
-32 5 3 22 -12 39 -33 17 -20 45 -46 63 -55 25 -14 19 -5 -27 38 -88 83 -172
146 -172 130z"/>
<path d="M7655 7952 c-3 -21 -5 -45 -3 -53 2 -8 -3 -13 -11 -11 -9 2 -11 -3
-7 -13 3 -9 6 -23 6 -31 0 -8 4 -14 9 -14 9 0 22 65 26 128 3 45 -12 40 -20
-6z"/>
<path d="M7732 7915 c0 -16 2 -22 5 -12 2 9 2 23 0 30 -3 6 -5 -1 -5 -18z"/>
<path d="M4382 7922 c-7 -2 -12 -8 -12 -14 0 -6 7 -7 16 -4 10 4 13 2 8 -6 -5
-7 -2 -9 8 -5 9 3 26 -1 37 -10 12 -8 24 -13 27 -11 7 8 -71 55 -84 50z"/>
<path d="M2437 7913 c-3 -5 -4 -22 -1 -38 3 -17 6 -46 8 -65 11 -103 30 -199
37 -194 5 3 6 -1 3 -9 -2 -7 0 -31 5 -53 6 -21 16 -60 22 -86 7 -27 17 -48 22
-48 5 0 6 7 3 16 -3 9 -9 37 -12 62 -5 45 -12 79 -55 287 -5 28 -13 68 -16 90
-6 44 -8 50 -16 38z"/>
<path d="M4320 7899 c0 -19 2 -20 17 -8 15 12 16 12 8 -1 -6 -12 -6 -13 6 -2
12 11 12 14 -1 22 -23 15 -30 12 -30 -11z"/>
<path d="M4728 7903 c6 -2 10 -9 6 -14 -3 -5 0 -9 5 -9 6 0 11 7 11 15 0 8 -8
15 -17 14 -11 0 -13 -3 -5 -6z"/>
<path d="M4655 7881 c-3 -5 0 -13 6 -17 8 -4 9 -3 5 4 -4 7 -2 12 3 12 6 0 11
-4 11 -10 0 -5 4 -10 10 -10 5 0 7 7 4 15 -7 17 -30 20 -39 6z"/>
<path d="M2496 7853 c10 -40 14 -41 14 -5 0 18 -5 32 -10 32 -6 0 -8 -11 -4
-27z"/>
<path d="M6292 7873 c-17 -7 -55 -83 -42 -83 6 0 16 14 21 30 6 17 15 30 19
30 4 0 10 7 14 15 3 8 4 15 3 14 -1 0 -8 -3 -15 -6z"/>
<path d="M7721 7864 c0 -11 3 -14 6 -6 3 7 2 16 -1 19 -3 4 -6 -2 -5 -13z"/>
<path d="M4460 7834 c19 -22 45 -54 58 -70 18 -22 22 -24 19 -9 -3 11 -8 28
-12 38 -6 14 -2 17 19 17 14 0 34 8 44 18 10 10 27 22 37 25 10 4 16 10 13 12
-3 3 -25 -4 -49 -15 -53 -24 -73 -25 -89 -5 -7 9 -20 13 -28 10 -8 -3 -22 0
-31 7 -9 7 0 -5 19 -28z"/>
<path d="M5969 7806 c-30 -36 -60 -63 -67 -61 -7 3 -10 0 -7 -5 3 -6 2 -10 -3
-10 -8 0 -52 -79 -52 -94 0 -16 30 -4 40 17 11 22 11 22 -6 2 -15 -18 -16 -18
-10 -2 3 10 6 22 6 27 0 4 11 11 25 14 14 4 23 11 20 16 -3 6 0 10 7 10 7 0
20 15 28 33 8 17 22 32 30 32 8 0 15 5 15 12 0 7 7 21 16 31 24 28 31 42 21
42 -6 0 -34 -29 -63 -64z"/>
<path d="M3740 7842 c0 -5 21 -23 48 -41 l47 -33 -42 41 c-42 41 -53 48 -53
33z"/>
<path d="M7705 7819 c-4 -12 -3 -25 2 -30 5 -5 10 4 11 21 3 35 -4 39 -13 9z"/>
<path d="M3725 7820 c-3 -5 -2 -10 3 -10 6 0 15 -13 21 -30 5 -16 16 -30 23
-30 8 0 31 -18 53 -40 21 -22 41 -37 44 -35 8 9 51 -37 44 -48 -4 -6 -1 -7 7
-2 10 6 -1 21 -41 58 -30 27 -75 72 -101 99 -26 27 -49 44 -53 38z"/>
<path d="M3944 7804 c1 -13 282 -274 294 -274 4 1 -56 61 -132 135 -77 74
-143 132 -147 129 -4 -2 -9 1 -12 8 -2 7 -3 8 -3 2z"/>
<path d="M7632 7787 c0 -17 -7 -57 -15 -87 -16 -56 -32 -168 -24 -160 6 6 57
244 57 265 0 8 -4 15 -9 15 -5 0 -9 -15 -9 -33z"/>
<path d="M2506 7802 c-6 -10 6 -73 21 -112 9 -21 13 -40 20 -82 3 -21 10 -38
15 -38 6 0 8 10 5 23 -2 12 -12 57 -21 100 -21 99 -31 124 -40 109z"/>
<path d="M7047 7762 c-11 -11 -13 -22 -7 -32 7 -11 11 -8 20 14 13 35 8 42
-13 18z"/>
<path d="M5786 7754 c-4 -9 -4 -19 -1 -22 2 -3 7 3 11 12 4 9 4 19 1 22 -2 3
-7 -3 -11 -12z"/>
<path d="M7695 7740 c-4 -17 -5 -34 -2 -36 3 -3 8 9 12 26 4 17 5 34 2 36 -3
3 -8 -9 -12 -26z"/>
<path d="M6539 7753 c-1 -5 -1 -11 0 -15 0 -5 -3 -8 -7 -8 -5 0 -14 -11 -20
-25 -16 -35 -15 -44 1 -20 40 58 48 75 38 75 -6 0 -12 -3 -12 -7z"/>
<path d="M6195 7688 c-14 -32 -24 -62 -21 -67 4 -5 2 -12 -3 -16 -6 -3 -8 -12
-5 -19 3 -8 1 -17 -5 -21 -14 -8 -14 -45 0 -45 6 0 9 7 5 15 -3 8 -1 15 4 15
5 0 12 20 16 45 3 25 10 48 15 50 4 3 6 12 2 21 -3 8 2 23 12 34 9 10 15 25
12 32 -3 7 -17 -13 -32 -44z"/>
<path d="M3800 7699 c12 -16 24 -28 27 -25 6 6 -29 55 -40 56 -5 0 1 -14 13
-31z"/>
<path d="M6985 7683 c-19 -27 -35 -51 -35 -55 0 -8 24 -4 60 10 14 5 28 10 33
10 31 2 66 16 71 28 5 13 0 14 -27 9 -17 -4 -45 -13 -61 -21 -36 -17 -45 -18
-24 -1 13 10 32 67 22 67 -2 0 -19 -21 -39 -47z"/>
<path d="M7591 7704 c0 -11 3 -14 6 -6 3 7 2 16 -1 19 -3 4 -6 -2 -5 -13z"/>
<path d="M3940 7680 c0 -6 7 -10 15 -10 8 0 15 2 15 4 0 2 -7 6 -15 10 -8 3
-15 1 -15 -4z"/>
<path d="M7681 7658 c0 -28 2 -30 9 -13 12 28 12 45 0 45 -5 0 -10 -15 -9 -32z"/>
<path d="M7115 7660 c-17 -18 -17 -20 -1 -20 9 0 19 7 23 15 9 25 -2 27 -22 5z"/>
<path d="M7582 7640 c0 -14 2 -19 5 -12 2 6 2 18 0 25 -3 6 -5 1 -5 -13z"/>
<path d="M6463 7638 c-6 -7 -16 -23 -22 -35 -9 -18 -9 -22 2 -17 16 6 43 51
35 59 -3 3 -10 0 -15 -7z"/>
<path d="M7095 7609 c-4 -6 -5 -12 -2 -15 2 -3 7 2 10 11 7 17 1 20 -8 4z"/>
<path d="M7571 7594 c0 -11 3 -14 6 -6 3 7 2 16 -1 19 -3 4 -6 -2 -5 -13z"/>
<path d="M7671 7584 c0 -11 3 -14 6 -6 3 7 2 16 -1 19 -3 4 -6 -2 -5 -13z"/>
<path d="M7060 7546 c0 -14 -4 -27 -9 -31 -7 -4 -12 -45 -6 -45 0 0 20 20 44
44 34 34 39 44 23 39 -12 -3 -22 -9 -22 -14 0 -5 -4 -9 -10 -9 -5 0 -7 6 -4
14 3 8 1 17 -5 21 -7 4 -11 -4 -11 -19z"/>
<path d="M7562 7550 c0 -14 2 -19 5 -12 2 6 2 18 0 25 -3 6 -5 1 -5 -13z"/>
<path d="M2573 7509 c6 -31 13 -47 19 -41 10 10 -10 92 -22 92 -4 0 -3 -23 3
-51z"/>
<path d="M7662 7540 c0 -14 2 -19 5 -12 2 6 2 18 0 25 -3 6 -5 1 -5 -13z"/>
<path d="M3900 7544 c0 -3 5 -15 11 -26 8 -15 8 -19 0 -14 -28 18 -6 -15 39
-58 28 -26 50 -44 50 -39 -1 10 -30 50 -30 40 0 -4 -9 1 -20 10 -12 10 -15 20
-9 23 6 4 3 18 -8 38 -16 28 -33 42 -33 26z"/>
<path d="M4023 7534 c9 -11 15 -23 12 -26 -3 -3 3 -11 12 -19 16 -12 17 -12 6
2 -7 9 -11 18 -8 21 3 3 -5 13 -17 24 -23 19 -23 19 -5 -2z"/>
<path d="M4140 7522 c0 -10 22 -32 32 -32 12 0 -2 28 -18 34 -8 3 -14 2 -14
-2z"/>
<path d="M7575 7508 c-7 -22 -7 -22 -12 -3 -4 15 -10 5 -24 -35 -10 -30 -18
-61 -18 -69 -1 -23 13 -2 25 37 10 32 12 33 14 12 1 -19 5 -13 16 24 9 26 13
50 11 52 -3 3 -8 -6 -12 -18z"/>
<path d="M3080 7502 c0 -3 20 -30 45 -60 25 -30 43 -58 39 -61 -3 -3 -10 2
-15 12 -6 11 -22 17 -42 17 -32 0 -32 -1 18 -28 33 -18 50 -34 50 -46 0 -11 6
-21 14 -24 8 -3 11 0 7 7 -5 7 1 11 13 11 12 0 21 3 21 6 0 3 -25 35 -55 70
-30 36 -55 71 -55 77 0 8 4 7 9 -2 5 -8 28 -20 51 -27 23 -7 39 -10 36 -7 -3
4 -1 12 5 19 8 10 5 15 -13 19 -44 11 -128 22 -128 17z"/>
<path d="M6386 7483 c-6 -14 -5 -15 5 -6 7 7 10 15 7 18 -3 3 -9 -2 -12 -12z"/>
<path d="M7644 7446 c-3 -21 -4 -39 -1 -42 2 -3 8 11 11 32 4 20 5 38 2 41 -2
3 -8 -11 -12 -31z"/>
<path d="M2600 7445 c0 -8 4 -15 10 -15 5 0 7 7 4 15 -4 8 -8 15 -10 15 -2 0
-4 -7 -4 -15z"/>
<path d="M7000 7450 c0 -5 5 -10 10 -10 6 0 10 5 10 10 0 6 -4 10 -10 10 -5 0
-10 -4 -10 -10z"/>
<path d="M7070 7439 c0 -5 -5 -7 -10 -4 -6 4 -17 1 -25 -5 -8 -6 -24 -10 -37
-9 -26 4 -48 -7 -48 -23 0 -6 10 -7 28 -3 15 4 44 11 65 15 31 6 35 5 26 -6
-6 -8 -15 -14 -20 -14 -9 0 -44 -27 -91 -73 -16 -15 -33 -25 -38 -22 -10 6
-95 -39 -105 -55 -3 -5 -1 -12 5 -15 6 -4 9 -1 8 6 -2 6 3 14 11 17 8 3 11 0
7 -6 -4 -7 6 -6 26 2 18 8 35 22 37 32 2 12 5 13 11 5 4 -7 39 -14 86 -17 54
-3 73 -1 59 5 -11 5 -36 10 -55 11 -19 1 -29 4 -22 7 6 2 9 9 6 15 -3 5 19 32
50 60 72 64 83 83 50 86 -13 1 -24 -3 -24 -9z"/>
<path d="M3960 7405 c13 -14 26 -25 28 -25 3 0 -5 11 -18 25 -13 14 -26 25
-28 25 -3 0 5 -11 18 -25z"/>
<path d="M2540 7394 c0 -13 54 -171 70 -206 7 -15 17 -25 21 -22 5 3 9 -8 9
-25 0 -16 3 -31 8 -33 4 -1 22 -34 41 -73 19 -38 49 -95 67 -126 29 -48 37
-56 57 -52 17 3 26 -1 31 -13 10 -25 -2 -30 -20 -8 -14 18 -14 17 -3 -6 7 -14
14 -30 15 -36 4 -22 36 -64 45 -58 8 5 13 -9 10 -28 0 -5 4 -8 10 -8 5 0 8 -4
5 -8 -2 -4 5 -19 16 -32 11 -14 16 -18 12 -10 -4 8 -3 11 1 7 5 -4 10 -13 11
-21 1 -7 18 -35 38 -63 20 -28 36 -55 36 -60 0 -5 14 -17 30 -26 41 -25 38
-14 -11 34 -23 22 -38 43 -35 47 4 3 17 -7 30 -23 15 -19 27 -26 36 -20 8 5
11 4 6 -3 -7 -11 31 -28 41 -18 4 3 2 6 -3 6 -11 0 -85 69 -124 115 -22 26
-22 28 -2 11 12 -11 22 -15 22 -10 -1 12 -58 74 -69 74 -9 0 -45 49 -47 65 -1
6 -2 14 -3 19 0 6 -8 1 -16 -10 -11 -15 -14 -16 -15 -3 0 8 5 20 12 27 9 9 9
12 0 12 -7 0 -12 10 -12 23 0 27 -17 47 -35 41 -8 -3 -23 12 -37 35 -14 23
-28 38 -31 34 -4 -3 -7 1 -7 11 0 10 -5 14 -11 10 -8 -4 -9 0 -4 15 4 14 1 23
-9 27 -9 3 -13 10 -10 15 3 5 -2 12 -11 15 -9 4 -14 12 -11 19 3 8 -2 16 -10
19 -8 3 -14 15 -14 27 0 12 -18 54 -39 94 -22 39 -46 97 -55 129 -13 53 -36
96 -36 70z"/>
<path d="M3880 7392 c0 -7 -5 -10 -11 -7 -6 4 -5 -2 2 -13 7 -12 16 -19 20
-16 4 2 15 -6 24 -18 l17 -23 -7 25 c-8 29 -45 71 -45 52z"/>
<path d="M7528 7379 c-10 -5 -18 -19 -18 -29 0 -11 -4 -20 -10 -20 -5 0 -10
-7 -10 -16 0 -23 -143 -304 -185 -364 -20 -29 -31 -50 -23 -48 7 2 28 29 46
59 18 30 37 56 43 57 16 6 -22 -67 -89 -171 -35 -54 -62 -101 -59 -103 6 -7
84 95 130 171 45 74 136 284 167 385 12 41 25 78 27 83 5 9 2 9 -19 -4z"/>
<path d="M2620 7373 c0 -14 42 -114 46 -110 5 5 -27 100 -37 112 -6 5 -9 5 -9
-2z"/>
<path d="M7621 7344 c-38 -148 -40 -159 -26 -140 16 21 50 164 42 173 -3 3
-10 -12 -16 -33z"/>
<path d="M3120 7280 c-12 -16 -18 -30 -13 -31 4 0 16 -2 26 -4 9 -2 17 1 17 6
0 5 -4 9 -10 9 -5 0 -10 8 -10 18 0 13 2 14 9 3 10 -15 31 -7 31 12 0 7 -4 6
-10 -3 -9 -13 -14 -7 -11 13 2 14 -8 6 -29 -23z"/>
<path d="M6997 7212 c-43 -44 -45 -52 -14 -52 12 0 28 -9 35 -20 l12 -20 23
20 c12 12 21 24 19 28 -2 3 5 9 15 13 12 5 4 8 -24 8 -47 1 -55 11 -22 26 24
11 27 28 7 33 -7 1 -30 -15 -51 -36z"/>
<path d="M2682 7205 c6 -14 13 -24 14 -22 6 6 -9 47 -17 47 -5 0 -3 -11 3 -25z"/>
<path d="M3190 7190 c25 -21 47 -36 50 -33 3 3 -1 8 -8 10 -6 3 -10 9 -7 13 6
10 -39 43 -64 47 -9 1 4 -16 29 -37z"/>
<path d="M3335 7190 c-4 -6 6 -13 25 -16 17 -4 33 -11 36 -15 7 -12 51 -12 58
0 9 14 -16 28 -66 35 -29 4 -49 3 -53 -4z"/>
<path d="M3250 7152 c0 -7 -16 -9 -49 -5 -50 6 -79 -10 -41 -22 11 -4 18 -11
14 -16 -8 -13 36 -80 48 -73 6 4 6 9 2 13 -5 3 -15 17 -22 30 l-13 23 52 -7
c34 -5 49 -4 45 3 -3 6 -1 12 5 14 5 2 -1 14 -15 27 -14 14 -26 19 -26 13z"/>
<path d="M7000 7133 c5 -2 8 -9 4 -14 -3 -5 0 -9 6 -9 15 0 7 23 -8 26 -7 1
-8 0 -2 -3z"/>
<path d="M6965 7111 c-3 -5 -2 -12 3 -15 5 -3 9 1 9 9 0 17 -3 19 -12 6z"/>
<path d="M6940 7090 c0 -5 5 -10 11 -10 5 0 7 5 4 10 -3 6 -8 10 -11 10 -2 0
-4 -4 -4 -10z"/>
<path d="M2738 7075 c5 -11 12 -27 15 -35 5 -13 6 -13 6 1 1 8 -6 24 -15 35
-15 19 -15 19 -6 -1z"/>
<path d="M2770 7001 c0 -6 5 -13 10 -16 6 -3 10 -14 10 -23 0 -15 39 -75 40
-61 0 3 -11 29 -25 57 -24 50 -35 63 -35 43z"/>
<path d="M3225 6996 c-22 -7 -55 -21 -74 -30 l-34 -18 24 -19 c13 -10 31 -19
39 -20 54 -5 73 -9 87 -21 13 -10 17 -10 20 0 3 6 12 12 21 13 10 0 -1 7 -23
15 -22 8 -54 12 -71 9 -49 -9 -87 14 -49 29 8 3 14 0 12 -6 -1 -5 6 -12 16
-13 20 -4 22 6 5 24 -11 11 -9 12 9 6 13 -3 28 -3 35 2 7 4 19 8 25 8 7 0 13
3 13 8 0 32 3 31 -55 13z"/>
<path d="M3020 6604 c8 -8 23 -20 34 -26 19 -10 18 -8 -3 16 -26 27 -53 37
-31 10z"/>
<path d="M6260 6545 c-61 -18 -95 -36 -175 -95 -66 -49 -91 -85 -106 -158 -11
-53 -5 -143 9 -141 4 0 22 31 40 68 45 92 112 174 169 208 77 45 199 83 288
90 l80 7 -45 13 c-72 22 -197 25 -260 8z"/>
<path d="M7395 6463 c24 -51 52 -137 63 -198 2 -16 8 -32 11 -35 16 -13 40
-82 34 -97 -3 -10 -3 -15 2 -11 4 4 16 3 26 -3 17 -9 17 -5 -4 53 -15 39 -28
62 -36 60 -10 -2 -12 5 -7 28 3 17 2 29 -3 25 -5 -3 -12 14 -16 37 -8 49 -45
131 -76 168 -17 21 -16 16 6 -27z"/>
<path d="M3905 6464 c-42 -7 -187 -55 -182 -61 3 -2 27 0 55 5 98 18 261 -18
358 -79 60 -38 89 -69 160 -176 31 -46 60 -83 65 -83 18 0 -2 123 -28 177 -49
104 -210 209 -333 217 -36 2 -78 2 -95 0z"/>
<path d="M2901 6108 c0 -9 -4 -25 -7 -35 -5 -14 -4 -15 5 -7 7 7 11 22 8 35
-2 13 -5 16 -6 7z"/>
<path d="M6717 6114 c-3 -4 -75 -10 -159 -15 -166 -9 -219 -22 -331 -81 -72
-39 -224 -183 -254 -243 -11 -22 -34 -68 -52 -102 -42 -81 -133 -353 -177
-528 -20 -77 -40 -145 -45 -152 -15 -18 -24 -464 -11 -547 24 -150 59 -103 87
117 7 55 23 60 48 17 10 -17 52 -64 93 -105 41 -42 74 -80 74 -87 0 -6 -9 -26
-21 -44 -21 -35 -12 -45 20 -25 10 7 19 4 27 -7 10 -13 7 -27 -18 -75 -16 -33
-28 -61 -25 -63 2 -2 14 7 27 21 34 36 43 31 35 -17 -18 -107 -86 -238 -211
-408 -112 -153 -228 -241 -410 -313 -77 -30 -96 -34 -139 -28 -54 8 -170 48
-235 81 -21 11 -44 20 -50 20 -6 0 -16 5 -23 10 -7 6 -47 33 -90 61 -87 57
-239 196 -293 270 -20 27 -49 73 -65 102 -48 87 -32 23 20 -81 79 -157 248
-354 346 -404 17 -9 77 -30 135 -48 58 -18 128 -41 157 -52 67 -26 170 -27
243 -3 30 10 109 44 175 75 111 52 125 62 187 132 113 125 205 314 254 517 23
96 28 107 67 143 l42 39 -39 -16 c-22 -8 -41 -13 -43 -11 -3 3 10 26 29 51 78
111 118 170 118 179 0 13 -64 -49 -111 -107 -38 -48 -39 -48 -39 -20 0 32 71
159 135 243 64 82 166 174 255 227 72 43 95 63 72 63 -11 0 -176 -114 -219
-151 -17 -15 -29 -30 -26 -33 4 -3 0 -6 -8 -6 -34 0 -267 -270 -252 -293 4 -6
1 -7 -6 -2 -7 4 -21 27 -32 52 -11 25 -38 72 -61 105 -38 54 -41 61 -25 70 17
9 16 12 -7 43 -31 40 -31 41 -6 48 24 6 27 42 3 55 -10 6 -14 16 -10 26 4 9 2
16 -3 16 -13 0 -2 29 26 67 28 37 29 43 9 43 -22 0 -19 7 21 56 34 41 34 62 0
28 -14 -13 -16 -13 -16 0 0 15 34 52 111 120 47 42 169 102 264 130 189 55
332 148 415 269 52 77 125 265 121 314 -2 28 3 35 54 67 59 38 64 56 14 56
-16 0 -29 4 -29 8 0 5 27 30 60 58 99 81 88 89 -71 54 -93 -21 -112 -20 -102
5 5 15 -17 21 -30 9z m-74 -126 c96 -14 102 -22 94 -127 -12 -149 -64 -263
-179 -386 -31 -33 -59 -58 -62 -55 -3 3 2 28 10 55 21 68 14 201 -16 278 -27
71 -84 144 -138 177 -60 37 -59 39 48 59 67 13 155 13 243 -1z m-319 -170 c26
-36 21 -105 -9 -132 -31 -28 -57 -24 -86 13 -23 29 -21 76 6 117 20 32 68 33
89 2z m94 -304 c6 -58 -67 -86 -82 -31 -4 16 1 28 20 45 35 30 58 25 62 -14z
m-394 -131 c15 -18 44 -42 64 -55 l37 -23 -40 -7 c-59 -10 -150 -12 -163 -4
-20 12 -11 141 15 226 3 9 16 -10 32 -45 15 -33 40 -74 55 -92z"/>
<path d="M7554 6060 c3 -14 6 -31 6 -37 0 -7 7 -13 15 -13 20 0 19 9 -6 45
-20 28 -21 29 -15 5z"/>
<path d="M2882 6010 c1 -22 5 -40 9 -40 5 0 7 18 6 40 -1 22 -5 40 -10 40 -4
0 -7 -18 -5 -40z"/>
<path d="M7556 5986 c3 -8 12 -12 19 -10 7 3 16 1 20 -5 3 -6 -1 -11 -9 -11
-22 0 -20 -5 13 -53 29 -41 121 -137 121 -125 0 18 -27 54 -38 50 -6 -2 -12 4
-12 12 0 9 -10 21 -22 25 -22 9 -22 9 -4 17 18 7 18 8 -2 15 -11 4 -26 18 -33
31 -12 23 -11 23 16 -2 l27 -25 -28 48 c-21 33 -35 47 -51 47 -15 0 -21 -5
-17 -14z"/>
<path d="M2882 5930 c0 -14 2 -19 5 -12 2 6 2 18 0 25 -3 6 -5 1 -5 -13z"/>
<path d="M3620 5921 l0 -24 -127 6 -126 7 39 -36 c21 -19 60 -49 87 -66 26
-17 47 -35 47 -40 0 -4 -18 -8 -40 -8 -22 0 -40 -3 -40 -7 0 -5 23 -18 50 -30
38 -17 51 -28 55 -50 17 -74 50 -164 82 -223 43 -77 154 -192 240 -247 60 -39
201 -90 313 -114 82 -17 208 -75 269 -122 55 -42 85 -82 43 -56 -12 7 -25 10
-29 5 -7 -7 12 -26 77 -79 12 -10 12 -12 -3 -15 -14 -3 -12 -11 15 -59 29 -52
30 -55 10 -49 -29 10 -28 -6 3 -42 30 -36 30 -37 5 -62 -26 -26 -25 -46 2 -53
20 -6 20 -8 6 -29 -17 -26 -59 -123 -93 -215 l-22 -63 -62 70 c-35 39 -67 70
-71 70 -5 0 -38 27 -72 61 -35 33 -83 72 -108 87 -25 14 -63 38 -85 52 -57 38
-195 92 -188 74 3 -8 13 -14 22 -14 26 0 187 -85 251 -133 61 -45 220 -211
220 -229 0 -6 -31 19 -69 55 -38 37 -73 67 -77 67 -5 0 1 -10 13 -22 94 -97
184 -211 181 -228 l-3 -20 -37 20 c-60 32 -65 23 -9 -17 47 -35 65 -63 41 -63
-5 0 -10 -10 -10 -22 0 -20 1 -20 19 -4 18 17 20 16 26 -3 7 -24 25 -28 25 -6
0 18 21 20 38 3 6 -6 15 -9 19 -5 3 4 -7 22 -24 40 -50 53 -51 93 -2 67 35
-19 35 -2 0 34 l-33 34 39 58 c96 145 143 219 143 226 0 4 6 8 13 8 8 0 26
-41 44 -102 37 -119 55 -150 75 -130 18 18 13 195 -12 392 -26 202 -29 217
-43 232 -7 7 -27 60 -46 118 -73 228 -187 481 -274 607 -69 102 -196 219 -275
254 -116 53 -172 62 -359 63 l-173 1 0 -24z m423 -92 c59 -12 71 -23 38 -34
-29 -9 -106 -97 -135 -153 -51 -101 -54 -258 -7 -363 11 -24 18 -45 16 -47 -7
-8 -100 66 -146 115 -54 58 -111 158 -133 232 -16 56 -22 197 -8 217 23 33
266 55 375 33z m142 -169 c25 -28 26 -101 1 -129 -45 -49 -111 -11 -111 64 0
74 66 113 110 65z m-104 -303 c22 -18 31 -47 18 -63 -14 -17 -51 -18 -67 -2
-13 13 -16 60 -5 71 10 11 36 8 54 -6z m437 -92 c29 -115 26 -118 -94 -116
-49 1 -90 3 -92 5 -2 2 19 25 46 50 31 29 59 68 73 101 13 30 28 53 34 52 5
-2 20 -44 33 -92z"/>
<path d="M2817 5792 c-15 -48 -30 -102 -33 -120 -4 -18 -11 -35 -15 -38 -5 -3
-9 -11 -9 -17 0 -18 56 46 65 74 8 23 8 23 15 4 9 -27 24 86 15 117 -5 19 -4
20 5 8 9 -12 10 -9 5 15 -11 53 -19 46 -48 -43z"/>
<path d="M7648 5793 c7 -3 16 -2 19 1 4 3 -2 6 -13 5 -11 0 -14 -3 -6 -6z"/>
<path d="M2810 5620 c0 -11 -4 -20 -9 -20 -5 0 -11 -7 -15 -15 -10 -27 13 -15
29 15 18 34 18 40 5 40 -5 0 -10 -9 -10 -20z"/>
<path d="M7735 5581 c51 -57 156 -140 171 -134 9 3 14 -2 14 -15 0 -11 7 -25
15 -32 23 -19 19 9 -5 40 -24 31 -25 41 -4 33 15 -5 15 -3 0 23 -26 47 -86
110 -86 90 0 -19 23 -46 39 -46 6 0 15 -9 20 -19 19 -35 -17 -34 -62 1 -22 18
-48 33 -56 33 -9 0 -15 7 -13 15 2 8 0 12 -4 7 -4 -4 -19 3 -33 15 -21 18 -20
16 4 -11z"/>
<path d="M2730 5510 c-6 -11 -7 -20 -2 -20 6 0 12 9 15 20 3 11 3 20 1 20 -2
0 -8 -9 -14 -20z"/>
<path d="M2681 5416 c-6 -14 -15 -26 -21 -26 -6 0 -8 -4 -5 -10 3 -5 1 -19 -5
-30 -7 -13 -7 -20 0 -20 5 0 10 5 10 10 0 6 5 10 10 10 19 0 10 -24 -22 -59
-18 -18 -27 -31 -20 -27 7 4 12 2 12 -5 0 -7 9 -3 20 9 11 12 20 26 20 32 0 5
7 10 15 10 8 0 15 5 15 10 0 21 2 26 27 59 23 29 23 32 5 22 -12 -6 -24 -16
-27 -21 -3 -6 -12 -10 -20 -10 -11 0 -12 6 -3 31 13 37 2 52 -11 15z"/>
<path d="M7967 5381 c3 -12 9 -21 14 -21 14 0 11 16 -5 29 -12 10 -13 8 -9 -8z"/>
<path d="M7927 5269 c12 -12 25 -20 28 -17 3 3 -7 13 -22 23 l-28 17 22 -23z"/>
<path d="M7890 5273 c0 -8 19 -28 67 -72 12 -11 25 -16 28 -12 3 5 -17 28 -45
51 -27 23 -50 38 -50 33z"/>
<path d="M7970 5237 c0 -2 13 -15 29 -30 26 -22 30 -24 36 -9 3 9 3 13 -1 9
-4 -3 -20 3 -35 14 -16 11 -29 19 -29 16z"/>
<path d="M8050 5236 c0 -2 8 -10 18 -17 15 -13 16 -12 3 4 -13 16 -21 21 -21
13z"/>
<path d="M2678 5199 c-10 -5 -18 -15 -18 -21 0 -7 4 -7 13 1 8 6 16 9 19 6 2
-3 5 2 5 10 0 8 -1 15 -1 15 -1 0 -9 -5 -18 -11z"/>
<path d="M8047 5193 c-12 -11 -8 -20 19 -52 16 -19 35 -31 50 -31 27 0 33 24
9 34 -8 3 -15 0 -15 -7 0 -8 -3 -9 -8 -1 -4 6 -17 17 -30 23 -14 8 -21 18 -18
27 6 15 3 18 -7 7z"/>
<path d="M8074 5188 c-4 -7 -4 -10 1 -6 4 4 13 3 20 -2 8 -7 12 -5 12 5 0 18
-23 20 -33 3z"/>
<path d="M7992 5168 c-10 -12 -7 -20 16 -40 15 -13 33 -23 39 -21 6 2 17 -4
25 -15 7 -10 19 -22 27 -27 8 -5 0 10 -19 33 -18 23 -39 42 -45 42 -7 0 -16 9
-21 21 -8 18 -12 19 -22 7z"/>
<path d="M2612 5147 c-12 -13 -20 -27 -17 -30 3 -4 2 -5 -2 -2 -8 6 -106 -84
-115 -107 -11 -28 5 -21 42 17 19 20 40 33 47 31 7 -3 10 1 7 8 -3 7 6 20 20
30 17 11 23 22 19 34 -5 15 -4 15 9 -1 13 -17 15 -17 27 -3 13 16 9 46 -7 46
-5 0 -18 -10 -30 -23z m38 9 c0 -3 -4 -8 -10 -11 -5 -3 -10 -1 -10 4 0 6 5 11
10 11 6 0 10 -2 10 -4z"/>
<path d="M2527 5129 c-15 -18 -26 -36 -24 -42 1 -5 18 9 36 32 38 48 29 56
-12 10z"/>
<path d="M7920 5109 c0 -6 11 -20 25 -31 14 -11 22 -24 19 -30 -4 -7 -2 -8 4
-4 12 7 5 36 -9 36 -5 0 -9 6 -9 14 0 8 -7 16 -15 20 -8 3 -15 1 -15 -5z"/>
<path d="M2516 5004 c-10 -25 -1 -27 19 -4 15 17 16 20 3 20 -9 0 -19 -7 -22
-16z"/>
<path d="M8122 5011 c-10 -6 -10 -10 3 -21 13 -11 15 -9 15 9 0 24 0 24 -18
12z"/>
<path d="M7880 4981 c0 -5 7 -14 15 -21 12 -10 15 -10 15 0 0 10 3 10 15 0 8
-7 24 -10 35 -7 10 3 18 1 17 -5 -2 -9 105 -58 127 -58 23 0 -101 70 -134 76
-19 3 -47 9 -62 14 -16 5 -28 5 -28 1z"/>
<path d="M8039 4958 c22 -20 36 -27 39 -19 6 18 -24 46 -50 48 -21 2 -20 -1
11 -29z"/>
<path d="M2480 4961 c-13 -26 2 -35 18 -11 7 11 8 21 2 25 -5 3 -14 -3 -20
-14z"/>
<path d="M7938 4924 c-4 -3 4 -23 17 -43 23 -33 32 -61 20 -61 -3 0 -14 6 -25
13 -17 10 -22 9 -30 -3 -9 -13 -14 -7 -11 12 0 4 -18 12 -42 18 -23 6 -55 15
-72 20 -16 5 -40 9 -53 8 -22 -2 -22 -2 -2 -22 12 -13 36 -21 66 -23 26 -1 50
-7 54 -13 3 -5 26 -14 51 -19 24 -5 55 -13 68 -17 21 -6 23 -5 17 11 -5 15 -4
16 9 5 8 -7 12 -17 8 -24 -4 -8 -2 -8 7 1 10 9 9 17 -6 42 -10 17 -22 31 -26
31 -4 0 -8 6 -8 13 -1 17 -35 59 -42 51z"/>
<path d="M2567 4913 c-13 -12 -7 -23 11 -22 10 0 12 3 4 6 -6 2 -10 9 -6 14 6
10 0 12 -9 2z"/>
<path d="M2524 4855 c-4 -8 -11 -12 -17 -8 -6 3 -7 1 -3 -5 4 -7 0 -22 -9 -34
l-17 -23 7 25 c5 23 3 22 -25 -10 -56 -62 -73 -90 -57 -90 8 0 17 7 21 15 3 8
11 15 18 15 7 0 -2 -14 -20 -31 -18 -16 -30 -34 -27 -39 7 -11 124 112 126
135 1 6 10 16 20 23 11 7 19 20 19 28 0 19 -29 18 -36 -1z"/>
<path d="M7650 4815 c7 -9 15 -13 17 -11 7 7 -7 26 -19 26 -6 0 -6 -6 2 -15z"/>
<path d="M7710 4823 c8 -4 21 -12 28 -20 7 -7 24 -13 37 -13 13 0 31 -3 41 -7
13 -5 16 -3 11 10 -4 10 0 20 10 26 11 6 -9 9 -63 9 -43 0 -72 -2 -64 -5z"/>
<path d="M2555 4800 c-16 -17 -16 -20 -3 -15 9 4 19 13 22 21 7 19 2 18 -19
-6z"/>
<path d="M7684 4791 c4 -6 27 -25 52 -41 24 -17 44 -35 44 -40 0 -6 -25 -10
-55 -10 -59 0 -257 -59 -291 -86 -11 -9 -13 -12 -5 -8 9 5 12 3 7 -5 -4 -6
-11 -9 -16 -6 -7 4 -115 -47 -130 -62 -3 -2 26 7 64 21 38 15 71 25 73 23 2
-2 -63 -60 -144 -128 -81 -68 -162 -138 -180 -155 -18 -18 -33 -29 -33 -26 0
3 -10 -4 -22 -15 -13 -11 -44 -32 -71 -47 -26 -15 -45 -31 -42 -36 4 -6 -2 -7
-11 -3 -13 5 -16 3 -11 -10 3 -9 2 -17 -2 -17 -5 0 -11 5 -13 12 -3 8 -18 4
-46 -12 -22 -13 -41 -26 -40 -29 0 -3 -1 -8 -2 -11 -10 -28 -6 -40 14 -40 22
0 22 -2 12 -52 -6 -29 -13 -55 -17 -58 -25 -20 -33 -80 -8 -65 5 4 9 1 9 -4 0
-6 -4 -11 -8 -11 -12 0 -36 -187 -30 -233 2 -20 0 -37 -4 -37 -4 0 -8 -7 -8
-15 0 -8 6 -15 13 -15 8 0 8 -3 -2 -9 -12 -8 -12 -14 -2 -39 14 -34 13 -134
-2 -143 -6 -4 -6 -12 -1 -20 5 -8 10 -66 10 -129 1 -73 11 -172 28 -270 18
-112 27 -203 30 -326 2 -95 8 -179 13 -189 7 -11 8 6 6 52 -7 140 -6 214 4
224 7 7 11 3 11 -14 0 -30 51 -209 64 -222 6 -6 7 -1 4 15 -3 14 -13 57 -21
95 -15 63 -34 196 -70 480 -7 55 -11 163 -9 240 8 392 27 562 75 703 16 46 29
94 29 107 0 18 4 23 15 19 8 -4 15 -1 15 6 0 6 4 9 9 5 6 -3 15 4 21 15 6 11
15 18 21 15 14 -9 69 34 80 63 8 21 12 23 19 12 8 -13 10 -12 10 3 0 9 6 17
14 17 8 0 24 12 35 26 12 15 21 23 21 18 0 -5 4 -4 8 1 4 6 23 23 42 39 19 16
35 34 35 40 1 6 13 24 28 40 14 16 24 32 22 36 -3 4 6 15 20 24 14 9 25 12 25
7 0 -6 9 -8 20 -6 27 5 40 14 40 26 0 6 -6 7 -12 3 -9 -5 -9 -3 1 9 7 9 18 14
23 11 5 -3 22 5 36 19 30 28 101 48 184 51 20 1 40 4 43 8 3 3 -24 5 -62 4
-46 -2 -72 2 -81 11 -16 16 0 18 28 3 13 -7 19 -6 24 6 5 12 1 14 -17 8 -12
-3 -19 -3 -15 1 12 13 242 14 250 2 6 -9 8 -9 8 0 0 6 -9 18 -20 26 -11 8 -17
17 -13 20 3 4 1 8 -5 8 -7 1 -16 3 -22 4 -5 1 -16 3 -22 4 -9 1 -9 4 2 12 13
9 12 10 -2 5 -10 -3 -18 -1 -18 4 0 5 -18 19 -41 31 -23 11 -38 16 -35 10z
m-104 -165 c0 -2 -9 -6 -20 -9 -11 -3 -20 -1 -20 4 0 5 9 9 20 9 11 0 20 -2
20 -4z m-167 -100 c4 -10 1 -13 -8 -9 -8 3 -12 9 -9 14 7 12 11 11 17 -5z
m-130 -133 c-12 -4 -76 -51 -105 -77 -10 -9 -20 -11 -23 -6 -10 16 1 26 57 55
29 15 57 31 62 36 5 5 12 6 15 2 3 -3 1 -8 -6 -10z m-143 -100 c0 -5 -11 -13
-25 -20 -27 -12 -33 -5 -13 15 13 13 38 16 38 5z m-150 -103 c-33 -26 -52 -25
-21 0 13 11 28 20 35 20 6 0 0 -9 -14 -20z m-109 -64 c-10 -12 -51 -29 -51
-21 0 10 34 35 47 35 12 0 13 -3 4 -14z"/>
<path d="M2523 4753 c4 -3 2 -12 -4 -20 -9 -9 -8 -13 0 -13 6 0 11 2 11 4 0 2
3 11 6 20 4 10 1 16 -7 16 -7 0 -9 -3 -6 -7z"/>
<path d="M2487 4703 c-10 -9 -9 -23 2 -23 5 0 11 7 15 15 5 15 -5 20 -17 8z"/>
<path d="M2677 4703 c-9 -2 -15 -8 -12 -13 3 -4 -2 -11 -11 -14 -10 -4 -13 -2
-8 6 5 7 2 8 -7 3 -45 -26 -68 -48 -63 -57 5 -7 14 -3 25 10 26 33 33 26 9 -8
-23 -32 -21 -60 4 -60 8 0 34 12 57 26 l44 26 -42 -5 c-24 -3 -43 -3 -43 0 0
2 14 16 30 30 31 25 57 64 43 62 -4 -1 -16 -3 -26 -6z"/>
<path d="M2465 4641 c-3 -10 -14 -29 -25 -41 -11 -13 -20 -28 -20 -34 1 -18
59 58 60 77 0 22 -7 22 -15 -2z"/>
<path d="M2516 4607 c-20 -16 -25 -26 -18 -31 7 -4 12 -2 12 5 0 8 5 8 18 -2
9 -7 14 -9 10 -5 -4 5 -3 15 3 23 6 7 8 13 3 13 -5 0 -2 5 6 10 8 5 11 10 5
10 -5 0 -23 -11 -39 -23z"/>
<path d="M2345 4610 c-3 -5 -1 -10 4 -10 6 0 11 5 11 10 0 6 -2 10 -4 10 -3 0
-8 -4 -11 -10z"/>
<path d="M2440 4545 c0 -8 2 -15 4 -15 2 0 6 7 10 15 3 8 1 15 -4 15 -6 0 -10
-7 -10 -15z"/>
<path d="M2402 4530 c-7 -11 -8 -20 -3 -20 9 0 24 30 18 36 -1 2 -8 -6 -15
-16z"/>
<path d="M2630 4468 c0 -19 2 -20 10 -8 13 19 13 30 0 30 -5 0 -10 -10 -10
-22z"/>
<path d="M2755 4460 c-16 -4 -47 -8 -69 -9 -30 -1 -37 -4 -32 -17 3 -8 2 -12
-4 -9 -6 3 -10 1 -10 -5 0 -6 -4 -8 -10 -5 -5 3 -10 1 -10 -5 0 -7 -7 -10 -15
-6 -8 3 -15 1 -15 -4 0 -13 6 -13 75 11 70 23 225 38 225 21 0 -12 -15 -17
-72 -28 -21 -3 -38 -10 -38 -15 0 -4 10 -6 23 -3 54 12 116 14 122 4 3 -5 17
-10 31 -10 14 0 23 4 20 9 -10 15 42 22 105 15 41 -5 59 -3 59 5 0 6 -19 12
-42 13 -76 3 -83 4 -81 16 3 13 -60 27 -82 18 -9 -3 -13 -2 -10 4 7 12 -124
12 -170 0z m235 -24 c0 -9 -40 -13 -46 -5 -3 5 6 9 20 9 14 0 26 -2 26 -4z"/>
<path d="M5151 4375 c-74 -21 -181 -79 -220 -119 -69 -71 -47 -164 63 -261 67
-60 260 -185 286 -185 19 0 43 16 140 94 108 87 147 125 182 179 79 123 46
212 -102 273 -55 23 -83 28 -180 31 -81 2 -131 -2 -169 -12z m397 -147 c18
-18 15 -52 -6 -71 -23 -21 -85 -47 -111 -47 -26 0 -43 32 -35 65 11 46 121 84
152 53z m-460 -61 c19 -15 16 -77 -4 -77 -32 0 -94 23 -110 42 -16 17 -16 19
1 38 15 16 26 19 59 14 23 -4 47 -11 54 -17z"/>
<path d="M2973 4373 c-24 -9 -13 -21 21 -25 19 -2 32 0 30 4 -9 13 -38 26 -51
21z"/>
<path d="M3070 4312 c0 -5 7 -9 15 -9 8 0 12 4 9 9 -3 4 -9 8 -15 8 -5 0 -9
-4 -9 -8z"/>
<path d="M3083 4272 c12 -15 65 -45 85 -48 10 -2 11 1 1 12 -6 8 -9 17 -5 21
3 3 6 1 6 -5 0 -7 7 -12 15 -12 15 0 21 -25 8 -33 -5 -2 -2 -2 6 0 7 2 29 -12
48 -32 33 -34 62 -48 47 -22 -6 9 -4 9 8 -1 13 -10 17 -10 22 4 8 22 19 11 24
-23 2 -15 11 -33 22 -40 19 -14 52 -111 69 -209 14 -78 15 -234 1 -303 -9 -49
-7 -83 4 -50 2 8 7 21 10 29 2 8 3 -30 0 -85 -9 -180 -24 -339 -34 -369 -14
-39 -13 -76 2 -76 6 0 3 -6 -7 -14 -11 -8 -16 -20 -12 -29 3 -9 3 -18 -1 -21
-13 -8 -8 -59 5 -63 8 -3 19 18 29 57 20 70 34 63 34 -17 0 -33 4 -53 11 -53
12 0 7 75 -8 129 -5 20 -3 23 10 18 14 -5 17 1 17 38 0 25 -5 54 -12 64 -9 14
-9 35 0 89 7 39 12 95 12 126 0 30 4 56 9 58 18 6 29 316 15 414 -4 26 -2 44
5 48 6 4 11 2 11 -5 0 -7 3 -9 6 -6 4 4 2 12 -3 19 -6 7 -10 20 -10 28 0 8 -4
32 -8 53 -7 37 -7 37 20 27 33 -13 45 -13 25 0 -13 8 -12 10 2 10 10 0 23 -9
30 -21 7 -12 32 -30 56 -40 51 -22 52 -22 52 -9 0 6 -9 10 -19 10 -26 0 -71
39 -53 47 8 3 -24 26 -74 54 -93 52 -99 55 -89 39 10 -16 -22 -12 -39 5 -8 8
-21 15 -29 15 -17 0 -53 38 -44 47 11 10 -93 76 -119 76 -13 0 -22 3 -19 7 7
11 -90 53 -124 54 -23 1 -27 -2 -18 -12z"/>
<path d="M3310 4126 c0 -2 7 -7 16 -10 8 -3 12 -2 9 4 -6 10 -25 14 -25 6z"/>
<path d="M6725 4075 c-38 -19 -66 -34 -62 -34 5 -1 17 4 27 9 13 7 21 7 25 0
3 -5 11 -10 16 -10 6 0 7 5 3 12 -5 8 -2 9 10 5 9 -4 15 -3 11 2 -3 5 7 19 22
30 37 27 31 25 -52 -14z"/>
<path d="M6780 4075 c-2 -5 -2 -14 -1 -19 1 -5 -4 -13 -11 -17 -7 -5 -8 -9 -3
-9 22 0 32 15 24 35 -4 11 -8 16 -9 10z"/>
<path d="M6603 4013 c-8 -21 1 -25 30 -14 17 7 27 7 29 0 2 -6 12 -7 27 -1 19
7 21 11 10 17 -23 15 -90 13 -96 -2z"/>
<path d="M6562 3978 c-8 -10 -2 -14 23 -15 21 -2 38 3 46 14 13 15 12 15 -8 4
-15 -7 -23 -8 -23 -1 0 14 -25 13 -38 -2z"/>
<path d="M3647 3968 c2 -5 14 -6 25 -2 14 4 18 2 14 -5 -9 -14 4 -14 24 -1 13
9 13 10 0 11 -50 5 -68 4 -63 -3z"/>
<path d="M6454 3954 c-18 -14 -18 -15 4 -4 12 6 22 13 22 15 0 8 -5 6 -26 -11z"/>
<path d="M6494 3954 c-17 -14 -17 -15 -1 -10 10 3 25 6 33 6 8 0 14 5 14 10 0
15 -24 12 -46 -6z"/>
<path d="M3744 3946 c11 -9 27 -16 35 -15 14 0 14 1 1 6 -8 3 -24 10 -35 15
-20 9 -20 9 -1 -6z"/>
<path d="M6500 3930 c-9 -6 -10 -10 -3 -10 6 0 15 5 18 10 8 12 4 12 -15 0z"/>
<path d="M3816 3909 c19 -22 19 -22 -8 -16 -14 4 -34 9 -45 12 -10 3 -4 -1 12
-9 17 -8 37 -15 45 -16 8 0 39 -9 68 -20 29 -11 58 -20 65 -19 11 0 -6 9 -80
38 -18 7 -33 19 -33 26 0 7 -7 16 -16 19 -26 10 -28 7 -8 -15z"/>
<path d="M6370 3910 c0 -5 4 -10 9 -10 6 0 13 5 16 10 3 6 -1 10 -9 10 -9 0
-16 -4 -16 -10z"/>
<path d="M6335 3900 c-3 -6 1 -7 9 -4 18 7 21 14 7 14 -6 0 -13 -4 -16 -10z"/>
<path d="M6410 3900 c-8 -5 -12 -12 -9 -15 8 -8 39 5 39 16 0 11 -11 11 -30
-1z"/>
<path d="M3890 3890 c8 -5 22 -10 30 -10 13 0 13 1 0 10 -8 5 -22 10 -30 10
-13 0 -13 -1 0 -10z"/>
<path d="M6311 3856 c-29 -13 -49 -26 -44 -29 6 -4 37 7 69 23 70 35 52 39
-25 6z"/>
<path d="M3995 3850 c3 -5 11 -10 16 -10 6 0 7 5 4 10 -3 6 -11 10 -16 10 -6
0 -7 -4 -4 -10z"/>
<path d="M3547 3803 c8 -63 13 -67 13 -10 0 25 -4 49 -10 52 -6 4 -7 -11 -3
-42z"/>
<path d="M4065 3823 c17 -9 35 -21 40 -28 9 -11 237 -85 261 -85 6 0 39 -11
73 -25 35 -15 68 -24 74 -22 5 1 -12 11 -39 21 -87 32 -158 59 -189 71 -30 13
-114 30 -127 27 -5 -1 -8 5 -8 13 0 18 -11 19 -29 3 -11 -11 -13 -10 -7 0 5 8
-4 17 -28 27 -47 20 -59 18 -21 -2z"/>
<path d="M6183 3817 c-12 -5 -21 -18 -20 -28 1 -21 17 -15 17 7 0 11 6 13 20
9 11 -3 27 -2 36 3 14 8 13 10 -8 14 -13 2 -34 0 -45 -5z"/>
<path d="M4067 3799 c7 -7 15 -10 18 -7 3 3 -2 9 -12 12 -14 6 -15 5 -6 -5z"/>
<path d="M6090 3761 c0 -7 -4 -10 -8 -7 -4 2 -14 1 -21 -3 -8 -5 -9 -11 -4
-14 13 -8 50 19 40 29 -4 4 -7 2 -7 -5z"/>
<path d="M5998 3714 c-16 -8 -28 -17 -28 -20 0 -2 8 0 19 5 10 6 21 8 23 5 3
-3 8 2 11 11 7 18 9 18 -25 -1z"/>
<path d="M3378 2877 c-3 -19 -2 -25 4 -19 6 6 8 18 6 28 -3 14 -5 12 -10 -9z"/>
<path d="M3508 2774 c-4 -5 0 -18 8 -29 15 -20 17 -12 5 19 -4 11 -10 15 -13
10z"/>
<path d="M3326 2675 c-9 -26 -7 -32 5 -12 6 10 9 21 6 23 -2 3 -7 -2 -11 -11z"/>
<path d="M3524 2674 c3 -9 6 -18 6 -20 0 -2 5 -4 11 -4 8 0 9 4 0 13 -6 8 -8
17 -4 20 3 4 1 7 -6 7 -8 0 -11 -6 -7 -16z"/>
<path d="M3295 2620 c-3 -5 -1 -10 4 -10 6 0 11 5 11 10 0 6 -2 10 -4 10 -3 0
-8 -4 -11 -10z"/>
<path d="M3581 2554 c0 -11 3 -14 6 -6 3 7 2 16 -1 19 -3 4 -6 -2 -5 -13z"/>
<path d="M6940 2460 c0 -5 5 -10 10 -10 6 0 10 5 10 10 0 6 -4 10 -10 10 -5 0
-10 -4 -10 -10z"/>
<path d="M3740 2245 c0 -13 48 -85 57 -85 5 0 -9 25 -44 75 -7 11 -13 15 -13
10z"/>
<path d="M3874 2149 c-5 -8 -3 -9 6 -4 10 6 12 4 7 -9 -4 -9 -3 -14 2 -11 14
8 22 -10 15 -30 -4 -10 -14 -15 -25 -12 -25 7 -24 -4 1 -31 12 -12 17 -22 13
-22 -4 0 -1 -4 7 -10 38 -24 48 37 16 98 -19 37 -32 46 -42 31z"/>
<path d="M3990 1971 c0 -6 4 -13 10 -16 6 -3 7 1 4 9 -7 18 -14 21 -14 7z"/>
<path d="M4096 1752 c-3 -5 0 -17 7 -26 12 -16 13 -16 14 3 2 22 -12 37 -21
23z"/>
<path d="M4237 1547 c-3 -7 3 -13 14 -13 13 0 15 3 7 13 -6 7 -12 13 -13 13
-2 0 -5 -6 -8 -13z"/>
<path d="M4332 1516 c7 -8 17 -12 22 -9 4 3 2 9 -5 14 -22 13 -31 11 -17 -5z"/>
<path d="M4240 1514 c0 -1 19 -12 43 -24 l42 -22 -22 23 c-17 18 -63 35 -63
23z"/>
<path d="M4376 1475 c7 -18 6 -19 -12 -5 -18 14 -18 14 -5 -3 10 -12 17 -15
25 -7 7 7 6 14 -3 23 -10 10 -11 8 -5 -8z"/>
<path d="M4330 1466 c0 -4 11 -18 25 -32 14 -14 25 -21 25 -16 0 5 -11 19 -25
32 -14 13 -25 20 -25 16z"/>
<path d="M4599 1204 c6 -12 7 -25 3 -29 -4 -5 -2 -5 5 -1 6 3 19 -4 27 -16 9
-12 16 -18 16 -12 0 5 -14 25 -30 44 -18 20 -27 26 -21 14z"/>
<path d="M4720 1041 c0 -6 4 -12 8 -15 5 -3 9 1 9 9 0 8 -4 15 -9 15 -4 0 -8
-4 -8 -9z"/>
<path d="M4750 1031 c0 -5 9 -11 21 -14 16 -4 18 -3 8 9 -13 16 -29 19 -29 5z"/>
<path d="M4796 983 c-6 -14 -5 -15 5 -6 7 7 10 15 7 18 -3 3 -9 -2 -12 -12z"/>
<path d="M4941 900 c12 -16 27 -26 32 -23 6 3 7 1 3 -5 -8 -13 6 -17 17 -5 9
9 -43 63 -60 63 -10 0 -7 -9 8 -30z"/>
<path d="M4866 912 c-6 -10 47 -52 64 -52 6 0 9 -4 5 -9 -3 -5 5 -13 17 -17
13 -4 26 -12 30 -18 9 -13 13 -8 23 24 6 19 4 22 -5 14 -13 -13 -58 5 -81 32
-18 21 -47 36 -53 26z"/>
<path d="M5021 818 c1 -27 15 -52 23 -40 4 6 2 21 -4 32 -12 23 -20 26 -19 8z"/>
<path d="M5085 721 c6 -30 14 -41 31 -41 9 0 12 -5 8 -12 -5 -7 -3 -8 6 -3 10
6 8 12 -8 25 -12 10 -19 20 -16 22 2 3 -2 11 -10 17 -13 11 -15 9 -11 -8z"/>
</g>
</svg>
