<?xml version="1.0" standalone="no"?>
<!DOCTYPE svg PUBLIC "-//W3C//DTD SVG 20010904//EN"
 "http://www.w3.org/TR/2001/REC-SVG-20010904/DTD/svg10.dtd">
<svg version="1.0" xmlns="http://www.w3.org/2000/svg"
 width="512.000000pt" height="512.000000pt" viewBox="0 0 512.000000 512.000000"
 preserveAspectRatio="xMidYMid meet">
<metadata>
Created by potrace 1.16, written by Peter Selinger 2001-2019
</metadata>
<g transform="translate(0.000000,512.000000) scale(0.100000,-0.100000)"
fill="#000000" stroke="none">
<path d="M1396 4460 c-61 -54 -71 -99 -71 -310 1 -177 3 -192 39 -355 31 -137
39 -192 40 -285 1 -103 5 -121 29 -175 l28 -60 -23 -18 c-102 -79 -167 -150
-123 -133 13 5 10 -3 -11 -31 -15 -21 -39 -53 -53 -71 l-25 -34 40 21 c21 11
77 36 124 55 74 31 82 32 60 13 -50 -46 -54 -60 -5 -23 28 21 79 56 115 77 47
29 56 38 35 33 -16 -4 -32 -11 -33 -16 -2 -4 -7 -6 -12 -3 -13 8 -60 -17 -53
-28 3 -6 1 -7 -4 -4 -6 4 -28 0 -48 -9 -69 -29 -57 -9 39 63 107 80 188 122
291 152 66 19 68 20 29 20 -85 2 -185 -40 -346 -145 -54 -35 -98 -60 -98 -56
0 16 68 72 145 120 44 27 110 68 148 92 37 23 104 55 150 71 81 28 81 29 38
29 -52 0 -46 9 24 36 l50 18 -35 6 -35 5 45 22 c25 12 62 25 82 28 32 6 39 13
54 51 10 27 14 57 11 79 -5 29 -2 38 20 55 33 25 73 26 106 0 36 -29 40 -25
34 25 -7 49 -33 105 -79 173 -29 43 -23 53 18 29 43 -25 80 -64 101 -107 21
-44 22 -44 22 -15 1 17 -3 45 -8 63 -11 36 0 42 33 17 30 -23 40 -18 22 10
-16 24 -15 25 9 31 15 4 48 4 75 2 46 -5 48 -4 39 14 -6 11 -9 22 -6 24 2 2
31 -2 63 -10 124 -31 124 -31 124 -2 0 14 2 26 4 26 18 0 93 -34 102 -46 20
-26 117 -38 158 -19 15 6 17 5 11 -5 -6 -10 -4 -12 9 -7 10 4 28 10 41 13 22
5 22 4 15 -35 -9 -48 -4 -51 28 -13 l23 27 -6 -25 c-5 -24 -5 -24 10 3 26 45
29 24 6 -40 -22 -61 -26 -123 -11 -158 8 -19 9 -18 9 4 2 45 41 109 95 153 29
24 84 81 122 128 153 189 323 341 428 385 84 35 151 4 181 -83 26 -77 39 -255
27 -375 -17 -154 -78 -333 -130 -381 -19 -16 -19 -20 -7 -33 24 -23 18 -88
-11 -133 -21 -32 -25 -46 -20 -75 l7 -36 -38 17 c-123 54 -204 85 -234 89 -28
5 -24 2 21 -18 176 -77 299 -156 366 -237 23 -28 24 -32 7 -20 -12 8 -61 42
-109 75 -48 33 -94 64 -103 68 -9 4 -5 0 9 -10 49 -34 142 -132 135 -142 -3
-6 1 -11 10 -11 9 0 13 -5 9 -11 -3 -6 -15 -9 -25 -6 -28 7 -24 -3 24 -58 23
-28 51 -63 61 -80 l19 -30 -34 31 c-19 16 -43 37 -53 45 -18 12 -19 12 -11 -1
4 -8 20 -31 35 -50 15 -19 48 -71 74 -115 l48 -80 -68 65 c-59 56 -62 58 -24
14 86 -96 108 -123 104 -127 -2 -2 12 -39 32 -81 48 -106 38 -117 -16 -16 -24
45 -61 101 -83 124 l-38 41 34 -50 c19 -27 44 -68 57 -90 l23 -40 -29 27 c-49
45 -255 167 -283 168 -8 0 15 -19 50 -41 96 -63 170 -145 229 -257 51 -98 61
-88 20 21 -10 26 -16 47 -13 47 2 0 34 -21 69 -46 59 -42 65 -44 60 -23 -44
192 -61 251 -87 314 -34 83 -96 184 -141 231 -51 54 10 60 73 7 l32 -27 -8 25
c-19 60 -61 128 -112 181 -56 56 -56 56 -51 110 3 36 13 66 31 93 15 21 23 42
19 45 -5 3 -14 20 -21 38 -13 30 -12 35 13 70 17 26 40 93 68 198 41 158 41
161 42 344 1 237 -15 298 -94 353 -97 67 -299 -60 -554 -350 -21 -23 -60 -53
-89 -67 -57 -29 -110 -35 -101 -12 4 12 -6 11 -54 -4 -32 -10 -90 -22 -128
-25 -65 -7 -75 -5 -139 25 -118 54 -142 61 -149 44 -5 -12 -11 -9 -31 13 l-24
28 9 -34 c5 -19 7 -37 5 -40 -3 -3 -44 4 -90 16 -47 11 -85 19 -85 17 0 -1 4
-14 9 -27 10 -25 9 -25 -62 -29 -47 -3 -86 0 -112 10 -83 29 -94 31 -88 16 3
-10 -2 -14 -19 -14 -26 0 -64 36 -171 165 -70 84 -120 131 -227 210 -91 67
-154 95 -217 95 -44 0 -58 -5 -87 -30z m202 -54 c68 -34 160 -105 225 -171
118 -121 242 -322 235 -381 -2 -23 -10 -13 -50 67 -57 115 -124 205 -214 288
-125 114 -221 171 -292 171 -87 0 -123 -67 -130 -243 -4 -96 -1 -133 17 -211
22 -92 80 -227 120 -276 30 -37 25 -13 -9 45 -40 68 -38 81 4 20 54 -82 71
-84 21 -4 -66 108 -122 301 -110 380 3 16 7 43 10 61 6 40 -4 30 -16 -14 -6
-25 -8 -16 -4 34 9 146 78 184 210 117 172 -87 348 -272 400 -419 16 -44 20
-120 8 -119 -5 0 -21 27 -37 61 -16 33 -49 81 -74 107 -25 25 -46 50 -46 56
-1 5 -10 11 -21 14 -13 2 -2 -15 37 -58 54 -57 78 -106 78 -155 0 -16 -3 -17
-12 -8 -20 20 -30 13 -14 -10 25 -35 19 -41 -19 -18 -19 12 -35 20 -35 17 0
-3 9 -24 20 -48 28 -61 26 -69 -10 -59 -17 5 -44 15 -60 24 -17 8 -30 13 -30
10 0 -2 16 -22 36 -44 20 -22 34 -43 31 -46 -3 -3 -21 -1 -39 5 -31 10 -79 54
-148 135 l-25 29 45 -6 c25 -2 54 -8 65 -12 33 -11 -35 43 -77 62 -56 25 -47
37 24 30 l61 -5 -29 19 c-16 10 -33 19 -37 19 -4 0 -25 11 -45 25 l-37 25 31
0 c17 0 52 -6 78 -14 42 -13 46 -13 35 1 -7 8 -42 30 -78 48 -36 18 -72 43
-79 55 -13 21 -12 21 19 5 17 -9 33 -15 35 -13 5 6 -78 68 -90 68 -6 0 -2 -7
8 -15 33 -25 3 -17 -36 10 -44 30 -52 31 -38 6 13 -26 14 -82 0 -61 -16 24
-12 5 11 -52 11 -29 32 -65 47 -80 14 -16 22 -28 18 -28 -4 0 -21 14 -38 32
l-29 31 7 -29 c18 -75 66 -201 100 -261 l37 -66 -39 23 -39 23 30 -33 30 -33
-27 7 c-36 8 -35 3 5 -24 l32 -21 -34 6 c-55 11 -151 65 -165 94 -23 44 -84
271 -96 358 -7 44 -10 141 -9 215 4 118 7 139 29 183 44 88 114 104 218 51z
m-94 -936 c-15 -36 -21 -81 -13 -86 5 -3 9 5 9 18 0 27 49 108 65 107 5 0 28
-9 50 -18 l40 -18 -42 -12 c-46 -13 -57 -24 -20 -21 43 4 54 0 35 -11 -26 -14
-23 -32 3 -19 11 6 30 10 42 8 20 -3 18 -6 -13 -22 -19 -11 -57 -37 -83 -60
-56 -47 -66 -45 -111 27 -22 36 -30 62 -34 119 l-5 72 41 -35 c27 -22 40 -39
36 -49z"/>
<path d="M1696 4182 c39 -28 87 -80 153 -161 18 -23 35 -40 38 -37 11 11 -41
99 -84 142 -43 43 -109 84 -134 84 -7 0 6 -13 27 -28z"/>
<path d="M1510 4161 c8 -6 20 -11 27 -11 17 0 110 -44 153 -71 l35 -23 -23 26
c-26 28 -117 72 -172 83 -26 4 -31 3 -20 -4z"/>
<path d="M3634 4335 c-51 -25 -190 -146 -277 -241 -90 -98 -190 -289 -221
-424 l-14 -61 26 -10 c73 -26 94 -37 186 -96 55 -35 118 -68 140 -74 23 -6 67
-20 100 -30 69 -24 87 -17 27 10 l-42 18 38 23 c51 31 50 30 33 40 -13 8 -12
12 5 25 19 16 19 16 -11 11 l-32 -5 20 67 c11 37 38 105 60 152 35 74 68 167
68 194 0 4 -9 -2 -20 -15 -24 -29 -26 -19 -4 23 9 16 22 47 29 67 l13 37 -58
-20 c-33 -11 -54 -23 -48 -27 5 -3 -27 -28 -71 -54 -97 -57 -125 -85 -50 -50
55 25 116 34 104 15 -4 -6 -42 -28 -86 -50 -76 -39 -104 -59 -56 -41 12 4 45
11 72 15 l50 6 -71 -29 c-67 -26 -150 -74 -99 -57 48 17 132 36 158 36 27 0
26 -2 -35 -63 -81 -80 -159 -167 -150 -167 4 0 34 16 67 36 l60 36 -35 -36
c-33 -35 -81 -56 -128 -56 -22 0 -21 2 13 51 43 64 45 81 8 69 -45 -14 -93
-20 -93 -12 0 4 12 25 27 47 l27 40 -27 -18 c-15 -9 -38 -24 -52 -33 -39 -25
-30 -8 26 52 54 57 57 68 8 33 -37 -26 -37 -12 1 63 17 33 29 62 27 64 -5 6
-65 -67 -103 -125 l-29 -45 -3 35 c-7 69 49 192 139 305 71 89 86 97 45 23
-20 -36 -36 -72 -36 -80 0 -9 -15 -40 -34 -71 l-33 -56 33 20 c38 22 55 41 28
31 -27 -10 18 50 91 122 71 70 161 121 236 134 l54 9 -51 1 c-68 1 -172 -50
-244 -121 l-54 -53 50 64 c63 81 164 174 218 201 50 24 103 26 134 4 25 -17
27 -13 10 19 -28 54 -86 61 -164 22z"/>
<path d="M3825 4118 c7 -74 -13 -252 -34 -300 -10 -24 -35 -70 -55 -102 -20
-33 -36 -64 -36 -69 0 -19 97 122 121 175 30 67 37 206 14 288 l-14 55 4 -47z"/>
<path d="M3645 4115 c-32 -15 -60 -38 -84 -68 -13 -16 -10 -16 20 2 41 24 123
51 159 51 22 1 23 2 7 11 -13 8 -30 6 -62 -5 -52 -17 -60 -12 -12 9 17 8 25
14 17 14 -8 0 -28 -6 -45 -14z"/>
<path d="M3791 3940 c-1 -8 -17 -52 -35 -97 -19 -46 -32 -83 -30 -83 13 0 75
151 71 172 -2 13 -5 16 -6 8z"/>
<path d="M2395 3840 c8 -16 22 -53 30 -82 15 -52 15 -53 10 -10 -5 41 -39 122
-50 122 -3 0 1 -13 10 -30z"/>
<path d="M2830 3828 c-22 -24 -44 -54 -47 -68 l-7 -25 -7 25 c-6 18 -7 12 -6
-22 1 -27 5 -48 8 -48 3 0 11 17 17 38 7 20 30 61 52 90 22 28 38 52 35 52 -2
0 -23 -19 -45 -42z"/>
<path d="M2350 3831 c13 -18 34 -65 46 -105 24 -70 24 -70 18 -21 -7 57 -32
111 -65 140 l-23 20 24 -34z"/>
<path d="M2616 3789 c-3 -8 -7 -25 -9 -39 -3 -23 -4 -23 -15 10 l-11 35 4 -40
c19 -159 25 -311 27 -665 l2 -405 6 555 c3 305 5 557 3 559 -1 2 -5 -2 -7 -10z"/>
<path d="M2525 3753 c3 -12 10 -65 14 -117 9 -105 21 -139 21 -60 0 59 -18
162 -31 184 -8 11 -8 10 -4 -7z"/>
<path d="M2723 3665 c0 -44 2 -61 4 -37 2 23 2 59 0 80 -2 20 -4 1 -4 -43z"/>
<path d="M2388 3446 c24 -26 57 -75 73 -109 30 -65 40 -64 14 1 -23 54 -61
105 -98 132 -28 21 -27 18 11 -24z"/>
<path d="M2798 3453 c-18 -21 -51 -83 -46 -88 2 -1 17 22 35 51 33 57 35 65
11 37z"/>
<path d="M2302 3344 c101 -112 127 -219 93 -383 -9 -47 -19 -92 -22 -100 -4
-14 -4 -14 6 -1 15 20 39 104 50 171 18 110 -24 221 -117 310 l-56 54 46 -51z"/>
<path d="M2907 3290 c-30 -32 -68 -85 -84 -117 -24 -51 -28 -69 -27 -143 1
-94 23 -189 60 -262 13 -26 33 -71 44 -100 19 -50 119 -231 120 -216 0 4 -12
33 -26 65 -47 104 -56 141 -39 172 28 56 75 86 164 104 75 17 86 22 129 66 26
26 59 62 73 79 24 29 32 32 81 32 61 0 144 -20 230 -54 32 -13 58 -22 58 -20
0 15 -165 82 -258 105 -299 76 -439 8 -527 -256 -11 -32 -51 56 -71 155 -34
168 -6 285 93 399 61 70 47 64 -20 -9z m263 -319 c0 -5 -7 -14 -15 -21 -18
-15 -42 1 -31 19 8 13 46 15 46 2z m55 -71 c-10 -20 -32 -39 -60 -51 -38 -17
-48 -18 -82 -7 -42 14 -55 45 -28 68 13 11 18 10 31 -8 27 -39 78 -27 94 23 7
23 18 35 33 37 29 4 33 -21 12 -62z"/>
<path d="M2159 3244 c43 -37 136 -170 165 -236 l15 -33 -5 45 c-12 100 -49
161 -129 215 -76 50 -97 54 -46 9z m120 -102 c17 -27 31 -53 31 -58 0 -5 -9 7
-21 26 -12 19 -40 55 -62 79 -37 39 -39 42 -11 23 18 -12 46 -44 63 -70z"/>
<path d="M1845 3245 l-40 -14 40 7 c70 12 158 7 218 -12 76 -25 135 -81 181
-171 43 -83 49 -57 7 30 -55 115 -139 167 -281 172 -55 2 -99 -2 -125 -12z"/>
<path d="M3040 3219 c-61 -41 -101 -90 -115 -139 -5 -17 3 -10 23 20 16 25 47
61 67 80 l38 35 -41 -50 c-48 -59 -72 -111 -72 -157 1 -31 2 -30 19 18 20 55
39 88 84 147 16 20 25 37 20 37 -4 0 7 9 25 20 17 11 32 22 32 25 0 12 -22 2
-80 -36z"/>
<path d="M3215 3246 c-117 -29 -170 -80 -205 -195 l-18 -61 46 40 c26 21 72
50 102 64 30 14 50 26 44 26 -21 0 -79 -24 -113 -46 -19 -13 -37 -22 -39 -20
-8 8 32 72 66 109 92 95 262 102 422 16 30 -17 46 -23 35 -14 -84 69 -241 106
-340 81z"/>
<path d="M3635 3168 c11 -6 36 -24 56 -40 20 -15 43 -28 50 -28 17 1 -24 34
-73 60 -39 21 -68 28 -33 8z"/>
<path d="M2115 3101 c22 -10 62 -35 88 -55 59 -45 73 -42 20 4 -38 34 -107 70
-133 70 -8 0 3 -9 25 -19z"/>
<path d="M1843 3083 c9 -2 25 -2 35 0 9 3 1 5 -18 5 -19 0 -27 -2 -17 -5z"/>
<path d="M3293 3083 c15 -2 39 -2 55 0 15 2 2 4 -28 4 -30 0 -43 -2 -27 -4z"/>
<path d="M1783 3073 c9 -2 23 -2 30 0 6 3 -1 5 -18 5 -16 0 -22 -2 -12 -5z"/>
<path d="M3388 3073 c6 -2 18 -2 25 0 6 3 1 5 -13 5 -14 0 -19 -2 -12 -5z"/>
<path d="M1500 3044 c-52 -35 -124 -112 -170 -181 -80 -120 -184 -334 -204
-417 -6 -26 -2 -24 69 34 41 35 78 61 81 58 3 -3 -2 -34 -11 -68 -9 -34 -15
-64 -13 -66 2 -1 24 32 48 74 63 107 113 154 223 208 74 37 84 45 53 39 -22
-3 -72 -20 -113 -36 -40 -16 -77 -29 -80 -29 -4 0 15 23 42 52 44 45 46 48 15
27 -19 -13 -86 -66 -148 -117 -94 -77 -111 -88 -95 -60 10 18 63 77 117 130
55 54 97 101 93 104 -4 4 -7 2 -7 -5 0 -7 -4 -10 -8 -7 -5 3 -35 -18 -68 -47
l-59 -52 29 40 c16 22 50 64 75 94 25 29 55 64 65 78 l19 25 -24 -7 -24 -7 25
28 c13 16 45 50 69 77 46 48 46 61 1 31z m-110 -268 c0 -2 -8 -10 -17 -17 -16
-13 -17 -12 -4 4 13 16 21 21 21 13z"/>
<path d="M1855 3020 c-105 -25 -188 -54 -242 -85 -58 -35 -54 -39 10 -10 109
50 236 69 292 43 14 -6 34 -26 45 -44 11 -18 38 -48 60 -67 37 -34 57 -42 156
-67 50 -12 89 -41 110 -82 15 -29 14 -33 -20 -105 -20 -41 -45 -87 -56 -103
-33 -47 -23 -46 15 1 49 62 103 167 116 228 10 50 9 54 -31 136 -46 96 -88
135 -173 160 -67 20 -183 18 -282 -5z m264 -29 c17 -11 7 -45 -12 -39 -13 5
-23 48 -10 48 4 0 14 -4 22 -9z m-31 -94 c18 -18 25 -19 47 -9 14 6 30 23 37
37 15 33 24 32 43 -5 14 -28 14 -31 -5 -50 -45 -45 -105 -38 -162 19 -45 45
-52 88 -15 93 18 2 23 -3 28 -30 3 -19 16 -43 27 -55z"/>
<path d="M2761 2994 c-32 -123 -22 -211 30 -267 l30 -32 -25 38 c-33 50 -41
110 -28 210 11 90 9 110 -7 51z"/>
<path d="M2468 2932 c5 -104 -5 -144 -54 -207 -42 -56 -28 -59 19 -5 44 52 61
112 55 198 -8 108 -25 119 -20 14z"/>
<path d="M1835 2740 c7 -43 58 -97 105 -110 19 -5 55 -9 80 -9 l45 1 -45 9
c-25 5 -55 11 -67 14 -31 7 -93 64 -110 100 l-14 30 6 -35z"/>
<path d="M3420 2763 c0 -17 -71 -93 -103 -110 -17 -8 -65 -19 -107 -23 l-75
-7 78 -2 c88 -1 128 12 169 55 28 30 53 83 43 92 -3 3 -5 1 -5 -5z"/>
<path d="M1628 2733 c7 -3 16 -2 19 1 4 3 -2 6 -13 5 -11 0 -14 -3 -6 -6z"/>
<path d="M1598 2651 c-114 -64 -177 -110 -233 -173 -79 -88 -72 -96 13 -17 45
42 130 109 190 149 158 108 165 117 30 41z"/>
<path d="M2386 2598 c8 -34 17 -99 21 -143 l8 -80 3 73 c2 44 -3 98 -13 135
-21 83 -36 95 -19 15z"/>
<path d="M1580 2578 c-53 -32 -120 -87 -176 -142 -73 -74 -99 -107 -133 -176
-40 -81 -70 -192 -71 -255 0 -29 0 -29 23 12 27 51 87 136 92 132 2 -2 -2 -26
-8 -53 -8 -35 -8 -102 0 -250 15 -267 30 -315 153 -500 88 -132 155 -212 88
-106 -43 69 -64 121 -72 185 -5 42 -4 46 6 25 101 -224 119 -251 230 -364 60
-61 101 -97 91 -81 -9 17 -20 32 -23 35 -3 3 -3 17 0 32 5 27 8 24 67 -55 72
-95 303 -351 310 -343 3 3 -2 39 -12 81 -9 42 -15 79 -12 81 3 3 39 -25 81
-61 42 -37 76 -62 76 -58 0 5 -52 65 -116 134 -92 99 -123 140 -154 204 -42
89 -60 157 -61 243 -1 56 -1 56 -11 22 -15 -52 -3 -205 22 -280 12 -36 45
-105 73 -155 29 -49 60 -107 70 -130 l17 -40 -27 34 c-196 242 -274 387 -293
541 -8 61 -8 59 -6 -30 2 -52 6 -104 10 -115 3 -11 -5 3 -18 30 -30 63 -41
131 -27 181 9 35 9 37 -4 20 -8 -11 -15 -25 -15 -30 -1 -6 -14 14 -30 44 -47
88 -70 173 -71 264 -1 58 -3 73 -9 51 -24 -92 -4 -205 54 -311 27 -47 39 -86
46 -138 5 -39 14 -95 20 -125 18 -96 14 -94 -85 40 -124 167 -170 291 -163
444 2 67 9 92 36 147 18 38 49 81 70 99 l37 31 -41 -21 c-69 -34 -135 -133
-150 -224 -17 -103 -40 8 -32 153 6 102 30 162 84 210 47 41 29 38 -31 -5 -43
-30 -82 -72 -123 -131 -25 -37 -2 27 34 96 34 64 34 64 7 35 -15 -17 -36 -41
-46 -55 -18 -25 -18 -24 -12 40 13 140 73 294 156 401 l42 54 -52 -50 c-29
-27 -93 -98 -143 -158 -50 -59 -93 -105 -96 -102 -8 8 28 84 73 155 56 88 142
179 245 258 134 103 135 107 10 30z m-169 -996 c6 -63 9 -116 6 -118 -9 -9
-57 126 -67 191 -10 60 -8 73 10 123 32 84 35 84 37 -3 2 -44 8 -131 14 -193z"/>
<path d="M3792 2569 c24 -31 53 -69 65 -85 l23 -29 -20 35 c-11 19 -41 58 -66
85 l-46 50 44 -56z"/>
<path d="M2771 2489 c1 -35 5 -75 9 -89 6 -15 7 8 3 60 -7 102 -13 118 -12 29z"/>
<path d="M3607 2501 c54 -42 108 -111 154 -194 35 -64 38 -45 4 27 -29 61 -92
136 -149 178 -58 42 -65 34 -9 -11z"/>
<path d="M3265 2506 c-63 -15 -118 -42 -140 -66 -13 -15 -4 -12 36 10 30 15
90 35 134 44 122 23 123 24 70 24 -27 0 -72 -5 -100 -12z"/>
<path d="M3796 2477 c88 -101 150 -278 160 -457 l5 -95 -22 40 c-26 48 -53 85
-138 188 -69 84 -90 97 -41 24 48 -71 58 -108 75 -264 l5 -48 -16 30 c-10 17
-23 62 -31 100 -15 80 -58 174 -103 225 l-31 35 26 -41 c38 -61 64 -136 76
-221 11 -79 4 -193 -12 -193 -5 0 -9 8 -9 18 0 9 -9 35 -20 57 -11 22 -17 31
-14 20 24 -72 8 -340 -17 -280 -4 11 -22 54 -39 95 -16 42 -44 92 -60 110
l-31 35 30 -48 c41 -67 55 -133 49 -236 -6 -100 -25 -151 -94 -250 -81 -114
-81 -111 4 74 67 146 76 209 42 297 -11 31 -30 67 -40 80 -19 23 -19 23 -4
-27 20 -66 14 -232 -11 -293 -17 -41 -18 -42 -36 -26 -18 17 -19 15 -19 -37 0
-64 -38 -176 -74 -222 -13 -18 -60 -75 -103 -129 -43 -53 -86 -111 -96 -130
-18 -31 -16 -30 25 12 24 25 71 77 106 115 l62 70 -6 -55 -6 -55 35 70 c38 78
148 251 212 335 76 99 109 163 151 290 l42 125 16 -38 c23 -53 30 -144 17
-207 -16 -77 -6 -73 19 7 31 99 29 290 -6 418 l-5 20 16 -20 c9 -11 30 -47 47
-79 21 -42 32 -55 38 -46 27 44 18 307 -15 416 -22 74 -65 134 -136 189 l-64
50 41 -48z"/>
<path d="M1995 2490 c35 -11 79 -35 104 -57 27 -22 40 -29 33 -17 -24 44 -112
94 -167 93 -23 0 -16 -4 30 -19z"/>
<path d="M3779 2373 c63 -169 99 -253 101 -232 0 3 -15 53 -34 112 -29 91 -78
197 -91 197 -3 0 8 -35 24 -77z"/>
<path d="M2316 2321 c-17 -75 -19 -121 -6 -161 6 -18 8 -5 9 46 1 39 6 95 11
124 15 79 4 72 -14 -9z"/>
<path d="M3295 2380 c-58 -12 -95 -28 -133 -57 -40 -30 -94 -102 -86 -114 3
-5 1 -9 -5 -9 -13 0 -47 -93 -54 -150 -3 -25 -3 -36 2 -26 7 18 8 18 14 2 15
-37 6 -56 -39 -86 -25 -18 -43 -34 -40 -37 2 -3 25 9 50 27 39 26 46 28 46 13
0 -11 -22 -31 -55 -51 -30 -18 -55 -37 -55 -42 0 -5 21 4 47 20 26 16 48 28
51 26 13 -14 -16 -50 -60 -72 -57 -29 -60 -42 -5 -19 30 12 37 13 37 2 0 -16
-41 -37 -70 -37 -11 0 -20 -5 -20 -11 0 -7 11 -9 28 -6 l27 5 -34 -29 c-49
-40 -94 -60 -156 -66 -62 -6 -165 4 -165 17 0 5 33 24 73 43 123 57 167 131
132 222 -29 78 -90 105 -233 105 -113 0 -168 -21 -207 -78 -64 -95 -3 -210
137 -260 26 -9 47 -21 45 -27 -8 -24 -180 -32 -240 -11 -45 16 -113 62 -121
81 -4 10 3 11 31 3 52 -14 51 -3 -2 18 -42 16 -85 57 -73 70 3 2 27 -5 53 -16
66 -28 69 -17 3 16 -59 30 -68 39 -68 72 l0 22 38 -23 c20 -13 44 -27 52 -31
18 -9 -28 32 -63 56 -23 16 -25 24 -28 126 -4 98 -7 114 -37 175 -36 73 -93
123 -154 133 -29 5 -26 2 17 -19 85 -41 141 -126 151 -230 l5 -52 -30 62 c-38
80 -71 123 -113 147 l-33 18 35 -30 c19 -16 44 -45 55 -63 l19 -34 -43 37
c-72 62 -125 82 -216 82 -62 1 -91 -4 -127 -21 -59 -27 -144 -105 -170 -157
-19 -37 -17 -36 37 22 69 75 152 119 243 128 69 8 85 -6 25 -23 -36 -9 -35
-10 31 -11 47 -1 82 -8 111 -22 73 -35 138 -122 159 -211 l6 -27 -38 14 c-62
22 -81 15 -22 -9 42 -17 56 -28 58 -45 3 -19 0 -23 -15 -18 -52 15 -145 26
-212 25 -128 -2 -144 -15 -21 -16 117 -2 250 -27 257 -50 3 -7 -42 -12 -139
-16 -79 -2 -160 -10 -181 -17 -54 -16 -40 -23 19 -9 63 15 292 15 307 0 8 -8
1 -11 -24 -11 -70 0 -299 -73 -299 -95 0 -3 17 2 38 11 99 44 291 79 305 57 4
-6 -11 -13 -35 -17 -47 -8 -149 -55 -188 -86 -15 -12 3 -6 46 15 81 41 178 65
194 49 7 -7 -15 -26 -72 -61 -46 -28 -103 -73 -128 -99 -46 -48 -41 -46 55 28
53 40 162 94 172 84 4 -4 -6 -17 -22 -29 -51 -36 -159 -144 -180 -179 -13 -22
2 -11 44 34 35 37 90 86 123 108 60 40 60 40 89 23 16 -10 29 -20 29 -23 0 -3
-22 -22 -49 -42 -61 -46 -114 -111 -141 -172 -28 -61 -37 -170 -19 -214 13
-31 14 -28 11 50 -5 116 19 179 102 262 103 106 108 103 62 -32 -29 -87 -40
-139 -44 -203 -6 -107 7 -154 87 -314 52 -105 85 -196 120 -325 8 -29 9 -31
10 -10 2 61 -43 202 -108 340 -78 163 -96 234 -87 330 7 67 77 293 84 272 2
-7 7 -10 12 -7 11 7 6 -36 -8 -62 -20 -36 -52 -185 -51 -233 l1 -45 9 55 c10
71 54 207 77 242 l18 28 34 -35 33 -34 -23 -53 c-39 -90 -60 -170 -65 -248
l-4 -75 18 90 c22 104 78 258 92 250 5 -4 2 -22 -7 -43 -50 -115 -57 -147 -60
-272 l-3 -125 14 120 c15 129 20 152 55 233 22 51 33 61 45 42 3 -5 21 -17 40
-26 20 -9 35 -24 35 -33 0 -33 -32 -126 -71 -206 -33 -67 -36 -75 -14 -50 36
43 101 172 116 228 6 27 16 44 20 40 5 -5 4 -24 -1 -43 -6 -19 -10 -39 -9 -45
1 -15 37 68 38 88 1 9 5 17 11 17 5 0 7 7 4 15 -4 11 -2 13 9 9 9 -3 21 4 31
18 l16 22 1 -34 c0 -29 2 -31 9 -15 5 11 9 34 9 50 1 26 7 33 34 43 18 7 37
12 41 12 14 0 55 -106 70 -182 41 -201 18 -262 -172 -461 -97 -102 -138 -152
-161 -199 -49 -104 -46 -118 9 -33 32 48 110 138 196 227 80 81 151 163 159
182 39 93 -6 359 -80 476 -28 44 -26 68 4 78 13 4 125 -105 155 -151 10 -15
26 -53 36 -84 18 -55 19 -56 19 -22 1 54 -53 153 -124 225 -60 61 -67 84 -27
84 23 0 106 -65 168 -132 31 -35 51 -51 44 -38 -23 46 -79 108 -130 145 -28
20 -48 41 -45 46 9 14 120 -47 150 -83 42 -50 84 -149 97 -231 16 -106 -4
-188 -87 -362 -81 -168 -125 -265 -125 -273 0 -11 66 85 127 183 71 114 238
442 264 517 64 191 -51 363 -271 404 l-45 9 75 6 c69 5 201 -3 254 -16 11 -2
5 3 -14 12 -25 12 -72 18 -168 21 -89 3 -132 8 -129 15 10 32 262 58 356 38
66 -14 80 -7 20 10 -52 15 -270 15 -318 0 -36 -11 -62 -4 -40 10 25 16 143 58
204 74 l60 15 -57 -5 c-49 -4 -136 -27 -190 -50 -11 -4 -18 -3 -18 4 0 7 24
23 53 36 34 16 42 23 22 18 -16 -3 -38 -10 -48 -15 -10 -5 -20 -8 -22 -6 -2 2
8 27 21 55 54 113 184 182 324 170 85 -7 148 -36 200 -93 43 -47 48 -46 25 9
-32 77 -120 146 -185 147 -19 0 -14 -5 25 -24 28 -13 59 -33 70 -46 l20 -23
-25 15 c-85 53 -247 63 -341 21 -58 -26 -115 -76 -151 -132 -25 -40 -28 -42
-28 -20 0 32 43 119 73 147 12 12 47 35 77 51 30 17 49 31 42 31 -17 0 -70
-27 -109 -57 -49 -36 -40 -12 13 37 54 50 110 76 201 94 47 9 57 14 33 14 -19
0 -53 -4 -75 -8z m-599 -421 c28 -23 11 -29 -90 -29 -58 0 -116 -4 -130 -10
-49 -18 -17 28 34 50 30 12 168 4 186 -11z m-166 -155 c0 -16 -56 -19 -80 -4
-11 7 -7 10 17 10 17 0 35 5 38 10 8 13 25 3 25 -16z m210 5 c25 0 25 0 3 -11
-27 -13 -53 -4 -53 19 0 13 3 14 12 5 7 -7 23 -12 38 -13z m446 -41 c63 -23
133 -94 159 -161 32 -84 20 -137 -71 -313 -43 -84 -80 -151 -82 -150 -1 2 2
34 7 72 26 180 -58 377 -189 444 -22 11 -47 20 -56 20 -14 0 -14 2 -3 16 31
37 160 -22 248 -114 36 -37 53 -50 38 -30 -34 47 -34 58 0 27 26 -23 26 -23
-3 13 -16 21 -33 38 -38 38 -5 0 -2 -8 5 -17 13 -16 12 -17 -3 -4 -10 7 -15
17 -13 22 7 11 -86 64 -148 85 -38 13 -46 19 -37 30 8 8 23 11 43 8 85 -14
130 -28 162 -49 23 -16 32 -19 28 -9 -7 20 -86 58 -150 74 -29 6 -50 16 -47
21 8 13 86 1 150 -23z m-396 -155 c0 -11 -58 -56 -100 -79 -48 -25 -170 -25
-220 0 -38 20 -80 55 -80 67 0 9 82 14 273 17 70 1 127 -1 127 -5z"/>
<path d="M3266 1537 c3 -10 9 -15 12 -12 3 3 0 11 -7 18 -10 9 -11 8 -5 -6z"/>
<path d="M1619 2312 c-55 -35 -102 -88 -134 -152 -35 -68 -31 -76 5 -12 32 55
91 120 150 165 46 35 35 34 -21 -1z"/>
<path d="M1728 1913 c7 -3 16 -2 19 1 4 3 -2 6 -13 5 -11 0 -14 -3 -6 -6z"/>
<path d="M1735 1810 c-3 -6 1 -7 9 -4 18 7 21 14 7 14 -6 0 -13 -4 -16 -10z"/>
<path d="M2141 1384 c0 -11 3 -14 6 -6 3 7 2 16 -1 19 -3 4 -6 -2 -5 -13z"/>
<path d="M2124 1304 c-3 -31 -4 -78 -1 -104 6 -50 34 -127 42 -118 3 3 -2 22
-12 44 -12 28 -17 66 -16 137 0 53 -1 97 -3 97 -1 0 -6 -25 -10 -56z"/>
<path d="M2985 1247 c0 -83 -4 -99 -33 -161 -24 -52 -28 -65 -14 -53 27 25 68
106 76 150 7 38 -9 143 -22 151 -4 2 -7 -37 -7 -87z"/>
<path d="M2800 1320 c0 -3 5 -21 11 -40 6 -19 14 -71 19 -115 l8 -80 -2 90
c-2 61 -8 100 -19 120 -9 17 -16 28 -17 25z"/>
<path d="M2652 1038 c-11 -29 -42 -99 -67 -156 -26 -57 -45 -105 -43 -107 7
-7 116 217 128 264 16 61 7 61 -18 -1z"/>
<path d="M2537 1023 c-3 -21 -2 -58 3 -83 7 -40 8 -36 9 38 1 88 -3 105 -12
45z"/>
<path d="M2803 728 c-12 -35 -25 -72 -28 -83 l-7 -20 17 20 c17 22 49 119 43
135 -2 6 -13 -18 -25 -52z"/>
</g>
</svg>