<?xml version="1.0" standalone="no"?>
<!DOCTYPE svg PUBLIC "-//W3C//DTD SVG 20010904//EN"
 "http://www.w3.org/TR/2001/REC-SVG-20010904/DTD/svg10.dtd">
<svg version="1.0" xmlns="http://www.w3.org/2000/svg"
 width="512.000000pt" height="512.000000pt" viewBox="0 0 512.000000 512.000000"
 preserveAspectRatio="xMidYMid meet">
<metadata>
Created by potrace 1.16, written by Peter Selinger 2001-2019
</metadata>
<g transform="translate(0.000000,512.000000) scale(0.100000,-0.100000)"
fill="#000000" stroke="none">
<path d="M824 4779 c-154 -59 -218 -196 -193 -416 14 -127 51 -271 92 -358 33
-69 140 -212 179 -239 20 -14 20 -14 -3 -18 -19 -2 -10 -10 45 -36 37 -17 73
-32 79 -32 6 0 -11 -23 -38 -51 -30 -31 -42 -49 -30 -45 25 9 15 -1 -32 -31
-36 -23 -37 -24 -9 -18 l29 6 -27 -31 c-24 -29 -33 -50 -21 -50 3 0 29 21 58
48 29 26 63 55 77 65 22 15 22 16 3 7 -38 -18 -25 3 32 50 29 25 54 48 54 51
1 3 -11 4 -26 2 l-28 -4 35 31 c19 17 58 42 85 55 l50 24 -35 1 -35 1 30 16
c17 9 62 29 100 44 69 28 66 37 -7 20 -50 -12 -48 -5 5 19 l42 20 -62 0 c-76
0 -115 12 -64 20 l34 5 -39 29 c-22 15 -30 25 -19 21 11 -3 45 -9 75 -11 l55
-5 -37 21 c-52 28 -48 33 8 10 25 -11 64 -20 87 -19 39 0 41 1 22 14 -62 44
-62 42 -1 37 37 -3 56 -1 56 7 0 23 -73 91 -149 137 -44 26 -77 52 -75 56 3 4
-3 8 -13 8 -10 1 -38 12 -63 25 l-45 25 40 -6 c65 -9 157 -36 200 -57 l40 -19
-40 41 c-39 41 -64 58 -30 21 24 -27 20 -26 -68 15 -42 20 -109 43 -148 52
-68 15 -71 16 -48 29 13 7 42 14 64 15 l40 1 -40 10 c-22 5 -79 8 -127 6 -56
-2 -84 0 -77 7 5 5 58 9 117 9 116 0 235 -20 211 -35 -12 -7 -12 -9 0 -9 8 0
55 -23 104 -51 88 -50 126 -63 64 -23 -144 95 -179 114 -227 129 -31 9 -101
18 -160 20 -58 2 -112 5 -120 6 -21 2 108 28 150 29 l35 2 -28 8 c-16 5 -63
11 -105 14 -139 11 -189 -30 -120 -97 18 -17 42 -37 53 -44 11 -6 14 -12 7
-12 -7 -1 -33 18 -57 40 l-45 42 5 -152 c6 -153 11 -178 58 -281 28 -62 58
-97 135 -164 44 -38 49 -46 30 -46 -12 0 -40 9 -62 20 -47 23 -122 86 -91 75
17 -5 17 -3 -6 22 -30 33 -98 163 -75 144 13 -11 14 -9 7 16 -5 15 -14 41 -21
58 -14 36 -40 145 -34 145 2 0 11 -12 19 -27 16 -27 16 -27 10 -3 -3 14 -9 64
-12 112 -5 76 -3 92 16 132 25 50 73 96 99 96 10 -1 4 -7 -13 -14 -30 -13 -30
-13 30 -20 33 -4 91 -14 129 -21 84 -18 102 -18 56 1 l-35 14 55 -5 c30 -3 66
-8 80 -11 l25 -5 -25 15 c-42 24 -144 46 -216 46 -82 0 -79 7 7 19 84 11 139
-3 281 -74 158 -79 236 -141 302 -240 34 -52 35 -73 1 -51 -36 23 -38 20 -15
-24 28 -55 26 -59 -22 -49 -61 12 -63 11 -43 -11 18 -19 17 -20 -5 -20 -22 0
-22 -1 -6 -19 10 -11 15 -25 10 -32 -5 -9 -2 -10 9 -6 16 6 67 19 120 31 26 6
27 8 12 29 -23 33 -19 36 30 22 l45 -14 -16 25 c-16 24 -16 24 12 24 16 0 49
-9 73 -20 24 -11 45 -20 47 -20 9 0 -19 46 -44 73 -37 39 -19 33 28 -9 22 -20
40 -34 40 -31 0 2 -7 24 -15 47 -20 57 -19 67 5 39 l19 -24 1 25 c0 14 -7 53
-16 85 -9 33 -17 65 -18 70 -2 12 -136 141 -136 131 0 -4 6 -17 14 -29 7 -12
17 -35 21 -52 l7 -30 -22 28 c-28 35 -40 34 -40 -4 l0 -31 -37 28 c-21 16 -69
55 -108 87 -134 112 -305 209 -417 236 -74 18 -195 13 -254 -10z m285 -56
c194 -64 477 -276 512 -383 27 -81 14 -80 -74 5 -130 127 -271 211 -452 269
-175 56 -277 65 -332 30 -36 -23 -39 -16 -7 17 78 82 218 107 353 62z m-204
-473 c16 -16 24 -30 19 -30 -6 0 -20 14 -32 30 -13 17 -21 30 -19 30 2 0 16
-13 32 -30z m-4 -67 c13 -16 12 -17 -3 -4 -10 7 -18 15 -18 17 0 8 8 3 21 -13z
m-25 -78 c38 -49 38 -49 8 -28 -17 12 -35 19 -39 15 -5 -4 -5 -2 -1 5 4 7 -2
14 -15 18 -13 4 -18 12 -15 22 3 8 6 20 6 26 0 12 -1 13 56 -58z m429 36 c51
-29 102 -77 93 -86 -4 -4 -134 87 -156 110 -14 14 18 2 63 -24z m-352 -202
c-12 -4 -7 -12 21 -37 19 -17 31 -34 26 -37 -6 -4 -13 1 -16 10 -4 9 -12 14
-18 12 -6 -2 -18 11 -27 29 -9 18 -12 31 -8 28 5 -3 9 2 9 11 0 10 -5 13 -12
9 -7 -4 -10 -4 -6 1 5 5 -1 14 -12 22 -11 8 -20 22 -20 31 0 11 14 2 40 -28
30 -35 35 -46 23 -51z"/>
<path d="M3993 4772 c-105 -38 -209 -97 -320 -183 -48 -38 -118 -91 -155 -119
l-68 -50 0 36 0 37 -21 -19 -22 -19 7 45 7 45 -33 -32 c-26 -25 -45 -33 -88
-39 -50 -6 -53 -5 -36 8 17 14 12 15 -60 11 l-79 -4 30 25 30 26 -75 -30 c-92
-36 -110 -38 -84 -9 19 21 19 22 -1 16 -70 -22 -149 -38 -168 -35 -21 3 -20 5
8 20 l30 17 -36 1 c-47 0 -150 -20 -169 -34 -8 -6 -6 -1 4 12 25 29 13 28 -42
-4 -40 -24 -44 -24 -38 -8 3 11 -9 3 -29 -18 l-34 -37 -28 23 c-28 23 -86 56
-99 56 -4 0 3 -12 17 -27 l24 -27 -34 24 c-18 13 -45 24 -60 25 -14 1 -53 5
-86 9 l-60 7 40 -25 c48 -31 45 -32 -23 -6 -62 24 -84 25 -57 4 19 -15 17 -16
-30 -12 -28 3 -78 17 -110 32 l-60 27 28 -29 28 -29 -62 9 c-34 4 -64 6 -66 4
-3 -3 8 -11 24 -20 l28 -15 -35 5 c-19 3 -51 10 -70 15 l-35 8 24 -19 c13 -11
31 -20 40 -20 9 -1 39 -9 67 -18 36 -13 50 -14 47 -6 -10 28 18 21 64 -14 26
-21 55 -42 63 -47 13 -8 13 -7 0 11 -8 10 -22 25 -30 32 -13 12 -12 13 5 7 16
-5 18 -4 7 6 -13 14 -16 29 -4 29 4 0 31 -18 60 -40 28 -22 52 -38 52 -35 0 2
-15 21 -32 41 l-33 37 40 -6 c21 -4 53 -17 70 -29 l30 -22 -18 27 c-20 31 -12
33 40 12 19 -8 36 -15 38 -15 1 0 2 7 2 15 0 8 -4 15 -9 15 -4 0 -8 4 -8 10 0
16 34 -1 64 -34 l28 -31 -17 29 c-16 27 -16 29 0 23 9 -4 21 -7 27 -7 6 0 29
-19 51 -42 33 -35 36 -37 18 -10 -12 17 -17 32 -11 32 6 0 21 -17 33 -37 l22
-38 3 27 c3 25 43 68 63 68 5 0 0 -17 -11 -37 -29 -55 -24 -63 10 -16 17 23
47 51 68 63 l37 22 -20 -23 c-12 -13 -27 -33 -35 -44 -17 -23 -14 -21 57 35
24 18 45 31 47 29 2 -2 -2 -21 -9 -41 l-12 -37 31 23 c63 46 80 41 33 -11 -16
-18 -8 -16 44 12 35 19 68 35 73 35 5 0 -10 -20 -33 -45 -22 -24 -41 -47 -41
-50 0 -3 24 12 53 35 61 45 71 49 62 20 -8 -25 0 -25 33 -1 15 10 37 24 50 30
22 12 23 11 12 -9 -6 -12 -10 -24 -7 -26 3 -3 34 11 71 31 75 42 86 41 25 -1
-33 -22 -37 -29 -24 -34 9 -3 38 4 63 17 26 12 61 25 77 29 l30 7 -21 -24
c-25 -28 -64 -90 -64 -102 0 -5 21 19 48 54 26 35 46 67 44 72 -1 5 2 6 7 3 5
-4 12 -2 16 4 3 5 10 10 15 10 5 0 1 -15 -10 -32 -22 -39 -55 -121 -64 -163
l-6 -30 26 30 26 30 -6 -65 -6 -65 29 33 c40 43 56 41 26 -4 -34 -50 -32 -55
15 -33 21 10 51 19 66 19 l27 0 -21 -23 -21 -22 45 4 c44 3 45 2 33 -17 -16
-26 -13 -30 42 -42 24 -5 58 -12 74 -16 17 -4 27 -3 22 1 -4 5 5 21 19 36 l27
28 -39 -6 c-36 -6 -38 -5 -25 10 12 15 9 17 -32 17 -51 0 -53 7 -15 62 23 33
23 41 -1 28 -32 -17 -32 -12 0 39 47 77 134 157 233 216 159 93 232 113 342
94 38 -6 80 -18 94 -25 l25 -14 -30 7 c-16 5 -70 8 -120 7 -75 0 -101 -5 -158
-28 -37 -16 -67 -30 -65 -31 2 -2 28 3 58 11 34 9 106 14 193 14 96 0 136 3
132 11 -4 6 1 6 12 -2 58 -36 95 -162 76 -259 -10 -50 -3 -65 17 -32 16 27 2
-30 -30 -120 -16 -42 -24 -78 -19 -80 11 -4 -60 -119 -99 -160 -28 -30 -24
-35 11 -17 21 12 21 11 4 -8 -36 -41 -102 -79 -142 -82 l-40 -3 40 32 c22 18
39 37 37 42 -1 5 2 7 6 4 12 -7 122 108 121 126 0 8 -2 9 -5 2 -3 -7 -23 -10
-49 -8 -32 2 -45 -1 -45 -11 0 -7 -7 -16 -16 -19 -28 -11 -28 -6 -1 22 15 16
25 30 23 33 -2 2 16 27 41 54 25 28 38 37 29 22 -15 -25 -15 -29 -1 -43 8 -8
15 -20 15 -25 0 -5 4 -9 8 -9 5 0 19 35 31 78 13 42 26 85 30 95 3 9 3 74 0
142 -7 139 -14 155 -77 176 -46 15 -146 7 -201 -17 l-43 -19 86 0 c107 0 137
-19 33 -21 -132 -3 -230 -28 -344 -91 -56 -31 -110 -64 -120 -75 -10 -11 18 0
68 26 125 67 268 111 354 110 39 -1 81 -6 95 -12 19 -8 8 -9 -50 -5 -87 6
-143 -7 -184 -42 -16 -14 -37 -25 -47 -25 -20 0 -37 -20 -17 -20 7 -1 -12 -14
-42 -30 -30 -16 -68 -41 -85 -55 l-30 -26 52 25 c54 27 201 71 209 63 6 -5
-89 -47 -108 -47 -10 0 -10 -2 0 -8 8 -6 -17 -26 -79 -63 -50 -30 -111 -74
-136 -99 -46 -45 -46 -45 -20 -48 14 -2 43 1 63 7 51 14 53 8 7 -20 -38 -24
-38 -24 -11 -27 14 -2 59 11 100 28 78 33 79 25 1 -22 l-48 -29 45 6 c25 4 60
11 78 17 45 14 50 5 12 -23 -27 -21 -29 -24 -13 -31 11 -4 -1 -7 -32 -7 -65
-2 -90 -16 -43 -25 19 -3 43 -13 54 -22 19 -15 19 -15 -1 -10 -11 3 -38 7 -60
11 -38 5 -37 4 15 -15 30 -11 73 -29 95 -40 l40 -20 -34 0 -33 0 59 -39 c32
-22 68 -50 78 -62 l20 -22 -30 7 c-28 6 -25 2 28 -48 46 -41 55 -55 43 -59 -9
-4 -16 -3 -16 2 0 5 -10 11 -22 14 -22 6 -22 6 2 -13 13 -10 27 -18 30 -17 3
1 23 -15 44 -35 22 -21 36 -38 33 -38 -4 0 -37 16 -74 36 l-68 36 45 -41 45
-41 -64 31 c-35 16 -66 27 -70 24 -3 -4 2 -11 12 -16 53 -30 310 -239 303
-247 -2 -2 -48 20 -102 47 -139 72 -153 64 -20 -11 l51 -29 -40 7 c-50 8 -42
-2 11 -15 l39 -9 -46 -1 c-25 -1 -49 -4 -52 -8 -4 -3 15 -21 41 -38 51 -35 87
-70 60 -60 -8 3 12 -22 44 -55 67 -71 76 -97 17 -48 -79 64 -83 62 -19 -8 60
-66 119 -151 136 -199 6 -13 -7 -7 -42 22 -27 23 -71 55 -99 72 -27 17 -68 42
-91 56 -22 13 -56 27 -75 31 l-34 6 40 -24 c51 -31 245 -177 245 -185 0 -3 -8
0 -17 8 -10 8 -34 23 -53 33 l-35 19 30 -33 30 -34 -50 37 c-51 38 -145 91
-145 82 0 -2 15 -12 33 -21 56 -29 166 -124 164 -143 -1 -14 -19 -3 -77 47
-61 53 -178 122 -206 122 -7 0 134 -97 188 -129 39 -23 133 -138 133 -164 0
-6 6 -12 13 -12 8 0 20 -9 28 -19 28 -39 23 -8 -12 64 -19 40 -34 79 -32 86 5
21 65 -31 100 -85 l30 -46 -5 45 c-4 25 -9 61 -12 80 -5 26 -4 31 4 20 21 -29
11 10 -34 141 -55 161 -87 220 -144 271 -44 38 -44 39 -16 32 63 -14 122 -37
165 -62 l45 -26 -55 65 c-30 35 -100 111 -155 169 -55 58 -88 95 -74 82 44
-39 55 1 14 54 -30 40 -31 48 -5 34 31 -17 24 -3 -19 36 -22 19 -49 50 -59 68
l-20 34 66 30 c48 23 61 33 49 38 -14 5 -4 20 53 81 84 90 119 150 159 268 58
174 78 385 46 492 -19 65 -90 145 -159 180 -42 22 -67 27 -146 30 -85 3 -104
1 -177 -25z m257 -44 c43 -14 107 -55 114 -74 5 -12 2 -12 -17 -2 -65 36 -325
-10 -470 -83 -137 -69 -209 -125 -318 -244 -37 -41 -60 -61 -57 -48 4 16 2 20
-8 16 -20 -7 -18 0 15 66 32 63 94 124 206 203 234 166 384 212 535 166z
m-2258 -272 c7 4 8 2 4 -5 -9 -13 -26 -5 -25 12 0 9 2 8 6 -1 2 -6 10 -9 15
-6z m2296 -48 c-8 -12 -30 -33 -49 -47 -30 -22 -29 -20 11 22 48 51 61 59 38
25z m-28 -142 c0 -2 -17 -16 -37 -32 l-37 -28 19 26 c11 15 27 29 35 31 8 3
16 5 18 6 1 0 2 -1 2 -3z m-25 -101 c-39 -32 -55 -32 -25 0 13 14 31 25 39 25
11 0 6 -8 -14 -25z m53 -10 c-1 -13 -4 -22 -7 -20 -2 3 -21 -9 -42 -26 -22
-17 -39 -27 -39 -23 0 7 80 94 87 94 2 0 2 -11 1 -25z m-418 1 c0 -9 -152
-107 -158 -101 -7 7 21 32 87 76 39 25 71 37 71 25z m327 -210 c-7 -14 -24
-32 -39 -41 -16 -9 -28 -23 -28 -31 0 -8 -9 -14 -22 -14 -19 0 -14 9 35 51 31
28 54 56 51 61 -4 6 -2 8 4 5 7 -5 7 -14 -1 -31z"/>
<path d="M4050 4518 c-19 -6 -30 -12 -24 -14 5 -3 28 2 50 10 45 17 26 19 -26
4z"/>
<path d="M1770 4476 c0 -3 18 -15 40 -26 23 -12 38 -25 35 -29 -2 -5 2 -14 10
-21 8 -7 15 -9 15 -5 0 5 9 0 20 -10 11 -10 23 -16 26 -13 8 9 -56 79 -80 88
-43 15 -66 21 -66 16z"/>
<path d="M1215 4446 c17 -7 41 -16 55 -20 20 -5 19 -3 -5 8 -16 7 -41 16 -55
20 -20 5 -19 3 5 -8z"/>
<path d="M3880 4450 c-8 -5 -10 -10 -5 -10 6 0 17 5 25 10 8 5 11 10 5 10 -5
0 -17 -5 -25 -10z"/>
<path d="M1930 4386 c0 -8 112 -92 147 -110 59 -30 47 -16 -38 42 -99 69 -109
75 -109 68z"/>
<path d="M1834 4333 c4 -30 14 -55 28 -68 12 -11 17 -13 11 -5 -6 8 -14 31
-18 50 l-7 35 28 -25 c26 -23 26 -22 -5 18 -18 23 -35 42 -38 42 -3 0 -3 -21
1 -47z"/>
<path d="M3089 4298 c-83 -80 -127 -134 -117 -143 4 -5 187 188 202 213 13 22
2 13 -85 -70z"/>
<path d="M2589 4301 c-14 -47 -21 -50 -37 -18 -8 16 -9 0 -5 -68 3 -49 7 -91
8 -93 1 -1 14 46 28 105 25 109 29 150 6 74z"/>
<path d="M2661 4273 c-31 -63 -52 -141 -33 -129 12 7 75 177 68 183 -3 3 -18
-22 -35 -54z"/>
<path d="M2739 4271 c-29 -33 -56 -58 -60 -55 -8 5 -25 -64 -17 -71 4 -4 112
138 132 173 16 27 -6 9 -55 -47z"/>
<path d="M2351 4284 c97 -142 109 -157 109 -138 0 12 -13 39 -29 60 -31 42
-105 114 -80 78z"/>
<path d="M2440 4235 c38 -64 50 -80 50 -67 0 21 -26 65 -51 87 l-23 20 24 -40z"/>
<path d="M1288 4210 c24 -11 58 -30 75 -42 17 -12 27 -17 23 -10 -9 16 -85 58
-116 66 -14 3 -5 -3 18 -14z"/>
<path d="M2050 4165 c65 -65 70 -70 70 -59 0 11 -113 124 -124 124 -6 0 19
-29 54 -65z"/>
<path d="M2387 4170 c18 -19 34 -32 36 -29 2 2 -12 17 -32 33 l-36 30 32 -34z"/>
<path d="M2794 4102 c-82 -78 -127 -140 -160 -223 -27 -65 -28 -69 -16 -69 4
0 21 26 36 57 41 84 93 159 160 231 32 34 57 65 54 67 -2 3 -36 -26 -74 -63z"/>
<path d="M3148 4094 c-90 -71 -121 -103 -145 -149 -10 -19 26 10 98 79 63 60
121 115 129 123 8 7 11 13 7 13 -3 0 -44 -30 -89 -66z"/>
<path d="M1946 4136 c3 -8 38 -41 77 -73 95 -78 123 -95 62 -38 -87 81 -145
127 -139 111z"/>
<path d="M2016 4114 c67 -50 164 -145 231 -227 31 -37 58 -66 60 -63 3 3 -8
28 -24 57 -50 94 -247 269 -302 269 -8 0 8 -16 35 -36z"/>
<path d="M2476 4127 c3 -10 9 -15 12 -12 3 3 0 11 -7 18 -10 9 -11 8 -5 -6z"/>
<path d="M2420 4126 c0 -2 8 -10 18 -17 15 -13 16 -12 3 4 -13 16 -21 21 -21
13z"/>
<path d="M2299 4082 c6 -11 14 -22 19 -24 18 -7 96 -116 117 -165 13 -29 33
-104 45 -168 12 -63 26 -118 32 -121 10 -7 4 38 -18 127 -18 71 -17 80 2 49
l15 -25 -5 34 c-15 86 -133 267 -198 302 -17 9 -18 8 -9 -9z"/>
<path d="M1575 4070 c-17 -7 -15 -9 12 -9 17 -1 35 4 38 9 7 12 -22 12 -50 0z"/>
<path d="M3480 4060 c-20 -6 -14 -8 25 -8 37 -1 45 2 30 8 -24 10 -23 10 -55
0z"/>
<path d="M2709 4043 c-13 -16 -12 -17 4 -4 16 13 21 21 13 21 -2 0 -10 -8 -17
-17z"/>
<path d="M2310 4036 c0 -2 8 -10 18 -17 15 -13 16 -12 3 4 -13 16 -21 21 -21
13z"/>
<path d="M2025 3990 c21 -22 41 -40 44 -40 3 0 -13 18 -34 40 -21 22 -41 40
-44 40 -3 0 13 -18 34 -40z"/>
<path d="M1520 4000 c0 -5 5 -10 11 -10 5 0 7 5 4 10 -3 6 -8 10 -11 10 -2 0
-4 -4 -4 -10z"/>
<path d="M1983 3985 c0 -8 4 -12 9 -9 5 3 6 10 3 15 -9 13 -12 11 -12 -6z"/>
<path d="M2894 3978 l-19 -23 23 19 c12 11 22 21 22 23 0 8 -8 2 -26 -19z"/>
<path d="M2540 3843 c0 -76 5 -145 10 -153 6 -10 10 35 10 138 0 95 -4 152
-10 152 -6 0 -10 -52 -10 -137z"/>
<path d="M2820 3898 c-12 -22 -12 -22 6 -6 10 10 15 20 12 24 -4 3 -12 -5 -18
-18z"/>
<path d="M2849 3883 c-13 -16 -12 -17 4 -4 16 13 21 21 13 21 -2 0 -10 -8 -17
-17z"/>
<path d="M3306 3892 c-2 -4 11 -6 30 -4 19 2 34 6 34 8 0 8 -59 4 -64 -4z"/>
<path d="M2742 3858 c-14 -19 -54 -99 -50 -103 2 -2 17 23 34 56 31 59 35 70
16 47z"/>
<path d="M3153 3823 c-48 -45 -112 -153 -148 -249 -14 -38 -45 -103 -69 -144
-23 -41 -46 -84 -51 -95 -6 -17 -13 -7 -42 55 -19 41 -37 89 -40 107 -8 48 13
119 58 198 29 49 34 64 19 50 -28 -25 -65 -88 -86 -145 -24 -69 -21 -307 6
-368 24 -53 26 -74 5 -46 -28 37 -17 -14 19 -90 27 -56 50 -86 110 -139 79
-71 129 -135 148 -188 10 -28 8 -33 -23 -60 -20 -18 -24 -24 -9 -15 31 20 40
20 40 1 0 -8 5 -15 10 -15 6 0 10 10 10 23 0 18 17 33 78 70 105 63 229 116
290 124 56 6 97 -9 88 -34 -5 -12 -1 -14 16 -9 100 29 292 68 333 68 45 0 47
1 15 7 -32 6 -33 8 -12 15 12 4 20 11 17 16 -3 5 7 12 22 17 23 8 14 11 -62
22 -93 13 -168 41 -131 49 18 4 18 5 -5 19 -23 13 -21 14 26 10 l50 -4 -35 14
c-19 7 -44 17 -55 22 -12 5 6 7 48 3 37 -2 67 -2 67 1 0 4 -33 16 -72 27 -40
12 -84 26 -98 32 l-25 11 25 7 25 7 -30 8 c-16 4 -61 24 -100 43 -67 35 -69
36 -40 42 28 5 25 7 -33 24 -41 13 -58 22 -50 28 17 11 -4 25 -49 34 -40 8
-42 17 -5 30 25 10 24 11 -28 18 -39 5 -50 10 -40 16 11 7 3 10 -25 10 -30 0
-36 3 -25 10 21 13 -60 13 -94 0 -30 -11 -36 3 -8 20 30 19 -28 0 -80 -26 -47
-24 -48 -24 -48 -5 0 48 114 125 207 141 l48 8 -41 1 c-55 1 -128 -22 -194
-64 -51 -31 -55 -33 -58 -15 -10 60 61 212 136 293 53 56 51 62 -5 10z m87
-530 c0 -45 -46 -93 -87 -92 -15 0 -21 3 -13 6 62 20 87 59 75 115 -7 29 -6
31 9 19 9 -8 16 -28 16 -48z m-75 27 c0 -22 -50 -37 -70 -20 -16 13 -15 15 2
27 23 17 68 13 68 -7z m114 -77 c-13 -25 -35 -53 -49 -62 -20 -12 -17 -7 11
26 21 22 40 56 44 74 5 19 10 28 13 21 2 -7 -7 -34 -19 -59z m-293 -9 c-4 -14
-9 -24 -12 -21 -3 2 -2 17 2 31 3 15 9 25 11 22 3 -3 2 -17 -1 -32z m94 -58
c25 -8 36 -15 25 -15 -21 1 -98 27 -80 28 6 0 30 -6 55 -13z m396 3 c4 -6 19
-9 36 -5 37 7 86 -3 67 -14 -12 -8 46 -29 81 -30 8 -1 -3 -11 -25 -23 -38 -20
-39 -22 -15 -25 14 -2 33 -11 42 -19 17 -15 17 -17 0 -29 -15 -12 -14 -13 13
-14 27 -1 25 -3 -18 -18 -26 -10 -51 -22 -55 -28 -4 -6 -14 -14 -22 -17 -9 -3
-2 -6 15 -7 83 -4 61 -17 -53 -33 -135 -18 -224 -50 -358 -131 -85 -51 -71
-59 -113 62 -27 80 -27 102 -1 95 16 -4 19 -2 13 12 -5 15 -2 17 15 13 27 -7
28 -1 3 26 -10 12 -27 34 -37 51 l-19 30 31 -22 c37 -26 101 -43 164 -42 l45
0 -40 13 c-87 27 -112 54 -45 48 40 -4 57 12 23 21 -10 3 -4 5 13 6 53 2 97
13 83 21 -7 5 13 13 47 20 32 7 68 16 79 20 18 8 18 9 -5 9 -20 1 -22 3 -10
11 20 13 37 12 46 -1z m-286 -19 c-8 -5 -26 -9 -40 -9 -23 1 -23 2 5 9 43 11
52 11 35 0z"/>
<path d="M1903 3837 c10 -8 14 -17 10 -19 -4 -3 -2 -3 5 -2 6 2 12 -1 12 -6 0
-6 7 -10 15 -10 8 0 15 -4 15 -10 0 -5 19 -22 43 -36 23 -15 56 -38 72 -53 17
-14 12 -8 -11 14 -22 22 -59 54 -80 71 -41 32 -113 78 -81 51z"/>
<path d="M2799 3823 c-13 -16 -12 -17 4 -4 16 13 21 21 13 21 -2 0 -10 -8 -17
-17z"/>
<path d="M1658 3813 c12 -2 30 -2 40 0 9 3 -1 5 -23 4 -22 0 -30 -2 -17 -4z"/>
<path d="M1903 3776 c0 -8 14 -17 30 -20 43 -9 100 -73 125 -143 38 -104 35
-107 -56 -61 -64 33 -91 41 -148 44 l-69 3 54 -9 c67 -13 143 -53 182 -97 43
-50 39 -70 -8 -38 -41 27 -82 36 -47 10 16 -12 11 -12 -29 1 -47 16 -76 12
-47 -6 8 -6 11 -10 5 -10 -5 0 -16 4 -24 9 -13 8 -46 2 -96 -19 -11 -5 -33
-11 -50 -15 l-30 -7 24 -12 c27 -15 25 -17 -46 -40 -29 -10 -53 -20 -53 -23 0
-3 7 -3 15 0 8 4 17 2 19 -2 3 -4 -14 -14 -37 -21 -23 -7 -53 -19 -67 -27
l-25 -14 30 6 c29 5 29 5 10 -11 -11 -9 -51 -31 -90 -49 -70 -33 -70 -33 -35
-37 35 -4 35 -4 10 -15 -14 -7 -61 -23 -105 -37 l-80 -24 55 -2 55 -2 -35 -14
-35 -14 33 3 c34 4 39 -2 20 -21 -9 -9 -8 -12 8 -12 19 -1 19 -1 -1 -16 -26
-20 -77 -32 -153 -37 -60 -4 -100 -17 -51 -17 13 0 51 -9 84 -20 59 -20 51
-21 -45 -6 -19 4 -29 4 -22 0 20 -9 14 -24 -10 -25 -15 -1 -8 -6 21 -15 60
-19 60 -21 -4 -16 -66 5 -113 -3 -142 -26 -23 -17 -22 -17 28 -13 31 2 49 -1
46 -7 -4 -5 5 -7 21 -5 l27 5 -25 -21 -25 -22 30 7 c17 3 38 8 48 11 9 2 17 2
17 -1 0 -2 -30 -14 -67 -27 -70 -23 -174 -67 -160 -68 4 -1 44 8 88 20 101 26
119 20 46 -15 -32 -16 -60 -32 -63 -37 -7 -12 3 -11 27 1 21 12 26 1 8 -17 -6
-6 40 0 103 14 101 22 129 24 274 20 l161 -4 -13 50 c-7 28 -11 53 -9 56 8 7
162 -37 238 -69 91 -38 140 -68 132 -80 -3 -6 -2 -10 4 -10 5 0 11 5 13 12 3
8 11 7 28 -5 35 -24 48 -21 16 4 -15 12 -25 28 -22 35 3 8 -1 14 -10 14 -8 0
-13 4 -10 8 3 5 0 9 -7 9 -7 0 -43 21 -81 47 -86 56 -193 102 -272 115 -72 11
-144 33 -144 43 0 5 19 8 43 9 l42 0 -50 24 c-27 13 -59 26 -70 30 -14 4 -16
8 -7 14 7 4 10 14 7 23 -6 15 21 31 70 41 16 3 14 6 -13 17 -39 15 -36 19 31
44 71 26 176 25 227 -1 14 -7 34 -13 45 -13 15 0 17 -3 7 -9 -20 -12 8 -21 66
-21 43 -1 45 -2 28 -15 -17 -13 -14 -14 25 -17 l44 -4 -39 -18 c-22 -10 -58
-22 -80 -27 -34 -7 -28 -8 35 -5 65 4 95 12 163 44 6 3 -7 -18 -27 -46 -33
-44 -35 -50 -16 -45 18 5 21 3 16 -11 -6 -14 -3 -16 14 -11 19 6 20 4 13 -32
-4 -21 -20 -64 -36 -97 -33 -66 -32 -86 3 -29 12 21 69 85 125 143 70 71 116
128 143 178 40 73 42 85 9 55 -17 -15 -18 -14 -18 16 0 18 5 42 11 53 6 12 16
90 22 174 9 135 8 159 -7 206 -17 51 -83 164 -92 156 -2 -2 12 -33 30 -69 48
-90 61 -160 41 -224 -8 -28 -28 -72 -43 -98 l-29 -48 -25 48 c-80 157 -164
311 -179 334 -22 32 -116 85 -116 65z m4 -470 c-8 -37 -7 -50 7 -73 l17 -28
-25 28 c-28 30 -35 84 -14 105 21 21 25 13 15 -32z m93 26 c27 -22 20 -42 -14
-42 -28 0 -50 24 -42 45 7 20 29 19 56 -3z m148 -122 l0 -25 -8 25 c-4 14 -8
36 -8 50 l0 25 8 -25 c4 -14 8 -36 8 -50z m-235 -35 c22 -10 26 -14 13 -15
-20 0 -96 73 -96 93 0 6 12 -6 26 -27 14 -21 40 -44 57 -51z m190 8 c-7 -2
-21 -2 -30 0 -10 3 -4 5 12 5 17 0 24 -2 18 -5z m-86 -19 c-3 -3 -12 -4 -19
-1 -8 3 -5 6 6 6 11 1 17 -2 13 -5z m-40 -10 c-3 -3 -12 -4 -19 -1 -8 3 -5 6
6 6 11 1 17 -2 13 -5z m-640 -220 c-3 -3 -12 -4 -19 -1 -8 3 -5 6 6 6 11 1 17
-2 13 -5z m222 -75 c63 -18 67 -18 98 -2 31 17 35 17 80 0 62 -23 178 -90 223
-128 l35 -30 -33 16 c-78 38 -216 86 -346 120 -77 20 -147 40 -155 46 -18 11
-18 11 98 -22z"/>
<path d="M2591 3774 c0 -11 3 -14 6 -6 3 7 2 16 -1 19 -3 4 -6 -2 -5 -13z"/>
<path d="M3175 3769 c-16 -10 -24 -19 -17 -19 8 0 25 9 39 20 32 25 18 25 -22
-1z"/>
<path d="M2989 3763 c-13 -16 -12 -17 4 -4 9 7 17 15 17 17 0 8 -8 3 -21 -13z"/>
<path d="M1868 3753 c7 -3 16 -2 19 1 4 3 -2 6 -13 5 -11 0 -14 -3 -6 -6z"/>
<path d="M2956 3743 c-6 -14 -5 -15 5 -6 7 7 10 15 7 18 -3 3 -9 -2 -12 -12z"/>
<path d="M3208 3753 c6 -2 18 -2 25 0 6 3 1 5 -13 5 -14 0 -19 -2 -12 -5z"/>
<path d="M1303 3743 c-7 -2 -13 -11 -13 -19 0 -8 6 -11 15 -8 8 4 13 10 10 14
-3 5 1 11 7 13 7 3 9 5 3 5 -5 0 -16 -2 -22 -5z"/>
<path d="M2667 3703 c-21 -54 -32 -127 -18 -119 6 4 11 17 11 30 0 13 7 45 15
71 17 60 13 70 -8 18z"/>
<path d="M1578 3711 c-26 -4 -51 -11 -55 -15 -4 -5 8 -5 27 -1 19 5 87 11 150
15 l115 7 -95 0 c-52 0 -116 -3 -142 -6z"/>
<path d="M3365 3715 c25 -8 184 -12 179 -4 -3 5 -47 9 -97 8 -51 0 -87 -2 -82
-4z"/>
<path d="M3585 3700 c-3 -5 3 -10 14 -10 10 0 27 -3 37 -7 11 -4 15 -3 11 5
-4 6 1 13 10 15 10 3 -1 5 -24 6 -23 0 -45 -3 -48 -9z"/>
<path d="M1475 3690 c-3 -5 -2 -10 4 -10 5 0 13 5 16 10 3 6 2 10 -4 10 -5 0
-13 -4 -16 -10z"/>
<path d="M3880 3680 c-9 -6 -10 -10 -3 -10 6 0 15 5 18 10 8 12 4 12 -15 0z"/>
<path d="M1565 3649 c-5 -7 5 -8 32 -3 51 9 54 14 10 14 -20 0 -39 -5 -42 -11z"/>
<path d="M3472 3654 c9 -8 108 -13 108 -5 0 4 -25 8 -56 9 -31 0 -54 -1 -52
-4z"/>
<path d="M3648 3653 c7 -3 16 -2 19 1 4 3 -2 6 -13 5 -11 0 -14 -3 -6 -6z"/>
<path d="M2572 3625 c0 -16 2 -22 5 -12 2 9 2 23 0 30 -3 6 -5 -1 -5 -18z"/>
<path d="M2452 3610 c0 -14 2 -19 5 -12 2 6 2 18 0 25 -3 6 -5 1 -5 -13z"/>
<path d="M3900 3625 c0 -2 18 -14 40 -25 22 -11 40 -18 40 -15 0 2 -18 14 -40
25 -22 11 -40 18 -40 15z"/>
<path d="M3546 3586 c40 -8 88 -19 109 -26 20 -7 39 -10 42 -7 9 9 -99 37
-162 42 l-60 5 71 -14z"/>
<path d="M1515 3580 c-3 -5 -2 -10 4 -10 5 0 13 5 16 10 3 6 2 10 -4 10 -5 0
-13 -4 -16 -10z"/>
<path d="M1045 3557 c-75 -41 -87 -52 -195 -178 -116 -136 -185 -227 -178
-235 3 -2 29 7 59 20 30 14 68 28 84 32 l30 7 -44 -47 c-43 -48 -96 -150 -132
-255 -26 -74 -25 -83 7 -71 14 6 32 10 41 10 14 0 14 -3 -1 -25 -9 -13 -16
-30 -16 -37 1 -16 50 42 50 59 0 6 5 15 11 19 8 4 9 -1 4 -17 -6 -19 6 -11 51
32 74 70 160 127 227 151 l52 19 -45 -7 c-25 -3 -49 -7 -55 -8 -5 0 -16 -7
-23 -13 -7 -7 -19 -13 -25 -13 -7 0 -47 -20 -89 -44 -43 -25 -78 -43 -78 -41
0 3 15 21 33 42 l32 37 -44 -25 c-24 -13 -59 -42 -78 -64 l-35 -40 28 51 c21
37 52 69 111 113 46 34 85 67 89 72 11 18 -79 -42 -120 -80 -39 -36 -39 -36
-22 -6 10 17 45 56 79 89 34 32 53 55 43 52 -34 -11 1 21 65 61 33 20 59 38
59 41 0 2 -20 2 -46 -2 -28 -3 -43 -2 -39 4 3 6 18 10 33 11 15 0 36 5 47 10
15 7 9 8 -20 4 -70 -10 -95 -16 -95 -25 0 -5 -7 -7 -16 -3 -10 4 7 17 53 39
37 19 79 43 93 54 20 16 10 14 -49 -10 -41 -17 -94 -41 -118 -55 -24 -13 -43
-20 -43 -16 0 21 225 212 288 245 17 9 32 21 32 26 0 21 -21 18 -76 -10 -49
-24 -55 -25 -34 -7 14 12 37 30 50 39 35 24 13 21 -35 -5z"/>
<path d="M2482 3555 c0 -16 2 -22 5 -12 2 9 2 23 0 30 -3 6 -5 -1 -5 -18z"/>
<path d="M2432 3500 c-1 -41 -4 -100 -7 -130 -4 -53 -4 -54 6 -15 5 22 8 80 6
130 l-3 90 -2 -75z"/>
<path d="M1385 3539 c-22 -11 -32 -17 -22 -14 11 3 30 8 43 11 13 3 24 10 24
15 0 11 4 12 -45 -12z"/>
<path d="M2641 3535 c0 -16 4 -37 9 -45 8 -12 10 -10 9 10 0 14 -4 34 -9 45
-7 17 -9 16 -9 -10z"/>
<path d="M2462 3525 c0 -16 2 -22 5 -12 2 9 2 23 0 30 -3 6 -5 -1 -5 -18z"/>
<path d="M1470 3521 c8 -4 44 -5 80 -1 l65 7 -80 1 c-45 1 -73 -2 -65 -7z"/>
<path d="M3548 3523 c7 -3 16 -2 19 1 4 3 -2 6 -13 5 -11 0 -14 -3 -6 -6z"/>
<path d="M3598 3523 c6 -2 18 -2 25 0 6 3 1 5 -13 5 -14 0 -19 -2 -12 -5z"/>
<path d="M1638 3513 c7 -3 16 -2 19 1 4 3 -2 6 -13 5 -11 0 -14 -3 -6 -6z"/>
<path d="M2556 3408 c-9 -82 -7 -198 4 -198 6 0 10 48 10 125 0 69 -2 125 -4
125 -2 0 -6 -24 -10 -52z"/>
<path d="M1270 3430 c-13 -9 -13 -10 0 -9 8 1 26 5 40 9 l25 8 -25 1 c-14 0
-32 -4 -40 -9z"/>
<path d="M3800 3436 c0 -2 7 -7 16 -10 8 -3 12 -2 9 4 -6 10 -25 14 -25 6z"/>
<path d="M4010 3425 c0 -8 4 -15 10 -15 5 0 7 7 4 15 -4 8 -8 15 -10 15 -2 0
-4 -7 -4 -15z"/>
<path d="M1278 3398 c-61 -20 -98 -36 -98 -45 0 -11 4 -11 23 1 12 8 61 26
110 41 81 26 105 36 75 34 -7 0 -57 -14 -110 -31z"/>
<path d="M3786 3405 c17 -8 44 -17 60 -20 16 -3 7 3 -21 15 -55 22 -89 26 -39
5z"/>
<path d="M2680 3381 c0 -6 4 -13 10 -16 6 -3 7 1 4 9 -7 18 -14 21 -14 7z"/>
<path d="M1090 3355 c-7 -9 -8 -15 -2 -15 5 0 12 7 16 15 3 8 4 15 2 15 -2 0
-9 -7 -16 -15z"/>
<path d="M3610 3356 c0 -17 363 -94 379 -80 11 10 -15 17 -91 26 -74 8 -239
41 -274 55 -8 3 -14 3 -14 -1z"/>
<path d="M1402 3335 c-23 -8 -89 -19 -145 -25 -131 -15 -135 -16 -113 -38 12
-12 19 -14 24 -5 4 6 52 19 107 29 55 9 122 25 150 35 58 20 40 23 -23 4z"/>
<path d="M3508 3343 c6 -2 18 -2 25 0 6 3 1 5 -13 5 -14 0 -19 -2 -12 -5z"/>
<path d="M2332 3248 c-10 -13 -28 -67 -20 -58 9 8 39 70 34 70 -2 0 -8 -6 -14
-12z"/>
<path d="M3920 3245 c14 -7 27 -10 30 -5 3 4 14 10 25 13 11 2 -2 5 -30 5 -48
1 -49 1 -25 -13z"/>
<path d="M4076 3215 c-4 -11 2 -15 21 -15 21 0 24 2 13 15 -7 8 -16 15 -20 15
-4 0 -10 -7 -14 -15z"/>
<path d="M1139 3180 l-24 -21 30 14 c17 8 37 17 45 20 10 4 8 6 -6 6 -12 1
-32 -8 -45 -19z"/>
<path d="M2563 3110 c0 -41 2 -58 4 -37 2 20 2 54 0 75 -2 20 -4 3 -4 -38z"/>
<path d="M3960 3160 c66 -23 79 -25 60 -6 -8 8 -37 16 -65 20 l-50 6 55 -20z"/>
<path d="M4120 3160 c8 -5 20 -10 25 -10 6 0 3 5 -5 10 -8 5 -19 10 -25 10 -5
0 -3 -5 5 -10z"/>
<path d="M947 3079 c-50 -48 -57 -57 -34 -49 16 6 33 8 38 4 5 -3 8 0 7 7 -2
6 16 27 40 45 49 38 54 46 29 50 -11 1 -43 -22 -80 -57z"/>
<path d="M4106 3123 c-3 -3 -6 -10 -6 -15 0 -13 73 -78 87 -78 6 0 13 -4 15
-9 2 -5 28 -28 58 -52 l55 -43 -75 80 c-89 94 -125 126 -134 117z"/>
<path d="M2392 2957 c15 -44 18 -45 18 -10 0 18 -6 33 -14 36 -12 5 -13 0 -4
-26z"/>
<path d="M2561 2960 c0 -33 1 -34 11 -12 8 17 8 26 0 34 -9 9 -12 4 -11 -22z"/>
<path d="M2438 2923 c-2 -32 -1 -71 3 -88 4 -19 7 2 8 58 1 99 -5 116 -11 30z"/>
<path d="M2643 2945 c0 -22 2 -30 4 -17 2 12 2 30 0 40 -3 9 -5 -1 -4 -23z"/>
<path d="M2723 2968 c-5 -7 -14 -33 -20 -58 -7 -25 -14 -54 -17 -65 -4 -11 1
-4 10 15 17 36 44 120 39 120 -1 0 -7 -6 -12 -12z"/>
<path d="M2338 2929 c8 -21 16 -38 17 -37 8 9 -9 67 -20 72 -10 3 -9 -5 3 -35z"/>
<path d="M2748 2936 c-3 -15 -2 -29 2 -31 12 -8 21 25 11 42 -6 12 -9 10 -13
-11z"/>
<path d="M2593 2885 c0 -38 2 -53 4 -32 2 20 2 52 0 70 -2 17 -4 1 -4 -38z"/>
<path d="M1050 2921 c-19 -5 -21 -8 -10 -13 9 -3 24 0 35 8 20 15 15 16 -25 5z"/>
<path d="M2381 2912 c-1 -14 27 -72 35 -72 2 0 -2 12 -9 28 -8 15 -17 34 -20
42 -4 10 -6 11 -6 2z"/>
<path d="M2671 2904 c0 -11 3 -14 6 -6 3 7 2 16 -1 19 -3 4 -6 -2 -5 -13z"/>
<path d="M908 2894 c-39 -21 -35 -28 5 -8 37 19 44 24 31 24 -5 -1 -21 -8 -36
-16z"/>
<path d="M996 2894 c-23 -16 -31 -51 -13 -51 7 0 13 10 13 21 -1 13 5 21 16
21 9 0 20 4 25 9 4 5 3 6 -4 3 -6 -4 -13 -3 -15 2 -1 5 -12 3 -22 -5z"/>
<path d="M3820 2898 c-25 -5 -92 -20 -148 -34 -57 -13 -107 -22 -111 -20 -9 6
-182 -43 -261 -73 -94 -36 -195 -95 -198 -117 -2 -11 -17 -28 -33 -38 -17 -10
-28 -20 -25 -23 3 -3 17 2 30 11 14 9 28 16 31 16 3 0 5 -21 5 -46 0 -32 -5
-51 -17 -61 -17 -14 -17 -14 1 -9 17 6 18 2 12 -36 -11 -67 -41 -124 -93 -174
-87 -85 -197 -120 -346 -111 -104 5 -134 22 -61 33 171 24 258 108 259 246 0
58 -4 72 -30 109 -18 25 -55 58 -90 79 -59 34 -62 35 -186 38 -135 4 -177 -6
-252 -62 -70 -51 -99 -148 -73 -240 29 -97 111 -154 249 -171 43 -6 56 -10 47
-19 -7 -7 -61 -11 -153 -11 -142 0 -142 0 -203 33 -34 18 -76 49 -95 68 l-33
34 -21 -20 c-23 -21 -49 -19 -59 5 -3 10 6 16 29 21 19 3 35 8 35 9 0 2 -11
26 -25 53 -14 28 -25 57 -25 65 0 12 -7 13 -41 6 -78 -18 -104 -14 -148 21
l-42 32 -97 -22 c-118 -26 -207 -54 -290 -91 -35 -16 -61 -25 -58 -20 10 16
173 80 272 107 82 22 122 27 229 28 72 1 153 -2 180 -6 45 -7 47 -6 17 4 -24
8 -32 16 -29 29 3 9 2 21 -2 27 -9 15 -202 52 -278 53 -47 0 -62 3 -48 9 34
15 -172 11 -275 -5 -88 -13 -254 -62 -220 -65 9 0 3 -7 -13 -16 -16 -9 -27
-18 -24 -21 3 -2 15 1 27 7 85 46 299 92 410 88 44 -1 47 -2 15 -5 -120 -10
-219 -27 -288 -50 -130 -43 -67 -44 138 -2 226 47 346 52 465 22 51 -12 76
-24 78 -35 3 -14 -18 -16 -190 -16 -205 1 -266 -8 -403 -55 -110 -39 -112 -39
-81 -21 80 45 273 94 376 94 58 0 60 1 50 20 -14 26 -45 26 -191 0 -181 -33
-297 -62 -275 -70 14 -5 5 -11 -40 -28 -32 -12 -82 -36 -111 -54 -110 -70
-223 -151 -218 -157 2 -4 -19 -30 -47 -57 l-51 -49 28 53 c54 101 185 222 206
189 4 -5 53 16 110 47 57 31 97 56 89 56 -13 0 -13 1 0 10 11 8 -5 9 -52 6
-67 -4 -108 -23 -206 -92 -12 -9 -22 -14 -22 -11 0 3 42 33 93 68 65 45 87 65
74 67 -11 2 -42 -8 -70 -23 l-51 -26 45 41 44 41 -45 -6 c-25 -3 -64 -17 -87
-30 -24 -13 -43 -22 -43 -21 0 2 26 23 58 48 64 50 171 84 225 72 28 -6 29 -7
11 -18 -25 -15 -30 -39 -7 -32 136 41 294 66 418 66 56 0 62 4 46 29 -7 11
-47 14 -187 14 -152 1 -193 -2 -272 -21 -52 -12 -109 -29 -129 -37 -19 -8 -39
-12 -44 -10 -5 3 -22 -1 -39 -10 -17 -9 -46 -17 -65 -19 -19 -2 -42 -9 -51
-17 -15 -12 -4 6 69 114 19 28 19 29 -1 18 -11 -6 -41 -27 -67 -47 l-48 -36
23 34 c13 18 37 48 54 66 l31 33 -55 -29 c-40 -21 -61 -40 -75 -68 -11 -22
-55 -92 -98 -157 -42 -65 -77 -120 -77 -124 0 -3 19 10 43 29 47 40 137 98
149 98 16 0 7 -17 -60 -121 -94 -144 -94 -144 -4 -51 81 83 104 98 95 62 -6
-22 8 -26 36 -11 10 6 -14 -22 -53 -62 -39 -40 -91 -96 -116 -126 -75 -91 -11
-41 103 80 57 61 107 108 110 103 2 -5 -23 -44 -57 -86 -34 -43 -104 -146
-154 -230 -91 -151 -91 -152 -39 -94 92 105 311 322 356 354 42 31 84 41 95
24 4 -8 -46 -44 -59 -42 -3 0 -13 -4 -23 -10 -32 -19 32 -3 76 19 31 16 52 20
80 15 27 -4 49 -1 70 10 56 29 34 10 -39 -35 -139 -84 -363 -313 -395 -405 -8
-22 76 55 107 98 19 26 19 27 2 21 -25 -9 26 48 116 130 69 64 164 119 226
133 l30 6 -31 -23 c-17 -13 -74 -56 -125 -95 -94 -71 -178 -154 -227 -227 -13
-20 -22 -40 -19 -43 6 -7 60 31 120 84 22 19 66 51 98 72 73 47 60 63 -18 21
-73 -40 -82 -39 -36 2 86 77 219 150 261 145 25 -3 16 -13 -95 -112 -68 -59
-123 -113 -123 -118 0 -5 -4 -6 -10 -3 -25 15 -158 -142 -214 -253 -53 -105
-51 -108 24 -41 82 74 119 118 150 179 30 58 203 235 255 260 22 10 53 22 70
26 28 7 27 5 -22 -43 -28 -27 -75 -60 -104 -72 -30 -13 -56 -25 -58 -27 -15
-14 79 14 160 46 84 34 193 63 179 47 -10 -10 -126 -94 -180 -129 -30 -20 -71
-50 -90 -68 l-35 -31 50 33 c113 74 345 162 345 130 0 -4 18 -6 40 -4 25 3 40
0 40 -7 0 -6 -11 -11 -24 -11 -14 0 -28 -4 -31 -10 -9 -15 40 -12 78 4 18 7
52 36 75 64 23 28 75 79 114 114 47 41 20 9 -77 -92 -280 -289 -316 -322 -415
-381 -52 -31 -119 -71 -148 -89 -29 -18 -54 -31 -56 -29 -6 5 73 121 120 177
19 23 78 77 130 119 52 41 93 78 90 80 -6 6 -196 -116 -196 -126 0 -3 -10 -18
-22 -31 -13 -14 -57 -64 -98 -110 -41 -46 -83 -92 -92 -102 -11 -11 -18 -33
-18 -56 0 -32 -9 -49 -50 -96 -46 -53 -50 -55 -50 -31 0 28 22 78 49 109 9 11
10 16 4 12 -47 -27 37 84 159 211 59 62 108 116 108 119 0 11 -97 -75 -153
-135 -64 -70 -142 -184 -162 -238 l-14 -38 0 61 c-1 59 0 62 56 130 79 97 84
105 30 54 -60 -56 -62 -36 -3 26 28 29 49 43 57 38 7 -4 10 -3 6 3 -6 9 37 39
187 132 31 19 54 36 52 39 -5 4 -142 -72 -224 -124 -64 -41 -70 -42 -43 -6 12
15 35 47 52 72 l30 45 -31 -35 c-42 -46 -97 -125 -80 -115 8 5 11 4 7 -3 -4
-5 -15 -8 -25 -5 -23 6 -65 -69 -88 -158 -17 -66 -15 -125 6 -226 l11 -52 60
71 c33 39 68 83 78 97 l18 25 1 -76 c1 -46 7 -90 17 -110 l15 -33 -5 42 c-3
23 -2 80 1 125 l7 83 88 43 c127 62 198 116 333 255 65 67 96 95 68 63 -28
-33 -49 -63 -46 -68 3 -4 0 -8 -7 -8 -8 0 -9 -3 0 -13 6 -8 8 -17 5 -20 -4 -3
-3 -18 0 -32 7 -26 8 -26 31 -11 14 9 25 12 25 6 0 -5 -4 -10 -9 -10 -5 0 -12
-15 -15 -33 -3 -19 -16 -44 -29 -58 -12 -13 -22 -26 -22 -29 -1 -11 -29 -57
-57 -92 -23 -29 -130 -228 -123 -228 1 0 42 53 91 118 48 64 91 121 95 126 4
5 3 -9 -2 -30 -16 -71 -9 -70 31 6 46 87 50 103 15 70 -29 -27 -31 -20 -9 43
28 82 45 60 78 -99 8 -40 24 -90 35 -113 18 -34 19 -44 9 -61 -7 -11 -20 -20
-28 -20 -12 0 -12 -2 -2 -9 8 -4 13 -11 12 -15 -3 -12 82 -200 135 -296 28
-52 60 -117 70 -144 10 -27 34 -64 53 -82 19 -19 31 -34 26 -34 -4 0 14 -24
42 -52 28 -29 62 -69 75 -88 l24 -35 -30 23 c-85 66 -219 211 -263 285 -26 43
-48 74 -50 68 -2 -5 13 -48 34 -96 49 -114 87 -162 96 -120 2 9 22 -9 56 -48
68 -81 226 -246 216 -227 -4 8 -26 37 -48 65 l-41 49 42 -33 c24 -19 59 -59
80 -90 47 -70 53 -78 53 -65 0 6 -36 71 -81 145 -102 170 -124 213 -166 324
-36 97 -35 65 2 -52 27 -86 20 -87 -20 -4 -16 33 -36 63 -46 66 -19 6 -58 54
-81 100 -9 17 -38 104 -66 195 -28 91 -54 174 -58 185 -4 11 8 3 27 -19 18
-22 34 -49 36 -60 7 -51 99 -311 125 -353 16 -25 31 -43 33 -41 10 9 -80 269
-122 352 l-15 31 30 -35 c17 -19 49 -55 72 -79 40 -43 86 -118 82 -134 -1 -5
2 -6 8 -2 6 3 8 11 5 16 -3 5 1 6 9 3 8 -3 24 -29 36 -57 12 -29 40 -83 62
-120 42 -73 46 -105 5 -40 -13 21 -35 47 -48 58 -27 22 -20 12 36 -58 21 -26
40 -45 43 -43 2 3 29 -32 59 -77 31 -45 67 -93 81 -107 22 -22 22 -20 -5 20
-47 70 -59 98 -82 200 -12 52 -33 118 -47 145 -27 56 -26 46 11 -75 35 -115
27 -134 -13 -30 -18 47 -30 72 -27 55 5 -29 5 -28 -19 10 -23 38 -66 142 -81
195 l-7 25 25 -24 c14 -13 23 -29 21 -36 -3 -7 1 -19 9 -26 7 -8 12 -20 9 -27
-2 -6 1 -12 8 -12 6 0 9 -3 7 -7 -3 -5 1 -21 9 -38 l14 -30 -6 35 c-10 64 -27
109 -37 103 -6 -3 -7 -1 -3 6 4 7 -21 52 -62 109 -90 126 -170 251 -149 233
10 -7 17 -10 17 -7 0 4 7 0 16 -8 8 -9 27 -16 42 -17 21 0 23 -2 10 -7 -17 -7
-16 -9 5 -32 12 -14 51 -83 87 -154 44 -86 66 -121 68 -107 2 11 -14 55 -36
96 -41 78 -40 91 1 53 24 -22 37 -58 87 -228 12 -41 58 -151 102 -244 43 -92
95 -207 115 -255 19 -47 48 -112 64 -143 16 -32 29 -60 29 -64 0 -3 -25 29
-56 72 -64 89 -169 217 -208 253 -19 18 -26 21 -26 9 0 -8 36 -57 81 -109 44
-52 107 -129 139 -172 33 -42 62 -78 66 -80 4 -1 25 27 46 63 22 36 65 96 96
134 84 102 121 150 117 154 -10 11 -66 -42 -117 -111 -32 -43 -58 -76 -58 -73
0 29 111 211 141 234 20 14 137 180 163 229 9 18 16 38 16 45 0 7 -9 -5 -20
-27 l-19 -40 5 38 c8 48 -12 50 -43 4 -11 -17 -36 -52 -54 -77 -19 -24 -27
-40 -19 -36 8 5 3 -2 -11 -15 -14 -13 -32 -33 -40 -44 -13 -18 -12 -19 3 -7
10 8 18 9 22 3 4 -6 -15 -33 -42 -61 -26 -27 -46 -50 -44 -50 3 0 -2 -8 -10
-17 -9 -10 -38 -70 -66 -133 -46 -105 -51 -112 -61 -90 -5 14 -29 75 -53 135
-24 61 -80 178 -123 260 -88 167 -136 265 -130 265 2 0 16 -21 31 -47 16 -27
55 -91 88 -143 33 -52 81 -140 107 -195 38 -79 48 -94 48 -70 1 75 -63 254
-114 321 -13 17 -22 34 -19 37 3 2 -5 25 -16 51 -18 36 -27 45 -45 44 -20 -2
-22 -6 -14 -25 16 -42 1 -24 -57 70 -47 75 -124 233 -124 253 0 21 74 -97 137
-220 9 -17 11 -16 17 9 8 31 -18 92 -59 139 -14 16 -25 37 -25 46 0 9 -5 21
-12 28 -7 7 -9 12 -5 12 4 0 2 10 -4 23 -15 30 0 14 49 -53 22 -30 59 -77 81
-105 50 -63 168 -299 186 -374 7 -31 17 -89 20 -129 4 -40 9 -71 11 -69 3 2 5
49 5 103 0 69 9 141 29 239 37 180 72 393 68 407 -5 13 -49 -154 -79 -297 -12
-55 -23 -102 -26 -105 -8 -7 6 120 23 215 8 44 21 134 29 200 8 66 24 152 35
190 11 39 17 54 15 35 -11 -69 -15 -167 -6 -135 13 45 70 162 71 145 0 -8 -9
-87 -20 -175 -11 -87 -18 -165 -16 -171 3 -7 -4 -36 -15 -65 -12 -32 -22 -86
-24 -134 -2 -44 -18 -135 -36 -205 -24 -97 -32 -155 -36 -255 -3 -71 -3 -128
0 -125 3 3 11 52 17 110 6 58 26 164 45 235 18 72 41 165 50 208 15 70 18 77
41 77 13 0 24 -2 24 -5 0 -3 -11 -53 -25 -111 -36 -152 -29 -152 10 0 24 91
43 142 64 173 35 49 38 58 17 50 -8 -3 -20 1 -27 9 -9 12 -15 12 -27 2 -14
-11 -15 -10 -8 7 4 11 44 87 89 168 81 147 166 260 167 225 0 -10 4 -18 10
-18 5 0 -10 -27 -34 -60 -61 -82 -95 -155 -101 -215 -3 -27 -2 -43 1 -35 8 19
105 170 110 170 2 0 -2 -14 -8 -31 -8 -24 -8 -37 0 -50 7 -10 9 -26 6 -36 -3
-10 1 -7 9 7 9 14 13 29 10 35 -4 5 -3 7 2 3 4 -4 29 27 56 70 26 42 88 128
138 190 l90 112 -91 98 -91 97 89 -90 c49 -49 92 -88 96 -87 5 1 7 -1 5 -6 -1
-4 12 -28 29 -54 21 -32 35 -44 44 -38 7 4 10 15 6 25 -7 18 17 48 29 37 5 -4
5 2 2 13 -7 20 -7 20 8 1 8 -11 15 -17 15 -13 0 7 96 -56 163 -107 53 -40 259
-146 270 -139 5 3 7 1 3 -5 -3 -5 -2 -12 3 -14 9 -3 19 -65 40 -243 6 -53 8
-57 15 -31 9 28 2 157 -11 206 -6 25 -6 25 26 -5 18 -16 56 -58 84 -93 42 -52
52 -60 58 -45 14 39 31 205 26 252 -5 41 -3 49 8 44 16 -6 6 25 -37 112 -17
35 -8 29 67 -50 74 -77 86 -86 82 -62 l-4 28 23 -22 24 -23 -20 59 c-24 71
-85 167 -137 216 -56 54 -245 186 -306 214 -42 20 -47 25 -26 25 39 0 155 -61
234 -124 69 -55 183 -122 192 -113 2 3 -8 14 -22 25 -15 12 -24 25 -21 30 3 5
-10 24 -29 42 -19 19 -35 29 -35 24 0 -6 14 -20 30 -33 17 -12 28 -26 25 -32
-7 -11 -35 2 -61 28 -10 10 -21 18 -26 18 -5 0 -12 6 -17 13 -5 8 -12 14 -17
15 -5 1 -16 7 -24 14 -8 7 -50 40 -94 73 l-78 60 37 0 c38 0 38 0 20 20 -10
11 -16 22 -14 24 10 10 84 25 89 18 15 -20 93 -73 150 -102 36 -18 85 -48 110
-68 33 -25 28 -17 -22 30 -37 36 -73 65 -81 65 -19 0 -146 76 -141 84 5 9 87
29 117 29 13 0 34 -11 47 -25 l23 -25 -26 13 c-14 6 -23 15 -21 19 3 5 -2 8
-10 8 -23 0 -20 -13 12 -43 20 -19 31 -24 39 -16 7 7 17 -1 34 -28 21 -34 122
-151 237 -272 l43 -46 -37 60 c-88 141 -142 215 -212 288 -76 78 -79 99 -8 51
21 -15 36 -20 32 -13 -4 8 -1 5 6 -5 44 -65 153 -205 156 -201 7 7 -72 128
-133 205 l-55 69 52 -6 c29 -3 61 -10 71 -15 37 -19 28 1 -15 32 -40 30 -41
31 -13 24 49 -11 67 -23 134 -88 l63 -61 -52 85 c-29 47 -72 110 -96 141 -24
31 -41 59 -38 62 11 11 -18 79 -50 115 -20 23 -25 33 -13 29 47 -19 52 -20 42
-9 -5 6 -44 24 -85 40 -41 17 -111 46 -155 66 -44 20 -93 36 -110 37 -24 1
-25 3 -7 6 20 4 32 23 14 23 -5 0 -17 7 -28 16 -18 14 -17 15 19 9 21 -3 46
-8 55 -11 9 -3 6 1 -8 9 l-25 15 35 4 35 3 -32 18 c-36 19 -145 22 -223 5z
m-284 -105 c-3 -21 -9 -48 -12 -60 -6 -23 -5 -23 57 -15 121 14 288 7 374 -15
44 -12 93 -24 108 -27 l28 -7 -23 31 c-12 17 -40 41 -60 52 -21 12 -36 23 -35
25 5 5 78 -17 180 -54 90 -33 99 -39 118 -74 11 -22 18 -39 16 -39 -2 0 -18
11 -37 25 -39 29 -57 23 -20 -6 l25 -19 -28 10 c-44 16 -44 13 -2 -31 l40 -41
-42 21 c-23 12 -50 21 -59 21 -16 0 -16 -2 1 -20 20 -23 17 -24 -19 -10 -39
15 -31 4 19 -26 51 -29 55 -45 6 -19 -18 9 -37 13 -43 9 -7 -5 -8 -3 -3 6 5 8
3 11 -6 8 -8 -3 -61 12 -119 32 -58 21 -141 45 -186 54 -102 21 -315 26 -321
9 -3 -7 -15 -13 -27 -13 -18 0 -238 -52 -323 -76 -18 -5 -23 -2 -23 14 0 25
68 55 199 88 160 40 382 28 590 -31 68 -19 127 -32 132 -29 5 3 4 14 -2 25
-10 19 -8 20 30 18 63 -5 58 7 -11 30 -139 46 -193 53 -384 49 -101 -1 -179
-5 -174 -8 4 -3 -22 -6 -59 -6 -64 -1 -140 -18 -151 -34 -3 -4 -36 -17 -75
-30 -38 -13 -76 -25 -82 -28 -7 -2 -13 2 -13 11 0 19 128 75 255 111 11 3 2 3
-20 0 -33 -5 -139 -38 -220 -70 -20 -7 -20 -7 -1 14 27 31 130 78 266 123 146
48 144 48 136 2z m-83 -110 c-7 -2 -19 -2 -25 0 -7 3 -2 5 12 5 14 0 19 -2 13
-5z m-54 -7 c-2 -2 -22 -6 -44 -9 -28 -5 -34 -4 -20 3 19 8 73 14 64 6z m-701
-88 c23 -7 32 -15 30 -26 -3 -15 -27 -18 -193 -22 -105 -3 -196 -9 -202 -13
-22 -14 -14 9 11 32 15 14 30 20 37 16 8 -6 10 -4 4 5 -6 9 -2 10 15 5 15 -5
20 -4 16 4 -4 6 -2 9 6 6 7 -2 45 -1 83 3 78 9 143 5 193 -10z m1137 -7 c126
-23 303 -74 319 -92 8 -9 1 -10 -29 -5 -31 5 -36 4 -22 -4 23 -15 13 -30 -21
-31 -16 -1 -3 -7 33 -15 l60 -14 -51 5 c-62 5 -71 -1 -41 -26 15 -13 2 -9 -38
10 -108 53 -229 100 -300 116 -136 31 -502 30 -603 -1 -14 -5 -14 -4 -2 4 8 5
74 24 145 40 72 17 139 33 150 36 45 11 296 -3 400 -23z m465 -6 c13 -14 21
-25 18 -25 -2 0 -15 11 -28 25 -13 14 -21 25 -18 25 2 0 15 -11 28 -25z
m-3540 -28 c0 -2 -17 -19 -37 -38 l-38 -34 34 38 c33 34 41 42 41 34z m1544
-42 c5 -29 4 -36 -3 -25 -6 8 -11 28 -11 44 0 39 6 31 14 -19z m1301 4 c181
-36 309 -78 387 -125 81 -50 82 -61 1 -14 -77 44 -246 104 -274 97 -11 -3 -17
-2 -15 2 3 4 -59 20 -138 35 -129 25 -145 26 -177 13 l-34 -14 70 -12 c39 -6
93 -19 120 -28 76 -23 217 -100 266 -144 l44 -39 -65 44 c-77 52 -131 80 -217
112 -70 27 -233 64 -233 54 0 -3 -12 -11 -27 -17 -24 -9 -25 -11 -7 -12 52 -3
221 -53 299 -90 47 -22 85 -42 85 -45 0 -2 -36 11 -81 31 -101 43 -238 78
-362 92 -53 6 -103 11 -112 11 -9 0 -15 9 -15 24 0 25 11 28 160 50 81 11 186
4 325 -25z m-1815 -49 c0 -5 -11 -10 -24 -10 -41 0 -193 -48 -269 -85 -40 -20
-63 -28 -52 -19 51 42 214 104 310 117 17 2 31 5 33 6 1 0 2 -3 2 -9z m950 6
c0 -3 -4 -8 -10 -11 -5 -3 -10 -1 -10 4 0 6 5 11 10 11 6 0 10 -2 10 -4z
m1020 -16 c8 -5 11 -10 5 -10 -5 0 -17 5 -25 10 -8 5 -10 10 -5 10 6 0 17 -5
25 -10z m581 -7 c13 -16 12 -17 -3 -4 -10 7 -18 15 -18 17 0 8 8 3 21 -13z
m-1881 -38 c0 -42 -28 -65 -78 -65 -51 0 -85 17 -103 53 -11 21 -11 21 14 -2
23 -21 33 -23 73 -17 57 7 74 20 74 55 0 20 2 23 10 11 5 -8 10 -24 10 -35z
m-482 9 c2 -16 -5 -23 -31 -31 -28 -8 -38 -7 -61 10 -26 19 -29 19 -90 3 -34
-10 -101 -34 -149 -56 -48 -21 -87 -36 -87 -34 0 3 37 23 83 44 167 81 328
112 335 64z m1347 -3 c98 -26 181 -57 209 -76 28 -20 17 -19 -35 4 -62 27
-207 63 -238 58 -24 -3 -24 -4 -6 -11 87 -36 127 -59 170 -100 l50 -48 -49 41
c-49 41 -130 85 -176 96 -16 3 -37 -2 -59 -16 l-34 -20 32 -20 c41 -25 40 -34
-1 -10 -18 10 -50 24 -70 31 -34 10 -36 13 -26 35 8 18 17 23 32 20 63 -12 86
-14 82 -6 -3 5 -26 12 -51 15 -31 5 -45 12 -45 22 0 22 109 14 215 -15z m535
3 c23 -9 39 -18 37 -20 -2 -3 -24 4 -48 15 -54 24 -45 27 11 5z m-1200 -19
c17 -21 74 -29 112 -16 l33 11 -28 -25 c-38 -34 -109 -35 -131 -3 -27 38 -15
68 14 33z m-656 -31 c9 -24 3 -27 -56 -29 -33 -1 -75 -12 -111 -28 -31 -14
-57 -24 -57 -21 0 8 184 93 201 94 9 0 20 -7 23 -16z m2131 -4 c10 -11 16 -20
13 -20 -3 0 -13 9 -23 20 -10 11 -16 20 -13 20 3 0 13 -9 23 -20z m-1015 -40
c0 -11 -162 -152 -196 -171 -17 -9 -33 -10 -51 -3 -33 11 -29 26 12 40 44 15
117 67 151 108 20 23 38 35 57 35 15 1 27 -3 27 -9z m-1031 -87 c-16 -18 -24
-17 -56 12 -27 24 -28 25 -9 40 18 14 22 13 48 -12 21 -20 25 -30 17 -40z
m1166 37 c10 -11 16 -20 13 -20 -3 0 -13 9 -23 20 -10 11 -16 20 -13 20 3 0
13 -9 23 -20z m-1087 -74 c28 -18 73 -39 101 -46 34 -8 62 -23 84 -45 42 -42
100 -59 202 -59 96 -1 139 13 205 65 55 44 59 45 85 25 18 -13 18 -15 -11 -41
-43 -41 -138 -85 -215 -101 -134 -28 -237 6 -461 153 -47 32 -72 59 -63 72 10
17 19 14 73 -23z m1798 -163 c124 -85 177 -138 247 -243 41 -61 43 -67 22 -67
-16 0 -137 131 -148 159 -8 23 -106 78 -137 77 -26 -1 -22 -4 21 -13 27 -6
114 -110 104 -126 -2 -4 0 -22 6 -39 6 -18 9 -34 7 -36 -2 -3 -42 40 -88 95
-82 99 -108 125 -75 74 27 -41 10 -40 -42 3 -50 42 -73 57 -73 50 0 -3 39 -37
88 -77 133 -111 196 -193 208 -270 l7 -45 -51 66 c-88 115 -238 235 -430 345
-59 33 -71 44 -52 44 21 0 22 2 10 11 -12 9 -12 10 3 5 11 -3 31 -9 45 -13
l27 -6 -25 22 -25 21 30 -6 c30 -6 173 -53 210 -69 18 -8 19 -7 6 9 -8 9 -28
24 -44 33 -43 22 -129 85 -123 90 3 3 29 -3 58 -12 29 -10 60 -20 68 -23 8 -2
-3 12 -25 32 l-40 37 43 -21 c24 -12 99 -60 168 -107z m-1466 80 c63 -2 149
-1 190 5 41 5 77 8 79 6 1 -1 -17 -9 -40 -16 -27 -8 -97 -13 -184 -13 -118 0
-145 3 -170 18 -16 10 -21 15 -10 12 11 -3 72 -9 135 -12z m-1477 -75 c-4 -7
-8 -16 -8 -20 0 -3 -13 -17 -30 -29 -25 -20 -28 -20 -15 -4 33 46 75 87 53 53z
m2727 -151 c143 -96 234 -172 293 -247 l59 -75 -6 -63 c-3 -35 -8 -67 -11 -72
-6 -9 -104 127 -118 163 -6 15 -27 25 -27 11 0 -12 24 -50 49 -79 14 -16 2 -8
-26 19 -29 27 -52 52 -51 55 2 20 -3 31 -13 26 -5 -4 -18 -1 -27 7 -19 16
-107 68 -197 118 -33 18 -115 67 -183 109 -103 63 -120 77 -104 84 14 6 34 1
73 -20 78 -40 80 -39 24 12 l-50 47 40 -7 c47 -8 105 -36 143 -70 15 -13 61
-47 102 -74 136 -91 217 -168 282 -265 76 -114 90 -128 48 -49 -65 124 -174
234 -347 349 -44 30 -93 70 -108 90 l-27 35 53 -27 c30 -15 88 -49 129 -77z
m-1930 32 c0 -6 -4 -7 -10 -4 -5 3 -10 11 -10 16 0 6 5 7 10 4 6 -3 10 -11 10
-16z m384 -169 c48 -47 102 -103 118 -125 l31 -40 -6 32 c-4 17 -26 75 -51
127 -25 53 -43 96 -41 96 2 0 32 -52 67 -116 85 -156 88 -161 88 -147 0 10
-34 114 -55 168 -13 31 2 13 42 -51 73 -120 121 -214 109 -214 -3 0 -17 21
-33 47 -15 25 -29 41 -31 35 -2 -6 14 -62 36 -125 22 -62 43 -135 46 -163 6
-48 6 -48 -47 56 -29 58 -67 126 -85 151 -36 53 -99 115 -112 112 -5 -2 -14 6
-20 17 -6 11 -7 20 -3 20 4 0 -1 7 -11 15 -11 8 -16 15 -10 15 5 0 3 4 -4 8
-7 5 -14 18 -16 29 -5 25 -28 63 -38 63 -9 0 3 -33 35 -97 28 -54 117 -268
117 -280 0 -13 -113 178 -199 337 -46 85 -91 166 -99 180 -17 28 26 -10 172
-150z m-1204 101 c-23 -32 -53 -69 -67 -82 -24 -22 -23 -19 6 24 35 51 90 117
98 117 2 0 -14 -26 -37 -59z m880 -47 c26 -36 28 -44 14 -44 -10 0 -15 3 -12
6 4 3 -17 28 -45 57 -29 28 -43 43 -31 34 37 -30 39 -18 3 21 l-34 37 37 -34
c20 -18 50 -53 68 -77z m45 24 c39 -39 51 -55 27 -35 -24 21 -48 35 -54 31 -6
-4 -8 -3 -4 4 3 5 -6 24 -20 41 -43 52 -22 35 51 -41z m1025 -42 c-11 -26 -50
-91 -87 -144 -38 -53 -89 -137 -115 -187 -26 -49 -48 -84 -48 -76 -1 48 104
307 145 356 9 11 1 -11 -19 -48 -39 -73 -67 -137 -61 -137 2 0 18 26 36 58 33
58 161 234 166 228 2 -2 -6 -24 -17 -50z m120 11 c0 -2 -10 -12 -22 -23 l-23
-19 19 23 c18 21 26 27 26 19z m-1340 -27 c0 -5 -5 -10 -11 -10 -5 0 -7 5 -4
10 3 6 8 10 11 10 2 0 4 -4 4 -10z m107 -78 c23 -37 70 -121 106 -187 35 -67
72 -133 82 -148 9 -15 14 -27 11 -27 -17 0 -256 392 -256 420 0 23 17 6 57
-58z m89 41 c-2 -3 4 -13 15 -24 10 -10 19 -29 19 -41 0 -12 -2 -19 -3 -17 -2
2 -18 25 -35 51 -28 40 -29 45 -11 41 11 -3 18 -8 15 -10z m673 -124 c-19
-109 -46 -212 -48 -184 -1 6 -12 71 -26 144 -13 74 -23 136 -21 138 2 2 9 -18
17 -44 l14 -48 11 60 c11 58 12 58 13 18 1 -60 16 -61 37 -3 10 27 19 48 22
46 2 -2 -7 -59 -19 -127z m-809 61 c17 -17 37 -48 45 -70 17 -49 31 -169 18
-155 -19 21 -75 157 -77 190 -2 19 -9 41 -16 50 -22 26 -2 16 30 -15z m200
-36 c0 -8 -19 -13 -24 -6 -3 5 1 9 9 9 8 0 15 -2 15 -3z m7 -20 c-3 -4 -2 -16
4 -28 10 -20 9 -20 -5 -2 -14 17 -13 36 1 36 4 0 3 -3 0 -6z m133 -35 c0 -6
-4 -7 -10 -4 -5 3 -10 11 -10 16 0 6 5 7 10 4 6 -3 10 -11 10 -16z m244 -104
c52 -77 121 -222 146 -305 12 -41 26 -89 31 -106 5 -17 9 -46 8 -65 0 -28 -2
-31 -9 -14 -75 169 -115 268 -146 355 -21 61 -54 132 -80 170 -24 37 -44 70
-44 76 1 12 51 -48 94 -111z m-340 69 c5 -14 4 -15 -9 -4 -17 14 -19 20 -6 20
5 0 12 -7 15 -16z m-74 -141 c78 -114 88 -125 104 -116 5 3 6 1 3 -4 -4 -6 12
-29 36 -53 43 -43 19 -38 -32 7 -15 14 -33 20 -46 17 -28 -7 -122 111 -130
164 -3 20 -8 49 -10 65 -3 15 -3 27 -1 27 1 0 36 -48 76 -107z m75 88 c3 -6
-4 -9 -15 -8 -11 1 -20 5 -20 9 0 11 28 10 35 -1z m368 -440 c27 -46 14 -38
-18 12 -16 23 -22 37 -14 30 8 -6 22 -25 32 -42z m419 -233 c-7 -7 -12 -8 -12
-2 0 14 12 26 19 19 2 -3 -1 -11 -7 -17z"/>
<path d="M3450 2591 c-8 -5 -12 -12 -10 -14 3 -2 67 -9 142 -15 141 -13 285
-47 345 -82 23 -13 30 -15 27 -5 -4 9 4 17 22 21 25 6 22 9 -43 35 -38 15
-105 35 -147 44 -96 19 -315 30 -336 16z m460 -61 c8 -5 11 -10 5 -10 -5 0
-17 5 -25 10 -8 5 -10 10 -5 10 6 0 17 -5 25 -10z m50 -20 c8 -5 11 -10 5 -10
-5 0 -17 5 -25 10 -8 5 -10 10 -5 10 6 0 17 -5 25 -10z"/>
<path d="M4048 2493 c6 -2 18 -2 25 0 6 3 1 5 -13 5 -14 0 -19 -2 -12 -5z"/>
<path d="M3960 2001 c6 -12 17 -21 25 -21 21 0 19 5 -11 25 -25 16 -25 16 -14
-4z"/>
<path d="M4141 1835 c25 -27 54 -63 66 -80 12 -16 23 -24 23 -18 0 7 -30 43
-66 80 -37 38 -47 46 -23 18z"/>
<path d="M3940 1805 c19 -19 36 -35 39 -35 3 0 -10 16 -29 35 -19 19 -36 35
-39 35 -3 0 10 -16 29 -35z"/>
<path d="M3768 1758 c7 -8 10 -23 6 -32 -4 -12 0 -16 16 -16 12 0 31 -5 43
-11 l22 -12 -20 23 c-24 27 -86 72 -67 48z"/>
<path d="M1780 1633 c0 -5 9 -18 20 -28 11 -10 20 -14 20 -8 0 5 -9 18 -20 28
-11 10 -20 14 -20 8z"/>
<path d="M2563 2865 c0 -22 2 -30 4 -17 2 12 2 30 0 40 -3 9 -5 -1 -4 -23z"/>
<path d="M2462 2865 c0 -16 2 -22 5 -12 2 9 2 23 0 30 -3 6 -5 -1 -5 -18z"/>
<path d="M2502 2860 c0 -19 2 -27 5 -17 2 9 2 25 0 35 -3 9 -5 1 -5 -18z"/>
<path d="M841 2848 c-13 -13 -21 -17 -17 -10 10 18 -2 15 -31 -8 -14 -11 -29
-18 -32 -15 -4 2 -26 -28 -49 -68 -23 -40 -52 -88 -64 -107 -20 -32 -18 -31
33 16 68 63 95 80 140 88 20 3 46 17 59 31 13 13 38 29 55 35 26 9 33 16 31
35 0 14 -3 25 -6 25 -3 0 -24 -18 -45 -41 -43 -44 -114 -89 -85 -54 14 17 14
18 -9 5 -22 -11 -20 -6 13 39 41 56 43 63 7 29z"/>
<path d="M2619 2843 c0 -16 -2 -36 -4 -45 -2 -10 1 -18 6 -18 5 0 9 20 9 45 0
48 -9 64 -11 18z"/>
<path d="M2641 2844 c0 -11 3 -14 6 -6 3 7 2 16 -1 19 -3 4 -6 -2 -5 -13z"/>
<path d="M2708 2811 c-15 -46 -15 -48 3 -44 11 3 19 14 19 27 0 11 3 31 6 44
12 44 -13 21 -28 -27z"/>
<path d="M2416 2817 c3 -10 9 -15 12 -12 3 3 0 11 -7 18 -10 9 -11 8 -5 -6z"/>
<path d="M2473 2795 c0 -22 2 -30 4 -17 2 12 2 30 0 40 -3 9 -5 -1 -4 -23z"/>
<path d="M2543 2790 c0 -25 2 -35 4 -22 2 12 2 32 0 45 -2 12 -4 2 -4 -23z"/>
<path d="M2492 2790 c0 -14 2 -19 5 -12 2 6 2 18 0 25 -3 6 -5 1 -5 -13z"/>
<path d="M2511 2784 c0 -11 3 -14 6 -6 3 7 2 16 -1 19 -3 4 -6 -2 -5 -13z"/>
<path d="M2581 2784 c0 -11 3 -14 6 -6 3 7 2 16 -1 19 -3 4 -6 -2 -5 -13z"/>
<path d="M2431 2774 c0 -11 3 -14 6 -6 3 7 2 16 -1 19 -3 4 -6 -2 -5 -13z"/>
<path d="M2712 2710 c0 -14 2 -19 5 -12 2 6 2 18 0 25 -3 6 -5 1 -5 -13z"/>
<path d="M1720 2690 l35 -7 -40 -3 c-35 -2 -32 -4 24 -11 114 -15 170 -30 237
-65 73 -38 97 -39 40 -2 -20 13 -36 30 -37 38 0 8 -3 10 -5 4 -3 -8 -33 -3
-94 17 -49 16 -113 31 -142 33 -41 3 -45 2 -18 -4z"/>
<path d="M910 2638 c-22 -13 -30 -23 -21 -26 7 -2 25 7 39 22 32 32 28 33 -18
4z"/>
<path d="M850 2250 c-9 -6 -10 -10 -3 -10 6 0 15 5 18 10 8 12 4 12 -15 0z"/>
<path d="M934 2228 l-19 -23 23 19 c12 11 22 21 22 23 0 8 -8 2 -26 -19z"/>
<path d="M4125 2230 c10 -11 20 -20 23 -20 3 0 -3 9 -13 20 -10 11 -20 20 -23
20 -3 0 3 -9 13 -20z"/>
<path d="M871 2174 c-30 -38 -26 -55 4 -19 23 28 31 45 21 45 -3 0 -14 -12
-25 -26z"/>
<path d="M873 2135 c-21 -21 -33 -41 -29 -50 3 -8 2 -15 -2 -15 -4 0 -16 -15
-27 -32 l-19 -33 40 32 c40 32 103 133 83 133 -6 0 -27 -16 -46 -35z"/>
<path d="M4064 2158 c-4 -7 -4 -10 0 -6 11 9 113 -89 152 -147 50 -74 72 -100
78 -94 4 3 -7 31 -22 62 -24 48 -26 54 -9 46 10 -6 20 -9 23 -7 2 2 -25 20
-59 40 -34 20 -83 54 -109 77 -33 30 -49 38 -54 29z"/>
<path d="M4205 2100 c10 -11 20 -20 23 -20 3 0 -3 9 -13 20 -10 11 -20 20 -23
20 -3 0 3 -9 13 -20z"/>
<path d="M1199 1978 c-33 -36 -73 -88 -67 -88 3 0 30 27 61 60 32 33 53 60 47
60 -6 0 -25 -15 -41 -32z"/>
<path d="M1513 1892 c-66 -39 -163 -125 -163 -143 0 -6 26 11 58 38 31 27 83
69 115 92 49 36 65 51 55 51 -2 0 -31 -17 -65 -38z"/>
<path d="M1054 1842 c-6 -4 -22 -27 -34 -52 -26 -52 -10 -43 41 22 28 35 24
51 -7 30z"/>
<path d="M3263 1788 c-44 -55 -152 -206 -178 -247 -6 -11 -4 -13 9 -8 20 8 16
-1 -27 -56 -16 -20 -34 -34 -39 -31 -7 4 -8 2 -4 -5 4 -7 -3 -26 -16 -44 -28
-36 -43 -71 -28 -62 17 10 119 142 131 169 7 14 20 28 31 31 10 4 18 10 18 14
0 12 48 61 60 61 14 0 15 5 -36 -116 -52 -123 -94 -246 -94 -272 1 -9 7 -1 14
18 39 105 48 117 143 201 52 46 113 104 134 128 l39 44 -11 -34 c-33 -99 -299
-419 -321 -387 -7 10 -8 10 -5 -2 2 -8 0 -23 -4 -32 -6 -11 -5 -19 3 -24 6 -4
8 -3 5 3 -4 6 23 34 58 62 36 29 94 84 130 123 38 41 65 64 65 54 0 -9 -4 -16
-8 -16 -11 0 -35 -51 -28 -58 3 -3 13 1 23 9 15 12 16 12 10 -3 -3 -10 -3 -18
1 -18 9 0 54 148 55 180 0 24 0 24 12 -5 11 -26 9 -48 -21 -175 -19 -79 -41
-165 -49 -189 -8 -24 -13 -47 -10 -49 3 -3 5 -3 5 0 0 3 27 82 59 177 l59 171
37 -50 c36 -49 36 -52 31 -117 -4 -52 -3 -60 4 -33 20 77 16 103 -27 165 -40
58 -41 62 -36 122 l5 63 27 -35 c68 -88 125 -161 134 -170 13 -13 4 2 -55 97
-26 43 -62 107 -79 143 -24 52 -34 64 -44 55 -10 -9 -14 -6 -17 12 -4 22 -5
22 -16 -6 -7 -16 -22 -42 -34 -59 -18 -25 -23 -27 -27 -14 -5 13 -16 5 -49
-37 -54 -67 -98 -109 -89 -83 4 9 2 17 -3 17 -13 0 18 79 87 223 l57 118 -21
20 -20 21 -50 -64z m173 -248 c-7 -40 -14 -58 -18 -48 -8 19 17 127 26 117 2
-2 -2 -33 -8 -69z"/>
<path d="M3430 1762 c0 -11 181 -96 233 -110 33 -9 37 -9 27 3 -7 8 -16 13
-20 10 -4 -3 -10 3 -12 13 -3 10 -21 29 -39 42 l-34 23 35 -38 c19 -22 28 -34
20 -28 -13 10 -198 93 -207 93 -2 0 -3 -4 -3 -8z"/>
<path d="M1550 1723 c-57 -23 -81 -43 -197 -160 -73 -74 -133 -139 -133 -145
0 -6 8 -4 19 6 17 16 19 14 30 -40 6 -32 12 -73 12 -93 l1 -36 9 40 c4 22 8
63 8 91 1 32 6 56 16 64 15 13 17 9 30 -75 7 -42 70 -238 85 -264 8 -14 9 -14
10 2 0 22 38 97 48 97 8 0 43 -85 103 -250 l27 -75 -4 75 c-7 115 -14 153 -30
180 l-15 25 6 -32 c15 -92 11 -89 -26 20 -22 65 -41 136 -42 158 -2 34 -4 37
-14 22 -7 -9 -13 -30 -13 -45 0 -16 -8 -43 -17 -61 l-18 -32 -6 50 -6 50 -2
-55 -3 -55 -25 75 c-17 48 -27 107 -31 163 -2 48 -7 87 -9 87 -3 0 -19 -10
-35 -22 -28 -19 -30 -20 -20 -2 23 43 180 182 252 222 86 48 83 52 -10 15z"/>
<path d="M1598 1707 c-42 -23 -91 -54 -110 -69 -28 -23 -19 -21 50 14 71 36
159 97 142 97 -3 1 -39 -18 -82 -42z"/>
<path d="M3460 1688 c0 -7 14 -38 32 -68 17 -30 44 -79 60 -107 35 -64 47 -70
18 -10 l-21 42 31 -35 c54 -62 94 -154 92 -215 -1 -41 5 -65 24 -100 25 -44
26 -55 8 -112 -3 -10 4 -2 15 17 30 52 81 213 88 283 l7 62 8 -64 c9 -83 18
-105 28 -71 5 14 9 41 9 60 l1 35 21 -25 20 -25 -15 32 c-21 41 -20 54 2 46
29 -10 -60 77 -123 120 -47 33 -281 147 -301 147 -2 0 -4 -6 -4 -12z m235
-119 c83 -40 144 -83 134 -93 -3 -4 -18 3 -33 15 -15 12 -29 20 -30 18 -2 -2
-13 -38 -25 -80 -14 -50 -20 -100 -19 -150 l1 -74 8 90 c12 144 59 249 59 133
0 -54 -69 -300 -70 -250 0 7 -8 24 -17 39 -13 20 -16 44 -14 108 3 106 -10
134 -125 254 l-86 91 68 -31 c38 -17 105 -48 149 -70z"/>
<path d="M3595 1580 c21 -22 41 -40 44 -40 3 0 -13 18 -34 40 -21 22 -41 40
-44 40 -3 0 13 -18 34 -40z"/>
<path d="M1565 1616 c-33 -29 -82 -81 -110 -114 -34 -43 -52 -57 -58 -49 -6 8
-7 6 -3 -5 3 -10 1 -18 -4 -18 -6 0 -10 -5 -10 -11 0 -6 17 3 39 20 46 37 227
231 215 231 -5 0 -36 -24 -69 -54z"/>
<path d="M3314 1598 l-19 -23 23 19 c21 18 27 26 19 26 -2 0 -12 -10 -23 -22z"/>
<path d="M3269 1543 c-13 -16 -12 -17 4 -4 16 13 21 21 13 21 -2 0 -10 -8 -17
-17z"/>
<path d="M1623 1451 l-100 -90 7 -48 c4 -26 6 -52 3 -58 -3 -5 6 3 20 20 l25
29 5 -39 c4 -22 9 -64 13 -92 3 -29 10 -53 15 -53 5 0 9 1 9 3 0 13 -30 170
-34 176 -3 4 11 28 31 52 28 35 24 33 -22 -14 -32 -32 -54 -50 -51 -40 4 10
10 31 13 46 4 19 34 52 94 104 83 71 101 93 81 93 -4 0 -53 -40 -109 -89z"/>
<path d="M1401 1494 c0 -11 3 -14 6 -6 3 7 2 16 -1 19 -3 4 -6 -2 -5 -13z"/>
<path d="M3220 1479 c0 -5 5 -7 10 -4 6 3 10 8 10 11 0 2 -4 4 -10 4 -5 0 -10
-5 -10 -11z"/>
<path d="M1752 1450 c0 -14 2 -19 5 -12 2 6 2 18 0 25 -3 6 -5 1 -5 -13z"/>
<path d="M1755 1345 c5 -50 96 -367 103 -360 2 2 -1 41 -7 87 -6 56 -25 123
-56 203 -41 107 -45 114 -40 70z"/>
<path d="M3025 1285 c-38 -57 -71 -103 -73 -101 -2 2 9 32 23 66 27 64 28 94
2 43 -21 -40 -137 -303 -137 -310 0 -3 -15 -26 -34 -52 -59 -80 -126 -231
-103 -231 3 0 29 40 57 90 28 49 76 121 106 160 30 39 54 72 54 75 0 11 -25 4
-44 -12 -17 -16 -16 -13 4 17 44 65 133 180 139 180 4 0 12 -5 17 -10 7 -7 16
7 26 47 18 64 36 143 34 143 -1 0 -33 -47 -71 -105z"/>
<path d="M2919 1322 c-20 -47 -40 -65 -52 -44 -2 4 -2 2 -1 -5 2 -7 -1 -15 -6
-18 -6 -4 -10 -13 -10 -22 0 -9 -25 -71 -55 -138 -30 -68 -55 -126 -55 -129 0
-3 -18 -45 -39 -93 -50 -112 -64 -171 -18 -78 18 39 53 101 76 139 60 98 199
421 186 434 -2 3 -14 -18 -26 -46z"/>
<path d="M3578 1137 c-63 -180 -75 -227 -59 -227 6 0 11 7 11 15 0 8 24 75 54
148 60 146 72 189 59 211 -6 11 -26 -33 -65 -147z"/>
<path d="M3575 1273 c-35 -88 -87 -256 -105 -336 -12 -54 -34 -122 -49 -152
-30 -60 -23 -64 13 -7 28 46 79 197 105 317 11 50 27 112 35 140 15 48 16 74
1 38z"/>
<path d="M3285 1210 c-4 -25 -7 -62 -6 -82 3 -58 -27 -167 -64 -235 -19 -35
-32 -63 -30 -63 3 0 21 25 40 55 42 65 64 145 68 240 1 39 5 72 8 75 3 3 2 16
-1 30 -6 22 -8 19 -15 -20z"/>
<path d="M1751 1200 c0 -8 6 -26 15 -40 l15 -25 -7 25 c-3 14 -10 32 -15 40
-7 13 -8 13 -8 0z"/>
<path d="M3465 1175 c-26 -113 -51 -190 -73 -225 l-27 -41 -5 48 -5 48 -22
-76 c-15 -50 -40 -102 -76 -154 -62 -92 -70 -105 -64 -105 4 0 143 161 173
202 l22 29 -5 -48 -4 -48 30 59 c56 107 96 282 73 322 -9 17 -11 16 -17 -11z"/>
<path d="M1634 1155 c-11 -42 2 -124 31 -193 14 -35 28 -83 32 -108 4 -31 9
-41 15 -32 4 7 6 36 2 63 -6 49 -62 286 -69 294 -2 2 -7 -9 -11 -24z"/>
<path d="M1680 1161 c0 -49 31 -174 58 -233 28 -61 138 -238 148 -238 3 0 -18
43 -46 95 -28 52 -50 104 -48 116 3 18 8 14 43 -28 22 -27 74 -80 115 -119 72
-67 69 -61 -35 62 -28 33 -69 90 -90 128 l-40 68 -5 -34 -6 -33 -17 49 c-9 27
-17 63 -18 80 -1 30 -1 30 -8 6 -6 -22 -9 -16 -24 38 -18 63 -27 77 -27 43z"/>
<path d="M3502 1135 c0 -16 2 -22 5 -12 2 9 2 23 0 30 -3 6 -5 -1 -5 -18z"/>
<path d="M2046 1110 c4 -19 13 -50 20 -70 l14 -35 -6 35 c-4 19 -13 50 -20 70
l-14 35 6 -35z"/>
<path d="M2410 1113 c1 -5 10 -24 21 -43 11 -19 18 -27 15 -17 -4 11 -9 30
-12 43 -6 22 -25 35 -24 17z"/>
<path d="M3093 951 c-68 -136 -99 -186 -173 -278 -50 -62 -89 -116 -88 -120 1
-4 -9 -37 -24 -73 -14 -36 -29 -81 -32 -100 -6 -31 -4 -30 16 15 40 86 51 101
148 207 52 57 102 112 109 123 8 11 -8 -5 -36 -35 -28 -31 -77 -78 -109 -105
l-59 -50 64 75 c81 94 129 169 220 344 61 115 71 140 60 151 -12 11 -28 -15
-96 -154z"/>
<path d="M3110 1070 c-8 -15 -17 -19 -31 -15 -16 5 -24 -3 -45 -50 -14 -32
-22 -60 -19 -63 3 -3 5 -1 5 4 0 6 7 19 16 30 15 18 15 17 10 -16 -5 -26 -3
-31 4 -20 18 26 80 150 75 150 -2 0 -9 -9 -15 -20z"/>
<path d="M3291 983 c-1 -6 -4 -20 -7 -30 -5 -17 -5 -17 6 0 6 10 9 23 6 30 -3
9 -5 9 -5 0z"/>
<path d="M1861 954 c0 -11 3 -14 6 -6 3 7 2 16 -1 19 -3 4 -6 -2 -5 -13z"/>
<path d="M2701 944 c0 -11 3 -14 6 -6 3 7 2 16 -1 19 -3 4 -6 -2 -5 -13z"/>
<path d="M3245 879 c-16 -28 -41 -60 -54 -72 -23 -21 -24 -21 -17 -2 5 16 3
15 -13 -5 -11 -13 -18 -27 -16 -31 3 -3 -9 -19 -25 -34 -17 -16 -30 -26 -30
-22 0 4 18 49 40 101 46 108 48 118 17 79 -39 -48 -62 -95 -77 -158 -15 -69
-25 -90 -53 -125 -12 -14 31 27 96 90 84 82 124 130 142 168 14 30 25 56 23
57 -2 2 -16 -19 -33 -46z m-75 -99 c0 -5 -5 -10 -11 -10 -5 0 -7 5 -4 10 3 6
8 10 11 10 2 0 4 -4 4 -10z"/>
<path d="M2764 538 l-19 -23 23 19 c12 11 22 21 22 23 0 8 -8 2 -26 -19z"/>
</g>
</svg>