<?xml version="1.0" standalone="no"?>
<!DOCTYPE svg PUBLIC "-//W3C//DTD SVG 20010904//EN"
 "http://www.w3.org/TR/2001/REC-SVG-20010904/DTD/svg10.dtd">
<svg version="1.0" xmlns="http://www.w3.org/2000/svg"
 width="512.000000pt" height="512.000000pt" viewBox="0 0 512.000000 512.000000"
 preserveAspectRatio="xMidYMid meet">
<metadata>
Created by potrace 1.16, written by Peter Selinger 2001-2019
</metadata>
<g transform="translate(0.000000,512.000000) scale(0.100000,-0.100000)"
fill="#000000" stroke="none">
<path d="M1744 4369 c-47 -13 -120 -83 -149 -143 -75 -154 -44 -348 74 -466
78 -78 171 -107 283 -90 44 7 21 20 -36 20 -113 0 -205 49 -269 142 -141 206
-37 517 174 518 68 0 138 -40 210 -120 33 -38 78 -80 99 -95 47 -33 74 -84 66
-128 -4 -23 -4 -26 3 -12 l8 20 6 -20 c3 -11 5 -1 4 23 -2 36 -1 40 9 27 11
-15 13 -15 22 1 6 11 11 13 16 5 11 -17 26 -13 26 7 0 14 2 15 10 2 8 -13 10
-12 10 5 0 14 3 16 11 8 9 -9 19 -8 42 4 38 19 109 13 146 -14 35 -27 61 -101
70 -203 l8 -85 2 111 c1 128 -10 169 -52 194 l-31 19 27 10 c14 6 39 8 54 5
15 -2 53 -8 84 -13 31 -5 65 -13 75 -18 11 -5 35 -10 54 -12 19 -1 42 -9 52
-18 16 -14 18 -14 24 0 5 13 8 13 25 -4 26 -26 33 -24 48 17 17 48 24 37 11
-17 -16 -62 -14 -77 15 -119 14 -21 35 -59 46 -86 l20 -49 -5 43 c-2 25 -15
57 -31 78 -33 43 -40 87 -25 144 10 37 29 61 108 137 53 51 117 103 142 117
54 29 120 44 120 26 0 -7 8 -9 19 -5 29 9 94 -28 131 -75 135 -171 86 -449
-96 -539 -30 -16 -72 -26 -118 -29 -69 -5 -70 -6 -41 -18 40 -17 71 -17 133 1
66 20 152 97 186 168 89 184 28 427 -129 510 -60 32 -147 30 -206 -5 -53 -31
-225 -185 -246 -219 -10 -18 -13 -19 -8 -4 6 18 4 18 -18 -3 l-24 -23 -8 23
c-7 22 -7 22 -14 -7 -4 -21 -9 -26 -15 -17 -4 7 -14 11 -22 8 -7 -3 -16 -1
-19 4 -10 16 -28 12 -22 -4 5 -11 -4 -10 -36 5 -55 25 -74 25 -56 2 7 -10 0
-6 -17 10 -31 28 -51 36 -38 15 4 -6 -3 -4 -17 5 -30 21 -46 22 -28 1 12 -15
10 -15 -25 0 -48 20 -116 21 -116 2 0 -9 -24 -17 -76 -25 -42 -6 -80 -9 -84
-6 -5 3 -12 0 -15 -5 -5 -8 -13 -6 -26 6 -15 13 -19 14 -20 3 0 -8 -4 -6 -9 6
-7 16 -9 14 -9 -15 -1 -34 -1 -34 -17 -12 -20 29 -38 29 -24 0 9 -20 8 -20 -7
2 -10 14 -31 38 -46 55 -22 23 -27 25 -23 10 4 -11 -33 21 -82 72 -124 129
-208 164 -318 132z"/>
<path d="M1773 4333 c-13 -2 -23 -9 -23 -14 0 -5 -6 -8 -12 -6 -7 1 -12 -6
-12 -15 1 -10 -5 -18 -13 -18 -8 0 -11 5 -7 13 4 6 -5 1 -19 -12 -31 -28 -32
-31 -12 -31 8 0 14 6 13 13 -2 7 6 11 21 9 26 -4 51 -24 51 -41 0 -6 4 -11 10
-11 20 0 82 -65 106 -111 13 -26 33 -82 45 -124 36 -134 40 -139 111 -163 35
-11 64 -19 65 -18 1 1 -4 24 -12 50 -8 27 -19 95 -25 151 -12 133 -39 205 -99
265 -59 58 -115 77 -188 63z m214 -305 c-3 -8 -6 -5 -6 6 -1 11 2 17 5 13 3
-3 4 -12 1 -19z m48 -178 c10 -11 16 -20 13 -20 -3 0 -13 9 -23 20 -10 11 -16
20 -13 20 3 0 13 -9 23 -20z"/>
<path d="M3265 4318 c-40 -22 -88 -74 -107 -118 -11 -25 -24 -86 -29 -140 -5
-52 -18 -126 -29 -165 -27 -95 -25 -101 14 -58 48 55 55 72 57 149 3 107 23
156 95 231 54 57 61 69 52 86 -7 14 -7 17 1 13 6 -4 11 -2 11 3 0 14 -39 14
-65 -1z m55 -34 c0 -2 -14 -4 -31 -4 -16 0 -28 4 -25 9 5 8 56 3 56 -5z"/>
<path d="M2287 4012 c-21 -23 -37 -68 -36 -100 1 -23 3 -21 14 14 7 22 20 55
29 72 19 36 17 40 -7 14z"/>
<path d="M2890 3993 c6 -10 22 -36 35 -58 14 -22 25 -35 25 -29 0 12 -57 104
-65 104 -3 0 -1 -8 5 -17z"/>
<path d="M3204 3961 c4 -6 3 -11 -3 -11 -5 0 -14 -15 -21 -34 -6 -18 -27 -52
-46 -75 -39 -45 -31 -51 33 -22 48 22 64 46 66 104 2 33 -2 42 -17 45 -11 2
-16 0 -12 -7z"/>
<path d="M1839 3912 c-6 -96 48 -176 133 -196 15 -3 37 -16 48 -28 l20 -22 0
47 c0 35 4 47 15 47 34 0 12 32 -37 54 -29 13 -81 44 -115 70 -50 37 -63 42
-64 28z"/>
<path d="M3309 3882 c-13 -11 -61 -38 -106 -61 -84 -42 -96 -54 -67 -65 9 -4
14 -9 11 -12 -7 -8 13 -64 23 -64 8 0 24 9 113 65 38 25 78 91 75 124 -4 32
-19 36 -49 13z"/>
<path d="M2255 3769 c-20 -18 -41 -41 -47 -52 -5 -11 6 -4 25 16 40 39 85 54
116 37 25 -13 27 -7 5 14 -24 25 -60 19 -99 -15z"/>
<path d="M2833 3794 c-19 -8 -16 -24 5 -22 42 3 64 -4 98 -34 29 -26 35 -28
26 -11 -23 42 -97 80 -129 67z"/>
<path d="M2258 3699 c-27 -15 -68 -92 -68 -127 0 -27 -6 -34 -34 -46 -18 -8
-37 -19 -41 -26 -4 -7 7 -4 25 5 33 17 49 10 50 -21 0 -19 25 -34 71 -44 36
-8 27 -9 -43 -5 -48 3 -89 1 -92 -3 -2 -4 3 -8 12 -8 9 -1 39 -7 65 -15 45
-13 51 -12 92 10 30 16 52 21 70 17 23 -6 25 -3 26 26 3 59 -2 122 -12 162
-18 69 -73 103 -121 75z m57 -74 c0 -22 -22 -30 -44 -16 -21 14 -5 43 21 39
15 -2 23 -10 23 -23z"/>
<path d="M2848 3693 c-31 -36 -38 -63 -37 -140 2 -92 11 -144 22 -125 5 7 31
12 68 12 50 0 64 4 84 25 14 13 25 33 25 44 0 19 2 18 48 -7 27 -15 42 -19 35
-11 -7 9 -29 24 -48 35 -19 10 -35 23 -35 29 0 35 -26 90 -56 120 -39 39 -81
46 -106 18z m62 -58 c17 -21 -1 -39 -29 -30 -27 8 -28 45 -2 45 10 0 24 -7 31
-15z"/>
<path d="M2423 3640 c0 -25 2 -35 4 -22 2 12 2 32 0 45 -2 12 -4 2 -4 -23z"/>
<path d="M3228 3643 c-22 -3 -38 -10 -38 -17 0 -7 -9 -21 -19 -30 -21 -19 -16
-38 17 -74 15 -17 16 -30 0 -14 -20 20 -32 13 -14 -7 10 -11 15 -24 12 -30 -4
-5 2 -16 11 -23 10 -7 25 -27 33 -43 l16 -30 -106 -41 c-128 -51 -211 -90
-273 -129 -62 -39 -60 -52 2 -20 42 21 50 22 55 9 11 -28 7 -32 -46 -50 -29
-9 -47 -19 -40 -22 7 -2 27 1 44 7 45 16 58 14 58 -9 0 -11 -7 -20 -15 -20 -8
0 -15 -3 -15 -7 0 -5 -14 -9 -30 -10 -17 -1 -38 -7 -48 -12 -12 -7 3 -8 47 -4
57 5 63 4 58 -12 -4 -9 -7 -19 -7 -21 0 -2 -24 -4 -54 -4 -30 0 -57 -4 -60 -8
-3 -5 15 -18 39 -30 25 -12 45 -29 45 -37 0 -13 -4 -14 -21 -4 -17 9 -30 7
-60 -7 -22 -9 -39 -21 -39 -26 0 -4 3 -7 8 -6 4 2 18 -5 32 -15 l25 -18 -25
-21 c-20 -16 -35 -19 -76 -16 -73 6 -104 29 -104 76 0 43 16 68 88 138 43 43
52 57 52 87 0 60 -25 95 -32 45 -10 -70 -201 -77 -238 -9 -17 32 -30 16 -30
-36 0 -44 3 -50 66 -110 64 -63 65 -65 62 -111 -3 -40 -8 -49 -37 -69 -39 -26
-117 -31 -166 -9 l-30 13 45 44 c25 23 37 40 28 36 -10 -3 -18 -3 -18 2 0 5
-23 11 -50 15 -29 4 -48 11 -45 16 8 13 3 13 -33 -6 -32 -15 -45 -31 -18 -21
21 8 28 -4 9 -18 -11 -8 -13 -14 -5 -19 7 -4 12 -3 12 2 0 5 7 9 16 9 15 0 14
-2 -1 -13 -13 -10 -22 -11 -31 -3 -7 6 -18 8 -24 4 -5 -3 -13 1 -16 9 -3 9
-10 14 -14 11 -5 -3 -16 -2 -25 1 -12 5 -1 12 37 25 29 11 67 26 85 34 17 8
38 15 47 15 9 0 16 5 16 10 0 6 -15 8 -38 4 -29 -4 -39 -3 -39 7 0 8 -2 21 -4
29 -3 12 6 15 51 13 38 -2 50 0 40 7 -8 5 -27 10 -42 10 -53 0 -72 22 -50 58
7 10 17 9 52 -3 24 -8 45 -13 48 -10 5 4 -28 20 -81 38 -15 6 -16 10 -7 27 10
19 12 19 43 4 18 -9 40 -23 50 -32 9 -8 17 -10 17 -4 0 5 -20 23 -45 39 -25
15 -45 35 -45 45 0 9 15 29 33 44 17 15 24 25 14 21 -10 -4 -20 -7 -22 -7 -2
0 -13 -15 -24 -34 l-21 -34 -98 43 c-54 24 -137 55 -185 70 -80 24 -86 28 -77
46 6 11 9 23 6 28 -3 5 8 26 24 46 17 21 30 40 30 42 0 13 -44 -24 -79 -66
l-42 -50 -72 4 -72 4 69 -10 c38 -5 72 -11 74 -14 3 -3 0 -17 -7 -32 l-13 -28
23 20 23 20 -16 -25 -15 -25 -159 1 -159 2 140 -8 c77 -4 148 -8 158 -9 15 -1
16 -4 6 -23 l-12 -23 23 20 22 20 -15 -37 c-15 -36 -15 -38 4 -38 26 0 24 -19
-3 -25 -13 -2 -75 -12 -138 -21 -133 -18 -299 -60 -420 -104 -74 -28 -153 -65
-95 -45 11 4 65 23 120 41 168 58 310 89 498 108 52 6 57 5 57 -14 0 -11 5
-20 12 -20 35 0 -18 -21 -97 -39 -120 -27 -308 -92 -406 -141 -43 -22 -79 -42
-79 -45 0 -3 31 10 69 29 123 62 501 180 501 157 0 -4 -15 -24 -32 -43 -25
-28 -56 -44 -134 -72 -103 -37 -257 -114 -284 -143 -8 -8 5 -3 30 13 98 60
362 165 378 149 3 -3 0 -5 -7 -5 -7 0 -10 -3 -7 -8 2 -4 -9 -26 -25 -50 -16
-23 -29 -47 -29 -52 0 -6 -22 -24 -50 -41 -65 -40 -64 -46 1 -13 28 14 53 24
54 22 2 -2 -14 -27 -36 -55 -22 -29 -35 -55 -29 -58 6 -4 4 -15 -5 -29 -8 -12
-12 -26 -8 -29 3 -4 2 -7 -4 -7 -6 0 -14 -8 -18 -17 -4 -12 3 -9 22 10 40 37
48 34 24 -10 -48 -91 -91 -184 -82 -178 6 3 2 -10 -10 -29 -20 -35 -15 -48 9
-24 9 9 9 4 1 -23 -7 -19 -12 -44 -13 -56 0 -13 -4 -23 -7 -23 -3 0 -11 -11
-17 -25 -14 -31 0 -33 28 -5 22 22 27 15 6 -9 -12 -15 -46 -144 -46 -179 0
-13 3 -13 19 2 17 16 16 6 -11 -101 -16 -65 -40 -137 -53 -160 l-23 -42 23 15
c28 18 45 59 76 183 l24 95 7 -52 c14 -93 54 -174 133 -266 83 -97 125 -154
106 -141 -8 4 -12 4 -9 -1 2 -5 13 -29 23 -54 17 -40 37 -80 129 -255 36 -70
106 -225 100 -225 -2 0 -31 53 -63 118 -56 111 -90 167 -91 149 0 -4 9 -25 20
-46 10 -21 16 -41 13 -45 -4 -3 -2 -6 4 -6 6 0 10 -10 9 -23 -1 -12 1 -24 5
-27 7 -6 55 -193 65 -255 l6 -40 -30 45 c-17 25 -76 90 -132 145 l-101 100 26
-68 c14 -37 24 -71 24 -75 -3 -19 3 -33 27 -61 l26 -31 -26 0 c-13 0 -28 5
-31 10 -4 6 -11 7 -17 4 -6 -4 -8 -2 -5 3 4 6 -16 48 -44 94 -29 46 -49 74
-46 62 3 -13 1 -26 -4 -29 -5 -3 -7 -10 -4 -15 4 -5 2 -9 -4 -9 -21 0 -104
141 -138 234 -8 23 -19 88 -23 146 l-8 105 2 -130 c3 -116 7 -140 36 -228 21
-62 52 -126 85 -177 57 -87 58 -103 1 -40 -113 125 -172 392 -132 599 20 102
20 102 1 95 -8 -4 -12 -11 -8 -18 3 -6 3 -8 -2 -4 -4 4 -15 -1 -24 -10 -9 -10
-13 -13 -9 -7 3 5 18 46 33 90 14 44 32 86 38 94 19 24 -45 -24 -73 -54 -23
-26 -23 -27 -3 -16 l21 11 -23 -88 c-13 -48 -21 -89 -19 -91 2 -2 13 4 24 14
21 19 21 19 13 -26 -4 -24 -8 -56 -8 -71 0 -14 -3 -24 -7 -22 -4 3 -5 -10 -2
-28 3 -18 11 -72 18 -120 l12 -88 -92 0 c-128 0 -243 -22 -424 -83 -131 -43
-167 -51 -230 -51 -122 -1 -185 50 -184 149 1 112 131 279 316 402 106 71 116
79 100 95 -18 18 -120 -22 -215 -84 -115 -76 -217 -181 -259 -266 -67 -135
-35 -289 77 -374 107 -82 245 -89 460 -23 169 52 249 65 388 65 l122 -1 36
-62 c24 -40 33 -64 26 -69 -6 -3 -49 -12 -96 -19 -84 -12 -377 -8 -546 7 -38
4 -68 4 -64 1 8 -10 126 -39 214 -52 l80 -13 -135 -2 c-82 -1 -123 -5 -105 -9
33 -8 176 -6 265 4 39 4 49 3 34 -4 -12 -5 -24 -16 -27 -25 -7 -18 25 -21 107
-10 56 8 60 21 9 26 -21 2 19 6 88 9 l127 4 -9 -23 c-13 -35 -11 -86 5 -108
14 -18 12 -20 -22 -30 -33 -10 -26 -11 78 -16 102 -5 1603 -4 1805 1 77 2 79
3 45 15 -34 12 -34 13 -13 25 32 17 38 54 18 106 -20 54 -63 92 -120 106 l-44
11 30 48 c38 62 85 166 94 210 4 19 13 45 21 58 21 32 53 168 47 195 -5 22 -5
22 11 2 17 -20 17 -20 13 5 -8 40 -55 264 -62 292 -6 23 -4 25 19 23 25 -3 25
-3 11 26 -8 15 -20 75 -25 131 -10 94 -37 234 -56 283 -7 17 -6 18 8 7 10 -8
2 22 -23 80 -45 109 -48 128 -17 120 16 -4 19 -2 12 9 -4 8 -9 19 -10 24 -1 6
-16 48 -33 94 -35 94 -35 95 -21 86 18 -11 11 16 -12 48 l-23 32 35 -24 35
-24 -26 29 c-23 26 -82 108 -104 143 -6 10 3 8 26 -6 75 -44 149 -84 149 -80
0 3 -45 33 -101 67 -55 34 -98 64 -95 67 3 4 -8 30 -25 60 -17 29 -28 53 -25
53 3 0 50 -14 103 -31 93 -30 250 -103 321 -150 17 -11 32 -19 32 -16 0 10
-130 88 -210 126 -47 21 -124 51 -171 66 -70 21 -89 32 -103 56 l-17 29 43 0
c68 0 212 -28 306 -60 48 -16 88 -27 90 -26 2 2 -35 18 -82 35 -74 26 -161 46
-303 67 -31 5 -31 5 -21 37 6 18 12 33 12 34 1 1 49 -4 106 -12 57 -8 106 -13
108 -10 3 3 -1 5 -9 6 -8 0 -50 7 -94 14 l-80 14 135 -3 c83 -2 120 0 95 5
-22 4 -88 8 -147 8 l-108 1 0 31 c0 23 4 30 14 26 10 -4 13 -1 10 7 -6 16 152
35 321 39 l100 3 -115 2 c-63 1 -155 -3 -205 -9 -86 -9 -91 -9 -107 12 -22 26
-23 39 -3 39 9 0 0 14 -23 36 -20 20 -31 33 -24 29 18 -9 15 3 -9 36 -11 16
-17 34 -14 39 4 6 1 17 -5 25 -7 8 -9 15 -5 15 4 0 2 6 -4 14 -9 11 -3 21 29
50 22 20 37 35 33 34 -5 -1 -25 -3 -45 -5z m-1080 -352 c77 -31 155 -72 149
-78 -3 -3 -34 4 -69 15 -69 23 -152 44 -240 62 -56 11 -57 11 -47 39 l10 28
72 -22 c40 -12 96 -32 125 -44z m1108 52 c18 -24 18 -38 0 -24 -11 9 -14 8
-12 -5 1 -13 -25 -24 -124 -50 -69 -19 -141 -36 -160 -39 l-35 -6 30 17 c36
21 266 123 279 124 5 0 15 -8 22 -17z m-1091 -109 c146 -42 169 -59 70 -50
-38 3 -110 8 -160 10 l-90 5 75 -9 c175 -21 227 -32 227 -46 0 -11 -23 -14
-112 -14 -62 0 -132 -3 -157 -6 l-45 -6 -17 48 c-9 26 -16 64 -16 84 l0 37 52
-9 c29 -5 106 -25 173 -44z m1085 16 c0 -34 9 -31 -169 -55 -162 -21 -180 -8
-45 34 205 63 214 63 214 21z m-10 -67 c0 -7 -7 -10 -15 -7 -8 4 -15 2 -15 -4
0 -6 6 -13 13 -15 7 -4 6 -6 -5 -6 -9 -1 -18 -5 -20 -10 -1 -5 -56 -11 -120
-13 -107 -4 -118 -3 -118 13 0 19 49 34 160 48 86 11 120 9 120 -6z m-680 -58
c54 -19 101 -19 146 0 52 21 40 -5 -13 -29 -23 -11 -46 -29 -51 -40 -9 -20 -9
-20 -21 2 -6 12 -19 22 -27 22 -23 0 -71 27 -77 45 -8 18 -9 18 43 0z m-326
-11 c25 -4 46 -10 46 -14 0 -4 -30 -10 -67 -14 -38 -4 -97 -12 -132 -18 -58
-11 -65 -10 -77 7 -22 30 -18 34 44 38 113 7 140 7 186 1z m935 -19 c-13 -13
-32 -14 -112 -9 -53 4 -97 11 -97 15 0 5 50 9 112 9 101 0 111 -2 97 -15z
m-1212 -12 c-4 -3 -2 -13 5 -20 9 -11 9 -17 -3 -24 -17 -11 -39 -12 -39 -1 0
10 30 52 37 52 4 0 3 -3 0 -7z m318 -18 c-5 -2 -54 -16 -108 -30 -96 -27 -98
-27 -118 -9 -21 19 -21 19 42 30 57 10 209 18 184 9z m849 -4 c3 -5 -1 -14 -9
-21 -12 -10 -27 -10 -75 0 -34 7 -63 17 -66 21 -3 5 29 9 70 9 41 0 77 -4 80
-9z m132 -63 c14 -27 24 -54 22 -58 -5 -14 -113 45 -113 61 0 8 6 13 13 11 8
-1 11 2 7 8 -12 20 3 39 25 33 12 -3 31 -26 46 -55z m-966 43 c0 -9 -53 -27
-133 -47 -15 -3 -26 -8 -24 -10 2 -3 37 3 77 11 41 9 77 12 82 7 5 -5 -20 -20
-54 -34 -67 -27 -78 -26 -132 15 -17 12 -10 16 75 39 110 31 109 31 109 19z
m764 -22 c38 -11 39 -12 19 -22 -25 -11 -117 9 -108 23 3 5 -1 11 -7 14 -18 9
48 -2 96 -15z m-1045 -19 l22 -30 -92 -45 c-51 -25 -94 -43 -96 -41 -2 2 13
31 34 65 35 56 56 72 104 80 3 1 15 -13 28 -29z m895 11 c37 -15 -1 -21 -40
-7 -38 14 -38 15 -9 15 17 0 39 -4 49 -8z m99 -27 c38 -9 21 -26 -29 -30 -26
-2 -33 0 -24 7 13 7 12 9 -2 9 -11 0 -15 5 -12 15 4 9 14 13 23 11 9 -3 29 -8
44 -12z m299 -99 c10 -13 19 -32 21 -43 1 -11 16 -31 32 -45 23 -20 26 -26 13
-27 -14 0 -14 -5 7 -42 13 -24 35 -78 49 -122 13 -43 33 -88 43 -100 10 -12 0
-4 -21 17 -33 33 -38 36 -32 16 4 -13 16 -62 27 -109 11 -47 33 -119 49 -160
25 -66 60 -212 60 -244 0 -6 -9 7 -20 29 -25 50 -21 25 18 -113 l30 -104 -41
39 c-40 38 -41 33 -3 -21 11 -16 15 -27 9 -23 -7 5 -7 -8 2 -37 8 -24 21 -93
30 -152 15 -93 16 -125 6 -223 -7 -64 -14 -117 -16 -120 -3 -2 -5 26 -5 63 0
38 -4 65 -9 62 -5 -4 -12 13 -16 36 -7 46 -42 134 -50 127 -2 -3 2 -29 10 -59
38 -144 29 -281 -27 -398 -34 -72 -46 -78 -23 -11 18 51 48 226 41 243 -2 6
-5 1 -5 -12 -1 -34 -37 -136 -82 -230 -33 -71 -40 -81 -53 -70 -7 7 -11 18 -8
23 3 6 21 34 39 63 31 47 32 54 18 68 -8 8 -15 12 -15 8 0 -4 -7 1 -16 12 -12
15 -15 16 -10 2 4 -12 0 -16 -15 -13 -12 2 -19 -1 -17 -7 2 -6 -8 -24 -22 -41
-46 -57 -145 -159 -160 -167 -28 -15 -24 47 6 98 39 66 145 305 130 293 -7 -6
-25 -10 -40 -9 -32 3 -31 6 35 148 72 155 31 99 -125 -170 -30 -51 -32 -46
-11 24 8 27 13 51 12 53 -4 3 -22 -31 -130 -257 -36 -74 -87 -164 -113 -201
-27 -36 -57 -76 -66 -90 -17 -23 -17 -22 -1 16 8 22 26 69 39 105 27 73 36 80
-73 -52 -69 -84 -92 -104 -65 -57 11 19 53 108 93 199 79 178 146 302 211 390
64 85 179 220 188 220 4 0 20 17 36 38 l28 37 -36 -27 c-31 -24 -37 -25 -42
-11 -7 18 -2 26 87 121 38 41 80 92 95 115 19 30 33 42 49 41 12 -1 20 2 18 6
-3 4 1 10 9 13 7 3 14 18 14 32 0 15 4 30 10 34 11 7 -7 112 -29 166 -12 29
-12 28 -25 -42 -18 -105 -30 -119 -36 -45 -3 33 -11 68 -17 79 -8 14 -10 8
-11 -35 0 -38 3 -51 12 -46 8 5 9 2 3 -12 -4 -10 -11 -39 -16 -63 -11 -54 -19
-64 -20 -25 l-1 29 -11 -33 c-5 -18 -28 -52 -49 -75 -22 -23 -36 -35 -33 -27
10 22 -41 -39 -71 -84 -14 -21 -33 -61 -41 -89 -18 -60 -74 -151 -102 -166
-19 -11 -19 -10 -4 22 9 17 24 44 35 59 20 29 22 38 9 38 -5 0 -13 -9 -16 -20
-3 -11 -13 -20 -22 -20 -13 0 -14 7 -8 43 11 62 11 71 0 77 -5 3 -17 -16 -26
-43 -8 -26 -19 -44 -24 -40 -4 5 -5 0 -2 -9 4 -10 2 -18 -3 -18 -6 0 -19 -9
-30 -20 -23 -23 -23 -22 -11 51 5 30 12 76 15 103 5 42 4 47 -9 36 -8 -7 -15
-23 -15 -36 0 -16 -6 -24 -17 -24 -15 0 -16 -2 -3 -10 8 -5 10 -10 4 -10 -22
0 -37 30 -31 64 10 63 127 266 189 329 65 65 61 74 -8 21 l-48 -37 33 42 c19
23 44 49 56 57 33 21 89 28 127 15 30 -10 31 -9 14 4 -42 32 -119 28 -210 -10
-18 -8 -19 -7 -5 13 9 12 33 35 54 52 49 39 35 38 -45 -5 l-64 -35 39 41 c22
23 60 54 85 70 62 39 42 36 -39 -6 -90 -48 -219 -151 -263 -211 -46 -65 -99
-160 -68 -124 54 63 75 82 113 102 l41 20 -18 -27 c-20 -30 -7 -27 32 8 l22
20 0 -22 c0 -12 -8 -36 -17 -54 -9 -18 -17 -41 -19 -52 -1 -11 -14 -51 -29
-89 -14 -39 -32 -99 -40 -135 -8 -37 -34 -115 -59 -174 -26 -60 -46 -114 -45
-120 0 -7 3 -5 6 3 11 31 95 170 103 170 4 0 10 -10 14 -22 11 -42 6 -87 -14
-138 -11 -28 -17 -56 -14 -62 5 -7 2 -8 -6 -3 -10 6 -12 4 -7 -8 3 -9 3 -17
-1 -19 -11 -4 -55 -139 -106 -323 -45 -162 -84 -267 -85 -230 0 11 6 88 14
170 8 83 14 188 14 235 l-1 85 -13 -65 -13 -65 -2 45 c-2 37 -5 30 -15 -45
l-12 -90 -3 80 c-7 206 -17 217 -19 20 -1 -110 -6 -207 -11 -215 -9 -13 -10
-13 -10 0 -1 8 -12 42 -25 75 -20 48 -24 53 -20 25 l5 -35 -14 37 c-26 67
-100 202 -104 189 -2 -6 21 -75 51 -154 56 -145 93 -275 85 -298 -3 -8 -29 21
-59 65 -30 43 -109 157 -176 252 -128 182 -128 181 -60 175 23 -3 22 8 -5 36
-29 31 -20 36 24 15 29 -14 45 -35 84 -109 27 -50 50 -90 52 -88 2 1 -11 33
-28 71 -38 84 -57 175 -66 307 -3 56 -10 117 -14 134 -5 19 -4 35 1 39 5 3 6
10 3 16 -6 9 12 27 26 28 3 0 14 -17 25 -37 11 -21 23 -40 26 -43 3 -3 20 -30
37 -60 38 -67 76 -167 107 -280 27 -99 32 -86 9 26 -19 91 -75 233 -127 322
-20 35 -37 69 -37 76 0 8 -10 20 -22 28 -17 11 -19 16 -8 23 9 5 11 4 6 -3 -4
-7 -2 -12 3 -12 6 0 11 2 11 4 0 5 -58 134 -72 161 -9 17 -6 16 16 -4 31 -29
33 -23 5 30 -11 23 -18 44 -14 47 7 7 88 -74 117 -118 13 -19 16 -20 11 -5
-10 30 -66 129 -77 137 -6 4 -8 8 -5 8 7 0 -131 134 -185 180 -23 20 -21 14
13 -29 23 -30 49 -67 57 -83 15 -28 15 -29 -8 -16 -13 7 -25 15 -28 18 -3 3
-14 6 -25 7 -11 2 -40 5 -65 8 l-45 6 39 -15 c52 -20 71 -39 25 -26 -50 15
-116 12 -149 -5 -37 -19 -39 -28 -4 -15 32 12 95 13 126 1 13 -5 40 -30 61
-57 39 -50 48 -81 21 -70 -14 5 -16 1 -11 -34 l5 -40 -26 18 c-56 39 -56 28
-1 -29 63 -64 126 -179 135 -244 l5 -40 -15 30 -16 30 3 -37 c3 -43 1 -45 -26
-20 -19 16 -19 16 -14 -3 22 -75 37 -149 33 -158 -2 -7 -5 -4 -5 7 -1 14 -7
17 -26 14 -20 -4 -26 -1 -31 18 -3 13 -10 24 -15 24 -5 0 -5 7 -2 17 4 10 2
14 -5 9 -6 -3 -13 2 -17 13 -3 10 -14 26 -24 36 -17 15 -17 10 5 -42 28 -69
31 -98 8 -89 -9 3 -20 6 -24 6 -5 0 -15 19 -22 42 -7 24 -21 51 -30 60 -22 22
-22 15 -3 -47 8 -27 12 -51 10 -53 -8 -8 -45 64 -66 128 -30 92 -63 145 -112
179 -46 32 -77 65 -77 82 0 6 -7 17 -15 25 -11 11 -14 33 -11 87 3 56 2 61 -3
20 -11 -90 -28 -86 -38 9 -5 45 -6 88 -2 93 10 16 19 45 14 45 -3 0 -17 -18
-31 -40 -15 -22 -28 -39 -30 -37 -2 2 5 32 16 68 11 35 18 70 15 78 -3 7 -1
19 5 26 5 6 17 29 25 51 17 41 14 40 -31 -21 -12 -17 -12 -14 1 19 8 21 12 42
9 48 -3 5 -1 15 5 22 6 7 18 32 26 56 14 40 14 42 -3 29 -16 -13 -16 -12 -1 6
9 11 19 29 23 40 5 11 19 49 33 85 24 64 24 64 3 45 -18 -16 -16 -9 10 35 18
30 37 62 43 70 6 8 -2 4 -17 -10 l-29 -25 26 39 c20 31 46 49 113 82 l86 42
25 -21 24 -22 -33 -28 -33 -29 37 22 37 21 41 -27 41 -27 -34 -36 c-61 -66
-62 -77 -3 -21 34 31 61 49 63 43 3 -7 20 -22 39 -33 47 -29 43 -42 -7 -25
-63 23 -81 16 -21 -7 52 -21 52 -21 35 -42 -17 -20 -17 -20 1 -4 18 16 22 15
65 -14 l46 -31 -25 27 c-14 16 -34 32 -45 36 -20 8 -20 8 -1 16 13 5 21 3 24
-4 2 -7 9 -12 15 -12 28 0 102 -88 138 -165 21 -44 39 -73 40 -65 0 8 7 -5 15
-30 l13 -45 -6 55 c-3 30 -12 75 -19 100 -7 24 -12 46 -10 48 7 6 54 -80 71
-127 17 -50 19 -99 4 -156 -5 -22 -10 -78 -10 -125 l-1 -85 -13 53 c-19 79
-42 128 -89 201 -55 83 -125 165 -196 227 l-55 49 48 -55 c126 -146 286 -426
307 -539 5 -29 10 -99 11 -155 1 -55 5 -128 9 -161 l7 -60 2 55 c10 335 23
624 30 665 l8 50 8 -43 c4 -23 11 -45 15 -47 5 -3 22 37 39 87 17 51 44 115
60 142 25 42 30 46 33 27 3 -21 5 -20 38 16 22 24 25 29 8 14 -33 -29 -38 -21
-6 8 11 11 24 18 28 16 4 -3 31 7 60 21 29 14 57 23 64 21 6 -3 19 -18 29 -35
l17 -30 -56 -40 c-74 -53 -172 -148 -190 -187 -12 -24 -6 -20 29 20 50 56 215
191 228 188 14 -4 11 3 -21 53 -16 26 -27 51 -24 55 3 5 0 9 -5 9 -21 0 -11
19 17 34 26 14 29 13 67 -22 38 -36 27 -16 -24 41 -14 15 -19 27 -13 27 7 0
12 7 12 15 0 14 3 14 28 1 16 -8 53 -36 83 -61 50 -44 49 -43 -9 14 l-63 62
30 28 30 28 93 -48 c107 -56 90 -38 -22 23 -92 50 -85 45 -71 62 11 13 22 10
84 -21 40 -19 80 -46 89 -58z m-427 34 c3 5 -1 12 -7 14 -9 4 -10 6 -1 6 19 1
25 -17 13 -39 l-11 -21 -30 21 c-35 25 -29 49 6 26 13 -9 26 -12 30 -7z m60
11 c3 -5 2 -10 -4 -10 -5 0 -13 5 -16 10 -3 6 -2 10 4 10 5 0 13 -4 16 -10z
m-542 -32 c-36 -36 -54 -32 -29 7 9 14 26 25 39 25 20 0 20 -2 -10 -32z m178
-118 c49 -10 61 -9 125 9 22 6 48 11 59 11 17 -1 14 -6 -15 -31 -57 -50 -88
-62 -145 -57 -53 4 -94 27 -122 68 -15 22 -16 22 98 0z m-796 -30 c-3 -5 -12
-10 -18 -10 -7 0 -6 4 3 10 19 12 23 12 15 0z m1085 -513 c0 -2 -16 -19 -37
-38 l-36 -34 28 38 c23 30 45 48 45 34z m-1107 -292 l6 -30 -14 30 c-8 17 -14
39 -14 50 l0 20 8 -20 c4 -11 11 -33 14 -50z m552 16 c3 -5 2 -12 -3 -15 -5
-3 -9 1 -9 9 0 17 3 19 12 6z m-526 -81 c11 -24 11 -24 -3 -6 -9 11 -16 24
-16 30 0 12 5 7 19 -24z m1107 -56 c-3 -9 -6 -32 -6 -52 0 -28 -3 -33 -10 -22
-5 8 -10 32 -10 53 0 27 4 37 16 37 11 0 14 -5 10 -16z m19 -68 c-8 -59 -19
-76 -37 -57 -11 10 -10 11 5 6 15 -6 17 0 17 55 0 41 4 59 11 55 7 -5 8 -25 4
-59z m-1912 -34 c-148 -89 -295 -243 -329 -345 -24 -71 -16 -155 19 -200 64
-85 196 -89 416 -13 74 25 169 53 210 62 68 15 295 24 304 13 2 -2 7 -19 10
-36 l7 -33 -89 0 c-114 0 -222 -19 -396 -71 -119 -35 -154 -42 -235 -43 -109
-1 -159 16 -228 79 -79 71 -93 184 -37 296 51 99 223 253 347 309 68 31 68 23
1 -18z m1997 -38 c-13 -34 -49 -84 -60 -84 -10 0 52 109 62 110 4 0 3 -12 -2
-26z m48 -5 c-6 -16 -12 -28 -15 -26 -7 7 8 57 18 57 4 0 3 -14 -3 -31z m-779
-69 l0 -35 -14 44 c-8 25 -11 49 -8 55 9 14 22 -23 22 -64z m646 -20 c-3 -5
-16 -10 -28 -9 -20 1 -20 2 3 9 14 4 26 8 28 9 2 1 0 -3 -3 -9z m-789 -43 c8
3 14 -1 14 -9 0 -7 12 -31 26 -52 l26 -38 -24 16 c-22 15 -53 51 -73 86 -6 12
-5 12 5 3 7 -6 19 -9 26 -6z m78 -3 c11 -28 6 -39 -9 -20 -8 11 -15 23 -15 28
0 14 18 9 24 -8z m103 -66 c-3 -8 -6 -5 -6 6 -1 11 2 17 5 13 3 -3 4 -12 1
-19z m686 0 c-34 -38 -92 -135 -170 -283 -41 -77 -72 -131 -69 -120 3 11 21
85 40 165 20 80 41 164 48 186 l13 42 32 -27 c26 -21 30 -30 21 -45 -8 -15
-12 -16 -19 -5 -6 10 -9 8 -9 -9 0 -12 -9 -40 -20 -61 -30 -61 -69 -151 -65
-151 3 0 26 42 51 93 52 103 103 186 134 217 27 27 39 26 13 -2z m-794 -117
c56 -94 81 -143 81 -161 0 -12 2 -12 9 -2 5 9 28 -24 69 -100 63 -117 109
-224 93 -213 -16 10 -99 139 -126 196 -13 30 -25 49 -25 42 0 -19 41 -187 52
-208 12 -26 -43 38 -79 90 -15 22 -35 48 -44 57 -20 20 -122 256 -121 281 0 9
-3 15 -7 13 -4 -3 -6 7 -3 22 2 15 -3 46 -11 68 l-14 41 44 -30 c26 -19 58
-56 82 -96z m418 -123 c-3 -7 -5 -2 -5 12 0 14 2 19 5 13 2 -7 2 -19 0 -25z
m-397 -191 c0 -4 4 -6 9 -3 5 3 11 -2 14 -12 2 -9 8 -26 12 -37 13 -33 -10 -5
-40 50 -15 28 -20 41 -11 31 9 -11 16 -24 16 -29z m-365 3 c10 -11 16 -20 13
-20 -3 0 -13 9 -23 20 -10 11 -16 20 -13 20 3 0 13 -9 23 -20z m-74 -143 c-11
-18 -23 -53 -27 -77 -10 -64 -23 -85 -24 -36 0 43 -14 40 -24 -4 -2 -14 -4 1
-2 33 3 62 28 102 70 110 11 2 22 5 24 6 2 0 -6 -14 -17 -32z m97 25 c9 -7 8
-13 -8 -27 -11 -10 -24 -42 -31 -76 -12 -61 -24 -75 -32 -36 -3 13 -5 7 -6
-18 l-3 -40 -9 30 c-15 48 0 116 32 147 29 30 37 32 57 20z m111 -22 c11 -6
10 -10 -8 -19 -12 -7 -35 -36 -52 -66 -36 -64 -49 -75 -50 -43 -1 16 -4 12 -9
-12 l-7 -35 -1 40 c-1 46 19 108 43 136 18 18 48 18 84 -1z m1457 -5 c19 -19
23 -31 18 -52 -4 -22 -3 -25 5 -13 8 12 11 7 11 -23 0 -25 -4 -36 -11 -31 -7
4 -9 0 -5 -14 4 -12 2 -23 -5 -28 -7 -4 -9 -3 -5 4 3 6 2 13 -4 17 -5 3 -19
28 -31 55 -11 26 -32 58 -45 71 -33 31 -30 39 11 39 25 0 44 -8 61 -25z m79 1
c39 -39 47 -127 13 -134 -13 -2 -20 8 -27 40 -6 24 -20 60 -31 81 l-21 37 21
0 c12 0 32 -11 45 -24z m-197 -8 c30 -32 42 -71 35 -112 l-5 -35 -32 61 c-28
55 -67 90 -82 75 -4 -3 7 -22 25 -42 36 -42 37 -49 11 -75 -25 -25 -55 -25
-100 -1 -60 32 -43 87 40 132 47 25 82 24 108 -3z m-1270 -24 c28 -19 28 -53
0 -90 l-22 -29 28 25 c18 16 26 20 24 10 -4 -21 -37 -38 -61 -32 -14 3 -18 1
-13 -6 10 -16 -17 -15 -32 0 -15 15 -16 31 0 22 7 -4 8 -3 4 4 -9 15 -36 15
-36 0 0 -6 -3 -9 -6 -6 -7 8 23 67 49 96 24 26 35 27 65 6z m1329 -56 c-3 -8
-6 -5 -6 6 -1 11 2 17 5 13 3 -3 4 -12 1 -19z m200 -25 c-3 -10 -5 -2 -5 17 0
19 2 27 5 18 2 -10 2 -26 0 -35z"/>
<path d="M1859 2853 c-13 -16 -12 -17 4 -4 16 13 21 21 13 21 -2 0 -10 -8 -17
-17z"/>
<path d="M1979 2833 c-13 -16 -12 -17 4 -4 9 7 17 15 17 17 0 8 -8 3 -21 -13z"/>
<path d="M2110 2747 c0 -3 18 -16 41 -31 28 -19 39 -32 35 -43 -6 -13 -4 -14
10 -3 14 12 13 16 -8 32 -26 21 -78 51 -78 45z"/>
<path d="M3423 2335 c0 -27 2 -38 4 -22 2 15 2 37 0 50 -2 12 -4 0 -4 -28z"/>
<path d="M3363 2155 c0 -22 2 -30 4 -17 2 12 2 30 0 40 -3 9 -5 -1 -4 -23z"/>
<path d="M2305 1790 c21 -22 41 -40 44 -40 3 0 -13 18 -34 40 -21 22 -41 40
-44 40 -3 0 13 -18 34 -40z"/>
<path d="M3487 1750 c10 -19 27 -69 40 -110 18 -63 22 -69 22 -39 1 47 -23
117 -54 154 l-25 30 17 -35z"/>
<path d="M2492 1710 c0 -14 2 -19 5 -12 2 6 2 18 0 25 -3 6 -5 1 -5 -13z"/>
<path d="M3276 1679 c-27 -22 -52 -59 -39 -59 8 0 78 80 70 80 -2 0 -16 -9
-31 -21z"/>
<path d="M2502 1645 c0 -22 3 -60 7 -85 8 -41 9 -42 9 -10 0 19 -3 58 -8 85
-7 49 -7 49 -8 10z"/>
<path d="M2611 1424 c0 -11 3 -14 6 -6 3 7 2 16 -1 19 -3 4 -6 -2 -5 -13z"/>
<path d="M2950 1102 c-30 -59 -56 -110 -58 -114 -2 -5 -1 -8 2 -8 7 0 118 221
114 225 -2 2 -28 -44 -58 -103z"/>
<path d="M1937 3621 c33 -21 36 -38 14 -65 -12 -14 -11 -16 5 -10 14 5 12 1
-5 -12 -22 -16 -23 -18 -7 -24 16 -5 16 -9 -8 -37 -40 -47 -31 -52 14 -8 22
21 40 44 40 51 0 6 9 22 19 36 l20 24 -30 32 c-22 23 -39 32 -62 32 l-32 0 32
-19z"/>
<path d="M2411 3574 c0 -11 3 -14 6 -6 3 7 2 16 -1 19 -3 4 -6 -2 -5 -13z"/>
<path d="M2452 3435 c0 -11 4 -33 8 -50 7 -27 8 -27 8 -5 0 14 -4 36 -8 50 -6
20 -8 21 -8 5z"/>
<path d="M2756 3428 c-3 -13 -5 -36 -5 -53 1 -21 4 -15 10 20 8 52 6 72 -5 33z"/>
<path d="M2980 3429 c-19 -5 -51 -7 -70 -4 l-35 5 29 -16 c20 -11 41 -14 70
-10 113 17 118 18 105 27 -17 11 -53 10 -99 -2z"/>
<path d="M3768 3313 c6 -2 18 -2 25 0 6 3 1 5 -13 5 -14 0 -19 -2 -12 -5z"/>
<path d="M1508 3293 c12 -2 30 -2 40 0 9 3 -1 5 -23 4 -22 0 -30 -2 -17 -4z"/>
<path d="M1433 3283 c9 -2 23 -2 30 0 6 3 -1 5 -18 5 -16 0 -22 -2 -12 -5z"/>
<path d="M1378 3273 c7 -3 16 -2 19 1 4 3 -2 6 -13 5 -11 0 -14 -3 -6 -6z"/>
<path d="M2890 3271 c0 -6 4 -13 10 -16 6 -3 7 1 4 9 -7 18 -14 21 -14 7z"/>
<path d="M3588 3193 c6 -2 18 -2 25 0 6 3 1 5 -13 5 -14 0 -19 -2 -12 -5z"/>
<path d="M3638 3183 c6 -2 18 -2 25 0 6 3 1 5 -13 5 -14 0 -19 -2 -12 -5z"/>
<path d="M3688 3173 c7 -3 16 -2 19 1 4 3 -2 6 -13 5 -11 0 -14 -3 -6 -6z"/>
<path d="M3508 3163 c7 -3 16 -2 19 1 4 3 -2 6 -13 5 -11 0 -14 -3 -6 -6z"/>
<path d="M3548 3153 c7 -3 16 -2 19 1 4 3 -2 6 -13 5 -11 0 -14 -3 -6 -6z"/>
<path d="M3795 3140 c27 -12 43 -12 25 0 -8 5 -22 9 -30 9 -10 0 -8 -3 5 -9z"/>
<path d="M1170 2990 c-19 -11 -30 -19 -25 -19 6 0 26 8 45 19 19 11 31 19 25
19 -5 0 -26 -8 -45 -19z"/>
<path d="M1835 2970 c-3 -5 -2 -10 4 -10 5 0 13 5 16 10 3 6 2 10 -4 10 -5 0
-13 -4 -16 -10z"/>
<path d="M1303 2879 c-35 -22 -46 -37 -15 -20 22 13 58 40 52 41 -3 0 -20 -10
-37 -21z"/>
<path d="M1662 1610 c0 -19 2 -27 5 -17 2 9 2 25 0 35 -3 9 -5 1 -5 -18z"/>
<path d="M1731 1613 c-17 -41 -31 -140 -25 -176 11 -65 27 -117 36 -117 6 0 8
6 5 14 -28 72 -31 232 -5 279 5 10 8 21 5 23 -2 3 -9 -8 -16 -23z"/>
<path d="M1652 1540 c0 -19 2 -27 5 -17 2 9 2 25 0 35 -3 9 -5 1 -5 -18z"/>
<path d="M773 883 c9 -2 23 -2 30 0 6 3 -1 5 -18 5 -16 0 -22 -2 -12 -5z"/>
<path d="M1318 863 c7 -3 16 -2 19 1 4 3 -2 6 -13 5 -11 0 -14 -3 -6 -6z"/>
<path d="M1108 833 c12 -2 30 -2 40 0 9 3 -1 5 -23 4 -22 0 -30 -2 -17 -4z"/>
</g>
</svg>